<svg width="22" height="22" viewBox="0 0 22 22" fill="none" xmlns="http://www.w3.org/2000/svg">
<path d="M21.0001 0.999943L22 0.999943L22 0L21.0001 -4.37089e-08L21.0001 0.999943ZM0.293246 20.2908C0.105484 20.4786 5.8839e-07 20.7333 5.85176e-07 20.9988C5.81963e-07 21.2643 0.105484 21.519 0.293246 21.7068C0.481009 21.8945 0.735669 22 1.00121 22C1.26674 22 1.5214 21.8945 1.70917 21.7068L0.293246 20.2908ZM5.00098 1.99988L21.0001 1.99989L21.0001 -4.37089e-08L5.00098 -7.43051e-07L5.00098 1.99988ZM20.0001 0.999943L20.0001 16.999L22 16.999L22 0.999943L20.0001 0.999943ZM20.2921 0.291983L0.293246 20.2908L1.70917 21.7068L21.708 1.7079L20.2921 0.291983Z" fill="#055FCF"/>
</svg>
