<svg width="630" height="234" viewBox="0 0 630 234" fill="none" xmlns="http://www.w3.org/2000/svg">
<rect y="1" width="630" height="233" rx="13" fill="#090830"/>
<path d="M34.384 47.24C33.2 47.24 32.104 47.024 31.096 46.592C30.104 46.144 29.24 45.528 28.504 44.744C27.768 43.944 27.2 43.008 26.8 41.936C26.4 40.848 26.2 39.656 26.2 38.36C26.2 37.064 26.4 35.88 26.8 34.808C27.2 33.72 27.76 32.784 28.48 32C29.216 31.2 30.08 30.584 31.072 30.152C32.08 29.704 33.176 29.48 34.36 29.48C35.656 29.48 36.816 29.744 37.84 30.272C38.88 30.8 39.728 31.544 40.384 32.504C41.056 33.464 41.472 34.584 41.632 35.864H39.664C39.472 34.44 38.904 33.32 37.96 32.504C37.032 31.672 35.84 31.256 34.384 31.256C33.152 31.256 32.072 31.56 31.144 32.168C30.216 32.76 29.496 33.592 28.984 34.664C28.472 35.72 28.216 36.952 28.216 38.36C28.216 39.768 28.472 41.008 28.984 42.08C29.496 43.136 30.216 43.968 31.144 44.576C32.072 45.168 33.144 45.464 34.36 45.464C35.848 45.464 37.064 45.048 38.008 44.216C38.968 43.384 39.536 42.264 39.712 40.856H41.68C41.52 42.136 41.104 43.256 40.432 44.216C39.776 45.176 38.928 45.92 37.888 46.448C36.864 46.976 35.696 47.24 34.384 47.24ZM48.4118 47.24C47.6118 47.24 46.8998 47.08 46.2758 46.76C45.6518 46.424 45.1638 45.96 44.8118 45.368C44.4598 44.76 44.2838 44.064 44.2838 43.28V34.76H46.2038V42.776C46.2038 43.704 46.4278 44.4 46.8758 44.864C47.3398 45.328 47.9958 45.56 48.8438 45.56C49.6118 45.56 50.2918 45.384 50.8838 45.032C51.4758 44.68 51.9398 44.192 52.2758 43.568C52.6278 42.928 52.8038 42.2 52.8038 41.384L53.1158 44.288C52.7158 45.2 52.0918 45.92 51.2438 46.448C50.3958 46.976 49.4518 47.24 48.4118 47.24ZM52.9238 47V44.12H52.8038V34.76H54.7238V47H52.9238ZM58.5606 47V34.76H60.3606V37.88H60.4806V47H58.5606ZM60.4806 40.616L60.1686 37.712C60.4566 36.672 60.9686 35.88 61.7046 35.336C62.4406 34.792 63.2886 34.52 64.2486 34.52C64.6486 34.52 64.9206 34.552 65.0646 34.616V36.464C64.9846 36.432 64.8726 36.416 64.7286 36.416C64.5846 36.4 64.4086 36.392 64.2006 36.392C62.9846 36.392 62.0566 36.76 61.4166 37.496C60.7926 38.216 60.4806 39.256 60.4806 40.616ZM71.3611 47.24C69.8571 47.24 68.6571 46.896 67.7611 46.208C66.8651 45.504 66.3531 44.512 66.2251 43.232H68.0731C68.1851 44.016 68.5291 44.616 69.1051 45.032C69.6811 45.448 70.4491 45.656 71.4091 45.656C72.2571 45.656 72.9211 45.496 73.4011 45.176C73.8811 44.856 74.1211 44.4 74.1211 43.808C74.1211 43.392 73.9851 43.032 73.7131 42.728C73.4411 42.408 72.8971 42.144 72.0811 41.936L70.1131 41.432C68.9931 41.144 68.1531 40.704 67.5931 40.112C67.0331 39.504 66.7531 38.784 66.7531 37.952C66.7531 36.896 67.1451 36.064 67.9291 35.456C68.7131 34.832 69.7771 34.52 71.1211 34.52C72.4491 34.52 73.5291 34.84 74.3611 35.48C75.1931 36.12 75.6651 37.008 75.7771 38.144H73.9291C73.8171 37.488 73.5131 36.984 73.0171 36.632C72.5211 36.28 71.8651 36.104 71.0491 36.104C70.2651 36.104 69.6571 36.256 69.2251 36.56C68.7931 36.848 68.5771 37.264 68.5771 37.808C68.5771 38.224 68.7291 38.584 69.0331 38.888C69.3531 39.192 69.8811 39.448 70.6171 39.656L72.5371 40.184C73.6731 40.488 74.5291 40.952 75.1051 41.576C75.6811 42.2 75.9691 42.952 75.9691 43.832C75.9691 44.904 75.5611 45.744 74.7451 46.352C73.9291 46.944 72.8011 47.24 71.3611 47.24ZM84.0627 47.24C82.8627 47.24 81.8067 46.96 80.8947 46.4C79.9827 45.84 79.2707 45.08 78.7587 44.12C78.2627 43.144 78.0147 42.048 78.0147 40.832C78.0147 39.6 78.2707 38.512 78.7827 37.568C79.2947 36.624 79.9987 35.88 80.8947 35.336C81.8067 34.792 82.8627 34.52 84.0627 34.52C85.2787 34.52 86.3347 34.792 87.2307 35.336C88.1427 35.88 88.8467 36.624 89.3427 37.568C89.8547 38.512 90.1107 39.6 90.1107 40.832C90.1107 42.048 89.8547 43.144 89.3427 44.12C88.8467 45.08 88.1427 45.84 87.2307 46.4C86.3347 46.96 85.2787 47.24 84.0627 47.24ZM84.0627 45.608C84.8947 45.608 85.6147 45.408 86.2227 45.008C86.8307 44.592 87.3027 44.024 87.6387 43.304C87.9747 42.584 88.1427 41.752 88.1427 40.808C88.1427 39.4 87.7667 38.272 87.0147 37.424C86.2787 36.576 85.2947 36.152 84.0627 36.152C82.8467 36.152 81.8627 36.576 81.1107 37.424C80.3587 38.272 79.9827 39.4 79.9827 40.808C79.9827 41.752 80.1507 42.584 80.4867 43.304C80.8227 44.024 81.2947 44.592 81.9027 45.008C82.5267 45.408 83.2467 45.608 84.0627 45.608ZM97.795 47V29.72H99.715V47H97.795ZM103.561 47V34.76H105.481V47H103.561ZM103.417 31.976V29.72H105.625V31.976H103.417ZM109.326 47V34.76H111.126V37.64H111.246V47H109.326ZM118.086 47V38.984C118.086 38.056 117.854 37.36 117.39 36.896C116.926 36.432 116.238 36.2 115.326 36.2C114.526 36.2 113.814 36.376 113.19 36.728C112.582 37.08 112.102 37.568 111.75 38.192C111.414 38.816 111.246 39.544 111.246 40.376L110.934 37.472C111.35 36.56 111.982 35.84 112.83 35.312C113.694 34.784 114.67 34.52 115.758 34.52C117.038 34.52 118.062 34.888 118.83 35.624C119.614 36.344 120.006 37.296 120.006 38.48V47H118.086ZM128.565 52.16C127.109 52.16 125.893 51.816 124.917 51.128C123.957 50.456 123.373 49.56 123.165 48.44H124.989C125.165 49.08 125.557 49.584 126.165 49.952C126.789 50.336 127.629 50.528 128.685 50.528C129.933 50.528 130.877 50.184 131.517 49.496C132.157 48.824 132.477 47.832 132.477 46.52V43.904L132.717 43.952C132.445 44.88 131.901 45.624 131.085 46.184C130.269 46.728 129.301 47 128.181 47C127.109 47 126.165 46.744 125.349 46.232C124.533 45.704 123.901 44.976 123.453 44.048C123.005 43.12 122.781 42.04 122.781 40.808C122.781 39.56 123.013 38.464 123.477 37.52C123.941 36.576 124.589 35.848 125.421 35.336C126.269 34.808 127.253 34.544 128.373 34.544C129.525 34.544 130.485 34.824 131.253 35.384C132.037 35.944 132.557 36.744 132.813 37.784L132.597 37.808V34.76H134.397V46.52C134.397 48.264 133.877 49.64 132.837 50.648C131.797 51.656 130.373 52.16 128.565 52.16ZM128.661 45.344C129.861 45.344 130.813 44.928 131.517 44.096C132.221 43.264 132.573 42.136 132.573 40.712C132.573 39.32 132.221 38.224 131.517 37.424C130.813 36.608 129.861 36.2 128.661 36.2C127.445 36.2 126.485 36.608 125.781 37.424C125.093 38.24 124.749 39.36 124.749 40.784C124.749 42.176 125.101 43.288 125.805 44.12C126.509 44.936 127.461 45.344 128.661 45.344ZM142.232 47.24C141.432 47.24 140.72 47.08 140.096 46.76C139.472 46.424 138.984 45.96 138.632 45.368C138.28 44.76 138.104 44.064 138.104 43.28V34.76H140.024V42.776C140.024 43.704 140.248 44.4 140.696 44.864C141.16 45.328 141.816 45.56 142.664 45.56C143.432 45.56 144.112 45.384 144.704 45.032C145.296 44.68 145.76 44.192 146.096 43.568C146.448 42.928 146.624 42.2 146.624 41.384L146.936 44.288C146.536 45.2 145.912 45.92 145.064 46.448C144.216 46.976 143.272 47.24 142.232 47.24ZM146.744 47V44.12H146.624V34.76H148.544V47H146.744ZM159.799 47C159.735 46.728 159.687 46.416 159.655 46.064C159.639 45.712 159.631 45.264 159.631 44.72H159.511V38.864C159.511 37.936 159.295 37.256 158.863 36.824C158.447 36.376 157.767 36.152 156.823 36.152C155.895 36.152 155.151 36.344 154.591 36.728C154.047 37.096 153.743 37.624 153.679 38.312H151.831C151.911 37.128 152.407 36.2 153.319 35.528C154.231 34.856 155.423 34.52 156.895 34.52C158.415 34.52 159.543 34.88 160.279 35.6C161.015 36.32 161.383 37.4 161.383 38.84V44.72C161.383 45.072 161.407 45.44 161.455 45.824C161.503 46.192 161.567 46.584 161.647 47H159.799ZM155.599 47.24C154.335 47.24 153.327 46.936 152.575 46.328C151.839 45.704 151.471 44.856 151.471 43.784C151.471 42.712 151.839 41.88 152.575 41.288C153.311 40.696 154.383 40.28 155.791 40.04L160.063 39.32V40.904L156.079 41.528C155.183 41.672 154.503 41.912 154.039 42.248C153.575 42.584 153.343 43.072 153.343 43.712C153.343 44.336 153.551 44.808 153.967 45.128C154.399 45.448 155.031 45.608 155.863 45.608C156.935 45.608 157.807 45.368 158.479 44.888C159.167 44.392 159.511 43.752 159.511 42.968L159.823 44.672C159.567 45.488 159.063 46.12 158.311 46.568C157.575 47.016 156.671 47.24 155.599 47.24ZM169.956 52.16C168.5 52.16 167.284 51.816 166.308 51.128C165.348 50.456 164.764 49.56 164.556 48.44H166.38C166.556 49.08 166.948 49.584 167.556 49.952C168.18 50.336 169.02 50.528 170.076 50.528C171.324 50.528 172.268 50.184 172.908 49.496C173.548 48.824 173.868 47.832 173.868 46.52V43.904L174.108 43.952C173.836 44.88 173.292 45.624 172.476 46.184C171.66 46.728 170.692 47 169.572 47C168.5 47 167.556 46.744 166.74 46.232C165.924 45.704 165.292 44.976 164.844 44.048C164.396 43.12 164.172 42.04 164.172 40.808C164.172 39.56 164.404 38.464 164.868 37.52C165.332 36.576 165.98 35.848 166.812 35.336C167.66 34.808 168.644 34.544 169.764 34.544C170.916 34.544 171.876 34.824 172.644 35.384C173.428 35.944 173.948 36.744 174.204 37.784L173.988 37.808V34.76H175.788V46.52C175.788 48.264 175.268 49.64 174.228 50.648C173.188 51.656 171.764 52.16 169.956 52.16ZM170.052 45.344C171.252 45.344 172.204 44.928 172.908 44.096C173.612 43.264 173.964 42.136 173.964 40.712C173.964 39.32 173.612 38.224 172.908 37.424C172.204 36.608 171.252 36.2 170.052 36.2C168.836 36.2 167.876 36.608 167.172 37.424C166.484 38.24 166.14 39.36 166.14 40.784C166.14 42.176 166.492 43.288 167.196 44.12C167.9 44.936 168.852 45.344 170.052 45.344ZM184.655 47.24C183.487 47.24 182.455 46.968 181.559 46.424C180.663 45.864 179.959 45.104 179.447 44.144C178.935 43.184 178.679 42.08 178.679 40.832C178.679 39.584 178.927 38.488 179.423 37.544C179.935 36.584 180.647 35.84 181.559 35.312C182.471 34.784 183.519 34.52 184.703 34.52C185.839 34.52 186.823 34.768 187.655 35.264C188.503 35.76 189.151 36.456 189.599 37.352C190.063 38.248 190.295 39.304 190.295 40.52C190.295 40.68 190.287 40.832 190.271 40.976C190.271 41.12 190.255 41.28 190.223 41.456H180.119V39.848H189.047L188.423 40.736C188.423 39.264 188.095 38.136 187.439 37.352C186.799 36.552 185.887 36.152 184.703 36.152C183.487 36.152 182.503 36.576 181.751 37.424C181.015 38.256 180.647 39.384 180.647 40.808C180.647 42.264 181.015 43.432 181.751 44.312C182.503 45.176 183.503 45.608 184.751 45.608C185.535 45.608 186.223 45.44 186.815 45.104C187.407 44.752 187.839 44.256 188.111 43.616H189.935C189.535 44.736 188.863 45.624 187.919 46.28C186.991 46.92 185.903 47.24 184.655 47.24ZM193.186 47V34.76H194.986V37.64H195.106V47H193.186ZM201.442 47V38.888C201.442 37.96 201.234 37.28 200.818 36.848C200.402 36.416 199.802 36.2 199.018 36.2C198.282 36.2 197.618 36.376 197.026 36.728C196.434 37.08 195.962 37.568 195.61 38.192C195.274 38.816 195.106 39.544 195.106 40.376L194.794 37.472C195.21 36.56 195.834 35.84 196.666 35.312C197.498 34.784 198.402 34.52 199.378 34.52C200.562 34.52 201.522 34.872 202.258 35.576C202.994 36.264 203.362 37.2 203.362 38.384V47H201.442ZM209.698 47V38.888C209.698 37.96 209.49 37.28 209.074 36.848C208.658 36.416 208.058 36.2 207.274 36.2C206.538 36.2 205.874 36.376 205.282 36.728C204.69 37.08 204.218 37.568 203.866 38.192C203.53 38.816 203.362 39.544 203.362 40.376L202.882 37.472C203.298 36.56 203.938 35.84 204.802 35.312C205.666 34.784 206.594 34.52 207.586 34.52C208.77 34.52 209.738 34.872 210.49 35.576C211.242 36.264 211.618 37.2 211.618 38.384V47H209.698ZM229.019 47V44.144L229.259 44.216C228.955 45.144 228.395 45.88 227.579 46.424C226.779 46.968 225.819 47.24 224.699 47.24C223.595 47.24 222.627 46.976 221.795 46.448C220.979 45.92 220.339 45.184 219.875 44.24C219.427 43.296 219.203 42.192 219.203 40.928C219.203 39.648 219.435 38.528 219.899 37.568C220.363 36.608 221.011 35.864 221.843 35.336C222.675 34.808 223.651 34.544 224.771 34.544C225.923 34.544 226.891 34.824 227.675 35.384C228.459 35.944 228.995 36.736 229.283 37.76L228.899 37.808V29.72H230.819V47H229.019ZM225.059 45.56C226.291 45.56 227.251 45.144 227.939 44.312C228.643 43.464 228.995 42.312 228.995 40.856C228.995 39.432 228.643 38.304 227.939 37.472C227.235 36.64 226.275 36.224 225.059 36.224C223.843 36.224 222.891 36.64 222.203 37.472C221.515 38.304 221.171 39.456 221.171 40.928C221.171 42.368 221.515 43.504 222.203 44.336C222.891 45.152 223.843 45.56 225.059 45.56ZM239.686 47.24C238.518 47.24 237.486 46.968 236.59 46.424C235.694 45.864 234.99 45.104 234.478 44.144C233.966 43.184 233.71 42.08 233.71 40.832C233.71 39.584 233.958 38.488 234.454 37.544C234.966 36.584 235.678 35.84 236.59 35.312C237.502 34.784 238.55 34.52 239.734 34.52C240.87 34.52 241.854 34.768 242.686 35.264C243.534 35.76 244.182 36.456 244.63 37.352C245.094 38.248 245.326 39.304 245.326 40.52C245.326 40.68 245.318 40.832 245.302 40.976C245.302 41.12 245.286 41.28 245.254 41.456H235.15V39.848H244.078L243.454 40.736C243.454 39.264 243.126 38.136 242.47 37.352C241.83 36.552 240.918 36.152 239.734 36.152C238.518 36.152 237.534 36.576 236.782 37.424C236.046 38.256 235.678 39.384 235.678 40.808C235.678 42.264 236.046 43.432 236.782 44.312C237.534 45.176 238.534 45.608 239.782 45.608C240.566 45.608 241.254 45.44 241.846 45.104C242.438 44.752 242.87 44.256 243.142 43.616H244.966C244.566 44.736 243.894 45.624 242.95 46.28C242.022 46.92 240.934 47.24 239.686 47.24ZM32.968 79.216C31.816 79.216 30.848 78.936 30.064 78.376C29.28 77.816 28.744 77.024 28.456 76L28.84 75.952V83.92H26.92V66.76H28.72V69.616L28.456 69.544C28.76 68.6 29.336 67.864 30.184 67.336C31.032 66.792 32.016 66.52 33.136 66.52C34.224 66.52 35.168 66.784 35.968 67.312C36.784 67.84 37.416 68.576 37.864 69.52C38.312 70.464 38.536 71.568 38.536 72.832C38.536 74.112 38.304 75.232 37.84 76.192C37.376 77.152 36.728 77.896 35.896 78.424C35.064 78.952 34.088 79.216 32.968 79.216ZM32.68 77.536C33.896 77.536 34.848 77.12 35.536 76.288C36.224 75.44 36.568 74.288 36.568 72.832C36.568 71.392 36.224 70.264 35.536 69.448C34.848 68.616 33.896 68.2 32.68 68.2C31.464 68.2 30.504 68.624 29.8 69.472C29.096 70.304 28.744 71.448 28.744 72.904C28.744 74.328 29.096 75.456 29.8 76.288C30.504 77.12 31.464 77.536 32.68 77.536ZM41.4747 79V66.76H43.2747V69.88H43.3947V79H41.4747ZM43.3947 72.616L43.0827 69.712C43.3707 68.672 43.8827 67.88 44.6187 67.336C45.3547 66.792 46.2027 66.52 47.1627 66.52C47.5627 66.52 47.8347 66.552 47.9787 66.616V68.464C47.8987 68.432 47.7867 68.416 47.6427 68.416C47.4987 68.4 47.3227 68.392 47.1147 68.392C45.8987 68.392 44.9707 68.76 44.3307 69.496C43.7067 70.216 43.3947 71.256 43.3947 72.616ZM55.5627 79.24C54.3627 79.24 53.3067 78.96 52.3947 78.4C51.4827 77.84 50.7707 77.08 50.2587 76.12C49.7627 75.144 49.5147 74.048 49.5147 72.832C49.5147 71.6 49.7707 70.512 50.2827 69.568C50.7947 68.624 51.4987 67.88 52.3947 67.336C53.3067 66.792 54.3627 66.52 55.5627 66.52C56.7787 66.52 57.8347 66.792 58.7307 67.336C59.6427 67.88 60.3467 68.624 60.8427 69.568C61.3547 70.512 61.6107 71.6 61.6107 72.832C61.6107 74.048 61.3547 75.144 60.8427 76.12C60.3467 77.08 59.6427 77.84 58.7307 78.4C57.8347 78.96 56.7787 79.24 55.5627 79.24ZM55.5627 77.608C56.3947 77.608 57.1147 77.408 57.7227 77.008C58.3307 76.592 58.8027 76.024 59.1387 75.304C59.4747 74.584 59.6427 73.752 59.6427 72.808C59.6427 71.4 59.2667 70.272 58.5147 69.424C57.7787 68.576 56.7947 68.152 55.5627 68.152C54.3467 68.152 53.3627 68.576 52.6107 69.424C51.8587 70.272 51.4827 71.4 51.4827 72.808C51.4827 73.752 51.6507 74.584 51.9867 75.304C52.3227 76.024 52.7947 76.592 53.4027 77.008C54.0267 77.408 54.7467 77.608 55.5627 77.608ZM69.3623 84.16C67.9063 84.16 66.6903 83.816 65.7143 83.128C64.7543 82.456 64.1703 81.56 63.9623 80.44H65.7863C65.9623 81.08 66.3543 81.584 66.9623 81.952C67.5863 82.336 68.4263 82.528 69.4823 82.528C70.7303 82.528 71.6743 82.184 72.3143 81.496C72.9543 80.824 73.2743 79.832 73.2743 78.52V75.904L73.5143 75.952C73.2423 76.88 72.6983 77.624 71.8823 78.184C71.0663 78.728 70.0983 79 68.9783 79C67.9063 79 66.9623 78.744 66.1463 78.232C65.3303 77.704 64.6983 76.976 64.2503 76.048C63.8023 75.12 63.5783 74.04 63.5783 72.808C63.5783 71.56 63.8103 70.464 64.2743 69.52C64.7383 68.576 65.3863 67.848 66.2183 67.336C67.0663 66.808 68.0503 66.544 69.1703 66.544C70.3223 66.544 71.2823 66.824 72.0503 67.384C72.8343 67.944 73.3543 68.744 73.6103 69.784L73.3943 69.808V66.76H75.1943V78.52C75.1943 80.264 74.6743 81.64 73.6343 82.648C72.5943 83.656 71.1703 84.16 69.3623 84.16ZM69.4583 77.344C70.6583 77.344 71.6103 76.928 72.3143 76.096C73.0183 75.264 73.3703 74.136 73.3703 72.712C73.3703 71.32 73.0183 70.224 72.3143 69.424C71.6103 68.608 70.6583 68.2 69.4583 68.2C68.2423 68.2 67.2823 68.608 66.5783 69.424C65.8903 70.24 65.5463 71.36 65.5463 72.784C65.5463 74.176 65.8983 75.288 66.6023 76.12C67.3063 76.936 68.2583 77.344 69.4583 77.344ZM79.045 79V66.76H80.845V69.88H80.965V79H79.045ZM80.965 72.616L80.653 69.712C80.941 68.672 81.453 67.88 82.189 67.336C82.925 66.792 83.773 66.52 84.733 66.52C85.133 66.52 85.405 66.552 85.549 66.616V68.464C85.469 68.432 85.357 68.416 85.213 68.416C85.069 68.4 84.893 68.392 84.685 68.392C83.469 68.392 82.541 68.76 81.901 69.496C81.277 70.216 80.965 71.256 80.965 72.616ZM95.2054 79C95.1414 78.728 95.0934 78.416 95.0614 78.064C95.0454 77.712 95.0374 77.264 95.0374 76.72H94.9174V70.864C94.9174 69.936 94.7014 69.256 94.2694 68.824C93.8534 68.376 93.1734 68.152 92.2294 68.152C91.3014 68.152 90.5574 68.344 89.9974 68.728C89.4534 69.096 89.1494 69.624 89.0854 70.312H87.2374C87.3174 69.128 87.8134 68.2 88.7254 67.528C89.6374 66.856 90.8294 66.52 92.3014 66.52C93.8214 66.52 94.9494 66.88 95.6854 67.6C96.4214 68.32 96.7894 69.4 96.7894 70.84V76.72C96.7894 77.072 96.8134 77.44 96.8614 77.824C96.9094 78.192 96.9734 78.584 97.0534 79H95.2054ZM91.0054 79.24C89.7414 79.24 88.7334 78.936 87.9814 78.328C87.2454 77.704 86.8774 76.856 86.8774 75.784C86.8774 74.712 87.2454 73.88 87.9814 73.288C88.7174 72.696 89.7894 72.28 91.1974 72.04L95.4694 71.32V72.904L91.4854 73.528C90.5894 73.672 89.9094 73.912 89.4454 74.248C88.9814 74.584 88.7494 75.072 88.7494 75.712C88.7494 76.336 88.9574 76.808 89.3734 77.128C89.8054 77.448 90.4374 77.608 91.2694 77.608C92.3414 77.608 93.2134 77.368 93.8854 76.888C94.5734 76.392 94.9174 75.752 94.9174 74.968L95.2294 76.672C94.9734 77.488 94.4694 78.12 93.7174 78.568C92.9814 79.016 92.0774 79.24 91.0054 79.24ZM100.49 79V66.76H102.29V69.64H102.41V79H100.49ZM108.746 79V70.888C108.746 69.96 108.538 69.28 108.122 68.848C107.706 68.416 107.106 68.2 106.322 68.2C105.586 68.2 104.922 68.376 104.33 68.728C103.738 69.08 103.266 69.568 102.914 70.192C102.578 70.816 102.41 71.544 102.41 72.376L102.098 69.472C102.514 68.56 103.138 67.84 103.97 67.312C104.802 66.784 105.706 66.52 106.682 66.52C107.866 66.52 108.826 66.872 109.562 67.576C110.298 68.264 110.666 69.2 110.666 70.384V79H108.746ZM117.002 79V70.888C117.002 69.96 116.794 69.28 116.378 68.848C115.962 68.416 115.362 68.2 114.578 68.2C113.842 68.2 113.178 68.376 112.586 68.728C111.994 69.08 111.522 69.568 111.17 70.192C110.834 70.816 110.666 71.544 110.666 72.376L110.186 69.472C110.602 68.56 111.242 67.84 112.106 67.312C112.97 66.784 113.898 66.52 114.89 66.52C116.074 66.52 117.042 66.872 117.794 67.576C118.546 68.264 118.922 69.2 118.922 70.384V79H117.002ZM130.057 79C129.993 78.728 129.945 78.416 129.913 78.064C129.897 77.712 129.889 77.264 129.889 76.72H129.769V70.864C129.769 69.936 129.553 69.256 129.121 68.824C128.705 68.376 128.025 68.152 127.081 68.152C126.153 68.152 125.409 68.344 124.849 68.728C124.305 69.096 124.001 69.624 123.937 70.312H122.089C122.169 69.128 122.665 68.2 123.577 67.528C124.489 66.856 125.681 66.52 127.153 66.52C128.673 66.52 129.801 66.88 130.537 67.6C131.273 68.32 131.641 69.4 131.641 70.84V76.72C131.641 77.072 131.665 77.44 131.713 77.824C131.761 78.192 131.825 78.584 131.905 79H130.057ZM125.857 79.24C124.593 79.24 123.585 78.936 122.833 78.328C122.097 77.704 121.729 76.856 121.729 75.784C121.729 74.712 122.097 73.88 122.833 73.288C123.569 72.696 124.641 72.28 126.049 72.04L130.321 71.32V72.904L126.337 73.528C125.441 73.672 124.761 73.912 124.297 74.248C123.833 74.584 123.601 75.072 123.601 75.712C123.601 76.336 123.809 76.808 124.225 77.128C124.657 77.448 125.289 77.608 126.121 77.608C127.193 77.608 128.065 77.368 128.737 76.888C129.425 76.392 129.769 75.752 129.769 74.968L130.081 76.672C129.825 77.488 129.321 78.12 128.569 78.568C127.833 79.016 126.929 79.24 125.857 79.24ZM140.19 79.24C139.07 79.24 138.07 78.968 137.19 78.424C136.326 77.864 135.638 77.104 135.126 76.144C134.63 75.168 134.382 74.064 134.382 72.832C134.382 71.6 134.63 70.512 135.126 69.568C135.638 68.624 136.326 67.88 137.19 67.336C138.07 66.792 139.062 66.52 140.166 66.52C141.078 66.52 141.894 66.696 142.614 67.048C143.35 67.4 143.95 67.904 144.414 68.56C144.894 69.2 145.198 69.952 145.326 70.816H143.55C143.39 70.032 143.022 69.392 142.446 68.896C141.87 68.4 141.126 68.152 140.214 68.152C139.43 68.152 138.75 68.344 138.174 68.728C137.598 69.112 137.15 69.656 136.83 70.36C136.51 71.064 136.35 71.888 136.35 72.832C136.35 73.776 136.51 74.608 136.83 75.328C137.15 76.048 137.598 76.608 138.174 77.008C138.766 77.408 139.454 77.608 140.238 77.608C141.118 77.608 141.854 77.368 142.446 76.888C143.038 76.392 143.414 75.752 143.574 74.968H145.35C145.206 75.816 144.886 76.568 144.39 77.224C143.91 77.864 143.31 78.36 142.59 78.712C141.87 79.064 141.07 79.24 140.19 79.24ZM139.878 84.16C139.046 84.16 138.374 83.968 137.862 83.584C137.35 83.2 137.078 82.68 137.046 82.024H138.39C138.422 82.344 138.59 82.568 138.894 82.696C139.198 82.84 139.542 82.912 139.926 82.912C140.294 82.912 140.606 82.84 140.862 82.696C141.134 82.568 141.27 82.376 141.27 82.12C141.27 81.848 141.11 81.616 140.79 81.424C140.486 81.232 139.886 81.12 138.99 81.088L139.59 78.712H140.982L140.574 80.056C141.358 80.216 141.902 80.48 142.206 80.848C142.526 81.232 142.686 81.656 142.686 82.12C142.686 82.776 142.422 83.28 141.894 83.632C141.382 83.984 140.71 84.16 139.878 84.16ZM155.604 79C155.54 78.728 155.492 78.416 155.46 78.064C155.444 77.712 155.436 77.264 155.436 76.72H155.316V70.864C155.316 69.936 155.1 69.256 154.668 68.824C154.252 68.376 153.572 68.152 152.628 68.152C151.7 68.152 150.956 68.344 150.396 68.728C149.852 69.096 149.548 69.624 149.484 70.312H147.636C147.716 69.128 148.212 68.2 149.124 67.528C150.036 66.856 151.228 66.52 152.7 66.52C154.22 66.52 155.348 66.88 156.084 67.6C156.82 68.32 157.188 69.4 157.188 70.84V76.72C157.188 77.072 157.212 77.44 157.26 77.824C157.308 78.192 157.372 78.584 157.452 79H155.604ZM151.404 79.24C150.14 79.24 149.132 78.936 148.38 78.328C147.644 77.704 147.276 76.856 147.276 75.784C147.276 74.712 147.644 73.88 148.38 73.288C149.116 72.696 150.188 72.28 151.596 72.04L155.868 71.32V72.904L151.884 73.528C150.988 73.672 150.308 73.912 149.844 74.248C149.38 74.584 149.148 75.072 149.148 75.712C149.148 76.336 149.356 76.808 149.772 77.128C150.204 77.448 150.836 77.608 151.668 77.608C152.74 77.608 153.612 77.368 154.284 76.888C154.972 76.392 155.316 75.752 155.316 74.968L155.628 76.672C155.372 77.488 154.868 78.12 154.116 78.568C153.38 79.016 152.476 79.24 151.404 79.24ZM154.428 64.768C153.948 64.768 153.532 64.688 153.18 64.528C152.844 64.352 152.532 64.16 152.244 63.952C151.972 63.728 151.7 63.536 151.428 63.376C151.172 63.2 150.9 63.112 150.612 63.112C150.292 63.112 150.02 63.224 149.796 63.448C149.572 63.672 149.46 64.032 149.46 64.528H148.068C148.068 63.92 148.18 63.408 148.404 62.992C148.644 62.56 148.972 62.232 149.388 62.008C149.804 61.784 150.276 61.672 150.804 61.672C151.3 61.672 151.716 61.76 152.052 61.936C152.388 62.096 152.684 62.288 152.94 62.512C153.196 62.72 153.444 62.912 153.684 63.088C153.94 63.248 154.22 63.328 154.524 63.328C154.86 63.328 155.14 63.216 155.364 62.992C155.588 62.768 155.7 62.408 155.7 61.912H157.092C157.092 62.488 156.972 62.992 156.732 63.424C156.508 63.856 156.196 64.192 155.796 64.432C155.396 64.656 154.94 64.768 154.428 64.768ZM165.977 79.24C164.777 79.24 163.721 78.96 162.809 78.4C161.897 77.84 161.185 77.08 160.673 76.12C160.177 75.144 159.929 74.048 159.929 72.832C159.929 71.6 160.185 70.512 160.697 69.568C161.209 68.624 161.913 67.88 162.809 67.336C163.721 66.792 164.777 66.52 165.977 66.52C167.193 66.52 168.249 66.792 169.145 67.336C170.057 67.88 170.761 68.624 171.257 69.568C171.769 70.512 172.025 71.6 172.025 72.832C172.025 74.048 171.769 75.144 171.257 76.12C170.761 77.08 170.057 77.84 169.145 78.4C168.249 78.96 167.193 79.24 165.977 79.24ZM165.977 77.608C166.809 77.608 167.529 77.408 168.137 77.008C168.745 76.592 169.217 76.024 169.553 75.304C169.889 74.584 170.057 73.752 170.057 72.808C170.057 71.4 169.681 70.272 168.929 69.424C168.193 68.576 167.209 68.152 165.977 68.152C164.761 68.152 163.777 68.576 163.025 69.424C162.273 70.272 161.897 71.4 161.897 72.808C161.897 73.752 162.065 74.584 162.401 75.304C162.737 76.024 163.209 76.592 163.817 77.008C164.441 77.408 165.161 77.608 165.977 77.608ZM26.488 111V93.72H34.24C35.504 93.72 36.584 93.936 37.48 94.368C38.392 94.8 39.088 95.408 39.568 96.192C40.064 96.976 40.312 97.904 40.312 98.976C40.312 100.032 40.064 100.96 39.568 101.76C39.072 102.56 38.376 103.184 37.48 103.632C36.584 104.064 35.504 104.28 34.24 104.28H28.912V101.832H34.096C35.088 101.832 35.848 101.576 36.376 101.064C36.92 100.552 37.192 99.856 37.192 98.976C37.192 98.112 36.92 97.432 36.376 96.936C35.848 96.44 35.088 96.192 34.096 96.192H29.608V111H26.488ZM43.3838 115.92L46.5518 108.816L47.1038 107.904L50.5598 98.76H53.7758L46.4558 115.92H43.3838ZM46.0958 110.88L41.1278 98.76H44.4158L48.5678 109.752L46.0958 110.88ZM61.1196 111.24C59.6156 111.24 58.5036 110.888 57.7836 110.184C57.0796 109.464 56.7276 108.392 56.7276 106.968V95.976L59.7756 94.848V107.04C59.7756 107.632 59.9356 108.072 60.2556 108.36C60.5756 108.648 61.0796 108.792 61.7676 108.792C62.0396 108.792 62.2796 108.776 62.4876 108.744C62.7116 108.696 62.9196 108.64 63.1116 108.576V110.928C62.9196 111.024 62.6476 111.096 62.2956 111.144C61.9436 111.208 61.5516 111.24 61.1196 111.24ZM54.3756 101.136V98.76H63.1116V101.136H54.3756ZM65.3736 111V93.72H68.3976V111H65.3736ZM73.9656 111V103.272C73.9656 102.52 73.7736 101.952 73.3896 101.568C73.0056 101.184 72.4456 100.992 71.7096 100.992C71.0696 100.992 70.4936 101.136 69.9816 101.424C69.4856 101.712 69.0936 102.112 68.8056 102.624C68.5336 103.136 68.3976 103.728 68.3976 104.4L68.0856 101.472C68.5016 100.576 69.1096 99.864 69.9096 99.336C70.7096 98.792 71.6696 98.52 72.7896 98.52C74.1176 98.52 75.1496 98.896 75.8856 99.648C76.6376 100.4 77.0136 101.4 77.0136 102.648V111H73.9656ZM85.6369 111.24C84.3409 111.24 83.1969 110.968 82.2049 110.424C81.2289 109.88 80.4689 109.128 79.9249 108.168C79.3809 107.192 79.1089 106.08 79.1089 104.832C79.1089 103.584 79.3809 102.488 79.9249 101.544C80.4689 100.6 81.2289 99.864 82.2049 99.336C83.1969 98.792 84.3409 98.52 85.6369 98.52C86.9489 98.52 88.0929 98.792 89.0689 99.336C90.0449 99.864 90.8049 100.6 91.3489 101.544C91.8929 102.488 92.1649 103.584 92.1649 104.832C92.1649 106.08 91.8849 107.192 91.3249 108.168C90.7809 109.128 90.0209 109.88 89.0449 110.424C88.0689 110.968 86.9329 111.24 85.6369 111.24ZM85.6369 108.816C86.2769 108.816 86.8529 108.656 87.3649 108.336C87.8769 108 88.2769 107.536 88.5649 106.944C88.8529 106.336 88.9969 105.624 88.9969 104.808C88.9969 103.608 88.6769 102.664 88.0369 101.976C87.4129 101.288 86.6129 100.944 85.6369 100.944C84.6609 100.944 83.8529 101.288 83.2129 101.976C82.5729 102.664 82.2529 103.608 82.2529 104.808C82.2529 105.624 82.3969 106.336 82.6849 106.944C82.9889 107.536 83.3889 108 83.8849 108.336C84.3969 108.656 84.9809 108.816 85.6369 108.816ZM94.3892 111V98.76H97.3412V101.64H97.4132V111H94.3892ZM102.981 111V103.272C102.981 102.52 102.789 101.952 102.405 101.568C102.021 101.184 101.461 100.992 100.725 100.992C100.085 100.992 99.5092 101.136 98.9972 101.424C98.5012 101.712 98.1092 102.112 97.8212 102.624C97.5492 103.136 97.4132 103.728 97.4132 104.4L97.1012 101.472C97.5172 100.576 98.1252 99.864 98.9252 99.336C99.7252 98.792 100.685 98.52 101.805 98.52C103.133 98.52 104.165 98.896 104.901 99.648C105.653 100.4 106.029 101.4 106.029 102.648V111H102.981Z" fill="white"/>
<path d="M443.854 215H380.146C367.363 215 357 204.702 357 192C357 179.298 367.363 169 380.146 169H443.854C456.637 169 467 179.298 467 192C467 204.702 456.637 215 443.854 215Z" fill="#FF8E47"/>
<path d="M630 95V130H610.18C600.138 130 592 122.164 592 112.505C592 107.675 594.038 103.29 597.323 100.122C600.617 96.9625 605.162 95 610.18 95H630Z" fill="#FF8E47"/>
<path d="M449.269 83H408.731C400.593 83 394 76.5062 394 68.5C394 60.489 400.593 54 408.731 54H449.269C457.407 54 464 60.4938 464 68.5C464 76.511 457.407 83 449.269 83Z" fill="#FF8E47"/>
<path d="M484.223 44.1584H488.267C494.655 57.0122 507.916 65.8517 523.246 65.8517C544.813 65.8517 562.293 48.367 562.293 26.8047V1H441.064C441.064 24.834 460.389 44.1584 484.223 44.1584Z" fill="#7481FF"/>
<path d="M453.442 1C453.442 24.834 472.767 44.1584 496.601 44.1584H500.645C507.038 57.0122 520.294 65.8517 535.624 65.8517C557.191 65.8517 574.671 48.367 574.671 26.8047" stroke="white" stroke-width="2" stroke-linecap="round" stroke-linejoin="round"/>
<path d="M516.164 34.9257L569.759 34.9257C576.314 34.9257 581.628 29.612 581.628 23.0573C581.628 16.5025 576.314 11.1888 569.759 11.1888L516.164 11.1888C509.609 11.1888 504.296 16.5025 504.296 23.0573C504.296 29.612 509.609 34.9257 516.164 34.9257Z" fill="#148EE4"/>
<path d="M547.939 31.7948H518.46C511.907 31.7948 506.591 26.4795 506.591 19.9264C506.591 13.3732 511.907 8.05792 518.46 8.05792" stroke="white" stroke-width="2" stroke-linecap="round" stroke-linejoin="round"/>
<path d="M532.372 8.05792H572.06C578.613 8.05792 583.928 13.3732 583.928 19.9264C583.928 26.4795 578.613 31.7948 572.06 31.7948" stroke="white" stroke-width="2" stroke-linecap="round" stroke-linejoin="round"/>
<mask id="mask0_927_2" style="mask-type:luminance" maskUnits="userSpaceOnUse" x="554" y="135" width="76" height="99">
<path d="M629.747 135.46H554.226V234H629.747V135.46Z" fill="white"/>
</mask>
<g mask="url(#mask0_927_2)">
<path d="M587.937 139.756C571.962 139.756 559.011 152.707 559.011 168.682C559.011 183.323 569.889 195.414 584.001 197.337V199.293C584.001 216.923 598.291 231.214 615.922 231.214H632.8V139.752H587.937V139.756Z" fill="#7481FF"/>
<path d="M626.8 149.984H587.937C571.962 149.984 559.011 162.935 559.011 178.91C559.011 193.55 569.889 205.642 584.001 207.564V209.52C584.001 227.151 598.291 241.441 615.922 241.441H626.805" stroke="white" stroke-width="2" stroke-linecap="round" stroke-linejoin="round"/>
<path d="M639.198 189.356H604.306C598.486 189.356 593.763 184.638 593.763 178.813C593.763 172.993 598.481 168.27 604.306 168.27H639.198C645.018 168.27 649.741 172.988 649.741 178.813C649.741 184.633 645.023 189.356 639.198 189.356Z" fill="#148EE4"/>
<path d="M637.615 173.522C643.435 173.522 648.159 178.24 648.159 184.065C648.159 189.885 643.44 194.608 637.615 194.608H625.441" stroke="white" stroke-width="2" stroke-linecap="round" stroke-linejoin="round"/>
<path d="M602.718 194.604C596.898 194.604 592.175 189.885 592.175 184.06C592.175 178.24 596.893 173.517 602.718 173.517H621.747" stroke="white" stroke-width="2" stroke-linecap="round" stroke-linejoin="round"/>
</g>
<path d="M464.957 119.587C456.035 108.5 441.162 99.8502 426.968 98.7532C412.779 97.6562 397.945 103.719 389.547 115.214C381.397 126.369 379.897 141.489 383.479 154.829C387.062 168.173 391.717 173.182 401.362 183.075C406.168 179.366 411.973 176.357 417.031 173.003C412.619 166.794 410.163 164.095 407.284 157.047C404.406 149.999 403.881 139.373 406.148 132.101C407.852 126.645 411.74 121.65 417.119 119.723C421.832 118.034 427.711 119.223 432.521 120.631C439.725 122.738 448.19 132.689 454.161 137.232C458.918 134.072 465.005 129.844 468.913 125.679C468.913 125.679 465.918 120.786 464.952 119.587H464.957Z" fill="#148EE4"/>
<path d="M464.957 119.587C440.263 136.781 414.245 151.848 388.207 166.93C390.498 172.823 398.76 184.944 398.76 184.944C398.76 184.944 417.211 174.769 421.949 171.755C436.579 162.459 449.161 151.906 464.156 142.261C467.889 139.858 472.146 136.271 475.592 133.475C472.5 129.271 468.044 123.796 464.952 119.592L464.957 119.587Z" fill="#148EE4"/>
<path d="M409.042 111.16C407.896 108.879 406.755 106.593 405.61 104.311" stroke="white" stroke-width="2" stroke-linecap="round" stroke-linejoin="round"/>
<path d="M403.469 112.049C402.353 110.947 401.236 109.845 400.125 108.743" stroke="white" stroke-width="2" stroke-linecap="round" stroke-linejoin="round"/>
<path d="M392.639 114.646C394.824 115.685 397.008 116.718 399.197 117.757" stroke="white" stroke-width="2" stroke-linecap="round" stroke-linejoin="round"/>
<path d="M388.022 122.102C389.217 122.476 390.406 122.844 391.6 123.218" stroke="white" stroke-width="2" stroke-linecap="round" stroke-linejoin="round"/>
<path d="M385.241 128.49C387.338 129.033 389.488 129.344 391.653 129.422" stroke="white" stroke-width="2" stroke-linecap="round" stroke-linejoin="round"/>
<path d="M384.202 135.174C385.27 135.315 386.343 135.46 387.411 135.601" stroke="white" stroke-width="2" stroke-linecap="round" stroke-linejoin="round"/>
<path d="M383.601 141.912C386.435 142.077 389.27 142.242 392.11 142.407" stroke="white" stroke-width="2" stroke-linecap="round" stroke-linejoin="round"/>
<path d="M384.158 152.144C385.702 151.94 387.245 151.732 388.784 151.528" stroke="white" stroke-width="2" stroke-linecap="round" stroke-linejoin="round"/>
<path d="M386.271 160.027C388.27 159.168 390.338 158.455 392.445 157.906" stroke="white" stroke-width="2" stroke-linecap="round" stroke-linejoin="round"/>
<path d="M389.576 167.056C390.386 166.25 391.44 165.687 392.561 165.459" stroke="white" stroke-width="2" stroke-linecap="round" stroke-linejoin="round"/>
<path d="M460.224 122.553C461.476 122.102 462.641 121.417 463.646 120.548" stroke="white" stroke-width="2" stroke-linecap="round" stroke-linejoin="round"/>
<path d="M453.904 121.044C456.171 119.32 458.277 117.388 460.19 115.282" stroke="white" stroke-width="2" stroke-linecap="round" stroke-linejoin="round"/>
<path d="M452.457 115.913C453.433 114.33 454.413 112.743 455.389 111.16" stroke="white" stroke-width="2" stroke-linecap="round" stroke-linejoin="round"/>
<path d="M445.604 115.155C446.036 112.855 446.992 110.651 448.375 108.763" stroke="white" stroke-width="2" stroke-linecap="round" stroke-linejoin="round"/>
<path d="M414.114 106.204C414.09 104.835 414.066 103.471 414.042 102.103" stroke="white" stroke-width="2" stroke-linecap="round" stroke-linejoin="round"/>
<path d="M421.385 107.86C421.511 105.806 421.638 103.753 421.769 101.695" stroke="white" stroke-width="2" stroke-linecap="round" stroke-linejoin="round"/>
<path d="M427.512 104.093C427.891 102.971 428.041 101.772 427.944 100.588" stroke="white" stroke-width="2" stroke-linecap="round" stroke-linejoin="round"/>
<path d="M431.71 110.127C432.458 107.335 433.206 104.549 433.953 101.758" stroke="white" stroke-width="2" stroke-linecap="round" stroke-linejoin="round"/>
<path d="M437.909 108.471C438.564 106.758 439.225 105.039 439.88 103.326" stroke="white" stroke-width="2" stroke-linecap="round" stroke-linejoin="round"/>
<path d="M443.555 109.073C444.137 108.248 444.521 107.287 444.666 106.292" stroke="white" stroke-width="2" stroke-linecap="round" stroke-linejoin="round"/>
<path d="M407.42 158.717C414.264 155.27 421.109 151.824 427.948 148.372" stroke="white" stroke-width="2" stroke-linecap="round" stroke-linejoin="round"/>
<path d="M399.561 182.046C406.201 178.075 412.847 174.109 419.487 170.139" stroke="white" stroke-width="2" stroke-linecap="round" stroke-linejoin="round"/>
<path d="M423.745 168.076C424.784 167.43 425.828 166.784 426.866 166.144" stroke="white" stroke-width="2" stroke-linecap="round" stroke-linejoin="round"/>
<path d="M465.7 138.426C468.204 136.888 470.709 135.349 473.209 133.81" stroke="white" stroke-width="2" stroke-linecap="round" stroke-linejoin="round"/>
<path d="M416.196 118.286C420.924 116.558 426.244 116.51 431.006 118.15" stroke="white" stroke-width="2" stroke-linecap="round" stroke-linejoin="round"/>
<path d="M439.778 122.684C438.535 121.471 437.021 120.544 435.375 119.99" stroke="white" stroke-width="2" stroke-linecap="round" stroke-linejoin="round"/>
<path d="M594.923 103.36C586.894 100.603 578.754 98.1708 570.531 96.0689C571.405 91.0788 572.705 86.0839 574.555 81.3705C582.991 83.4675 591.244 85.9091 599.442 88.8071C597.908 93.734 596.452 98.4377 594.923 103.365V103.36Z" fill="#148EE4"/>
<path d="M603.418 72.6038C596.457 71.3418 588.414 69.6574 578.118 66.6915C576.875 78.089 570.637 91.7438 569.414 103.141C567.934 116.956 586.661 119.257 590.423 113.99C592.608 110.932 593.865 107.369 594.666 103.695C596.874 93.569 601.772 83.4432 603.413 72.6038H603.418Z" stroke="white" stroke-width="2" stroke-linecap="round" stroke-linejoin="round"/>
<path d="M577.132 72.9485C585.608 74.7348 594.054 76.6425 602.476 78.6667" stroke="white" stroke-width="2" stroke-linecap="round" stroke-linejoin="round"/>
<path d="M584.477 73.9436C584.768 72.5116 585.06 71.0797 585.356 69.6525" stroke="white" stroke-width="2" stroke-linecap="round" stroke-linejoin="round"/>
<path d="M593.511 75.8756C593.918 74.2251 594.331 72.5747 594.739 70.9243" stroke="white" stroke-width="2" stroke-linecap="round" stroke-linejoin="round"/>
<path d="M574.434 113.922C573.773 115.976 573.118 118.029 572.458 120.082C575.273 120.762 578.346 122.145 581.162 122.825C581.419 122.888 581.793 122.553 581.531 122.51C582.118 120.437 582.652 118.694 583.239 116.617" stroke="white" stroke-width="2" stroke-linecap="round" stroke-linejoin="round"/>
<path d="M576.851 120.811C577.122 119.534 577.55 118.296 578.127 117.126" stroke="white" stroke-width="2" stroke-linecap="round" stroke-linejoin="round"/>
<path d="M529.607 118.582C528.016 119.434 525.874 118.944 524.778 117.473C523.682 116.003 523.752 113.722 524.937 112.329C526.3 110.724 528.462 110.513 529.919 112.024C531.377 113.536 531.441 117.607 529.612 118.588L529.607 118.582Z" stroke="white" stroke-width="2" stroke-linecap="round" stroke-linejoin="round"/>
<path d="M341.369 30.001C345.94 29.9445 350.472 32.2799 352.967 35.9808C353.97 37.4687 354.672 39.2673 354.331 41.0142C353.693 44.2866 349.916 45.9204 346.588 46.7868C344.064 47.446 340.37 47.2718 340.024 44.7715C339.649 42.05 343.747 41.1601 346.534 41.6734C350.691 42.4408 354.731 43.811 358.463 45.7321C362.25 47.6767 365.826 50.2946 367.897 53.9249C369.968 57.5551 370.241 62.3389 367.741 65.7055C365.242 69.0721 359.682 70.2068 356.475 67.4571C355.739 66.8261 355.12 65.9409 355.208 64.9945C355.379 63.1158 357.859 62.4849 359.808 62.3342C363.136 62.0753 366.538 61.8257 369.764 62.6591C372.99 63.4925 376.055 65.6302 377 68.7236" stroke="white" stroke-width="2" stroke-linecap="round" stroke-linejoin="round"/>
<path d="M493 174.651C496.613 172.863 501.035 175.016 503.77 177.979C508.865 183.504 510.43 192.016 507.641 198.993C506.018 203.047 501.02 206.833 497.622 204.085C494.897 201.878 496.086 197.103 498.987 195.135C502.259 192.918 506.876 193.327 510.162 195.524C513.448 197.722 515.506 201.42 516.442 205.264C517.281 208.709 517.271 212.49 515.647 215.642C514.56 217.762 510.835 219.102 510.304 216.783C510.201 216.329 510.284 215.857 510.396 215.404C511.503 210.965 515.311 207.311 519.796 206.39C524.282 205.464 529.221 207.311 532 210.95" stroke="white" stroke-width="2" stroke-linecap="round" stroke-linejoin="round"/>
<path d="M359.388 203.802C363.519 203.001 367.596 201.924 371.586 200.589" stroke="white" stroke-width="2" stroke-linecap="round" stroke-linejoin="round"/>
<path d="M359.767 197.943C363.364 201.03 367.101 203.958 370.965 206.705" stroke="white" stroke-width="2" stroke-linecap="round" stroke-linejoin="round"/>
<path d="M363.931 209.195C364.96 204.967 365.781 200.691 366.382 196.38" stroke="white" stroke-width="2" stroke-linecap="round" stroke-linejoin="round"/>
<path d="M319.366 78.8167C303.6 78.6971 290.144 92.0062 287.996 107.286C285.341 126.164 303.18 145.981 322.837 143.296C326.683 142.769 330.376 141.383 333.799 139.551C342.708 134.786 350.125 126.417 351.744 116.442C352.348 112.711 352.14 108.872 351.32 105.186C348.092 90.6295 334.27 78.9328 319.362 78.8201L319.366 78.8167Z" fill="#37C6ED"/>
<path d="M296.888 88.9657C297.858 88.9247 301.366 89.8573 301.933 90.6464C302.118 90.9026 302.275 91.2032 302.555 91.3501C302.893 91.5312 303.317 91.4355 303.665 91.2716C304.536 90.8616 305.175 90.0896 305.934 89.4986C306.692 88.9042 307.741 88.484 308.605 88.9076C309.268 89.2321 309.674 90.3834 310.071 91.0119C310.672 91.9684 311.212 93.0582 311.02 93.7721C310.617 95.2889 308.568 95.9414 308.161 97.4581C307.785 98.8655 307.409 100.352 307.799 101.756C308.011 102.514 308.445 103.279 308.25 104.044C307.997 105.038 306.856 105.465 305.893 105.824C304.929 106.179 302.938 107.706 303.283 108.673C304.137 111.068 307.28 112.332 310.064 113.268C309.985 113.934 310.873 114.33 311.522 114.159C312.175 113.992 312.708 113.51 313.35 113.316C314.054 113.104 314.836 113.247 315.523 112.977C316.056 112.769 316.462 112.335 316.937 112.014C317.412 111.693 318.556 111.283 319.045 111.58C321.467 111.116 324.685 110.894 327.151 110.969C327.677 113.596 329.361 116.175 328.548 118.73C328.06 120.267 327.377 121.634 326.195 122.727C327.24 124.746 328.282 126.761 329.327 128.78C329.56 129.228 329.799 129.71 329.741 130.212C329.648 131.038 328.494 131.961 328.794 132.736C329.529 134.646 330.362 136.88 331.097 138.786C329.925 139.063 328.388 139.425 327.237 139.767C326.625 138.772 326.014 137.775 325.402 136.781C324.999 136.122 324.589 135.459 324.06 134.895C323.506 134.308 322.611 133.481 321.863 133.177C320.179 130.581 318.15 128.538 316.295 126.065C313.285 125.576 310.422 124.538 307.936 122.771C307.666 122.088 307.597 121.347 307.532 120.616C307.372 118.853 307.215 117.087 307.054 115.324C306.221 114.972 305.045 114.043 304.386 113.425C303.747 112.824 303.16 112.086 302.313 111.86C301.578 111.666 300.68 111.86 300.143 111.321C298.842 110.005 296.734 109.329 294.886 109.432C293.762 109.493 292.628 110.016 291.548 109.701C291.063 109.561 290.643 109.264 290.233 108.97C289.83 108.683 288.406 107.58 288.002 107.296C289.15 99.9758 291.244 93.7516 296.895 88.9759L296.888 88.9657Z" fill="#204C30"/>
<path d="M341.113 131.172C345.178 127.715 347.969 122.795 348.847 117.531" stroke="white" stroke-width="2" stroke-linecap="round" stroke-linejoin="round"/>
<path d="M349.445 114.894C349.612 113.777 349.78 112.656 349.95 111.539" stroke="white" stroke-width="2" stroke-linecap="round" stroke-linejoin="round"/>
<path d="M289.048 107.706C289.905 108.697 290.957 109.78 292.266 109.705C292.744 109.678 293.195 109.493 293.656 109.36C295.815 108.731 298.278 109.278 299.969 110.764C301.042 111.707 302.501 112.291 303.901 112.021C304.984 112.981 306.046 114.429 307.129 115.389" stroke="#204C30" stroke-width="2" stroke-linecap="round" stroke-linejoin="round"/>
<path d="M309.558 113.001C308.803 112.646 308.048 112.294 307.29 111.939C306.255 111.454 305.185 110.945 304.427 110.091C303.665 109.237 303.286 107.932 303.826 106.924C305.257 106.415 306.63 105.52 307.976 104.823" stroke="#204C30" stroke-width="2" stroke-linecap="round" stroke-linejoin="round"/>
<path d="M308.123 102.927C308.294 102.049 308.171 101.12 307.782 100.314" stroke="#204C30" stroke-width="2" stroke-linecap="round" stroke-linejoin="round"/>
<path d="M307.946 98.3019C307.905 97.4445 308.212 96.6041 308.653 95.8697C309.281 94.8209 310.193 93.9396 311.263 93.3452C310.842 91.661 309.79 89.6216 308.748 88.2313C307.389 89.0101 305.206 90.0623 303.843 90.8412" stroke="#204C30" stroke-width="2" stroke-linecap="round" stroke-linejoin="round"/>
<path d="M301.223 90.3527C300.007 89.9086 298.79 89.4611 297.578 89.017" stroke="#204C30" stroke-width="2" stroke-linecap="round" stroke-linejoin="round"/>
<path d="M307.099 116.937C307.17 118.887 307.293 120.838 307.471 122.782C310.245 124.199 313.562 125.491 316.595 126.191C318.198 128.336 319.93 130.543 321.532 132.688C322.263 133.665 323.458 134.659 324.292 135.548C325.399 136.73 326.54 138.246 327.138 139.753C328.197 139.65 329.454 139.404 330.4 138.923" stroke="#204C30" stroke-width="2" stroke-linecap="round" stroke-linejoin="round"/>
<path d="M309.855 113.008C310.337 113.565 311.14 113.753 311.871 113.674C312.602 113.596 313.289 113.282 313.955 112.974C314.098 112.909 314.238 112.844 314.382 112.779C315.062 112.468 315.782 112.147 316.527 112.229C317.033 112.284 317.771 112.376 317.846 111.871" stroke="#204C30" stroke-width="2" stroke-linecap="round" stroke-linejoin="round"/>
<path d="M320.76 111.437C322.782 111.396 324.798 111.222 326.796 110.914C327.578 112.971 328.552 115.488 328.712 117.685C328.036 118.723 327.363 120.261 326.69 121.302C326.523 121.559 326.352 121.822 326.27 122.119C326.017 123.017 326.605 123.919 327.162 124.667C327.807 125.535 328.074 127.151 328.593 128.101C328.986 128.821 329.396 129.621 329.239 130.43C329.119 131.049 328.678 131.605 328.736 132.231C328.88 133.747 329.884 135.414 330.714 136.695" stroke="#204C30" stroke-width="2" stroke-linecap="round" stroke-linejoin="round"/>
<path d="M351.43 105.643C349.599 104.468 346.538 103.86 344.471 104.536C344.017 104.687 343.545 104.881 343.074 104.799C342.647 104.724 342.288 104.427 341.926 104.219C341.321 103.87 340.724 103.501 340.204 103.033C338.322 101.335 337.724 100.03 337.7 98.1208C337.673 95.9585 337.27 93.8063 336.303 91.8728C335.917 91.1008 335.425 90.3014 334.643 89.912C334.342 89.7616 333.751 90.2843 333.133 90.9983C331.801 92.5355 329.474 92.7302 327.944 91.3945C327.322 90.8514 326.69 90.4995 325.986 90.7352C324.914 91.0939 323.879 91.6029 322.758 91.7601C321.638 91.9172 319.984 88.6309 319.796 88.0433C319.653 87.5924 319.639 87.1142 319.738 86.653C319.882 85.9629 319.984 85.2934 320.039 84.6341C320.196 82.663 317.364 81.2556 319.018 78.8028C326.796 78.8199 331.217 80.6475 336.194 83.9816C344.024 89.2253 349.431 96.3957 351.433 105.64L351.43 105.643Z" fill="#204C30"/>
<path d="M318.98 78.9702C318.509 79.5817 318.447 80.4323 318.635 81.1804C318.823 81.9286 319.229 82.6015 319.632 83.2574" stroke="#204C30" stroke-width="2" stroke-linecap="round" stroke-linejoin="round"/>
<path d="M319.923 84.7366C319.8 85.7272 319.595 86.7077 319.308 87.6642" stroke="#204C30" stroke-width="2" stroke-linecap="round" stroke-linejoin="round"/>
<path d="M319.902 88.6754C320.326 89.3552 320.753 90.0384 321.177 90.7182C321.361 91.0154 321.556 91.3194 321.853 91.5073C322.242 91.7498 322.741 91.7396 323.178 91.6029C323.616 91.4697 324.009 91.2238 324.412 91.012C325.177 90.6123 326 90.3185 326.847 90.1511" stroke="#204C30" stroke-width="2" stroke-linecap="round" stroke-linejoin="round"/>
<path d="M327.893 91.0324C328.644 91.9445 329.891 92.4262 331.063 92.2554" stroke="#204C30" stroke-width="2" stroke-linecap="round" stroke-linejoin="round"/>
<path d="M333.7 90.6806C334.14 90.3321 334.82 90.4688 335.244 90.8343C335.671 91.1998 335.903 91.7361 336.122 92.252C336.262 92.5799 336.398 92.9045 336.539 93.2324" stroke="#204C30" stroke-width="2" stroke-linecap="round" stroke-linejoin="round"/>
<path d="M337.666 95.5143C337.639 96.9901 337.714 98.4659 337.895 99.9314C337.919 100.129 337.97 100.365 338.155 100.44" stroke="#204C30" stroke-width="2" stroke-linecap="round" stroke-linejoin="round"/>
<path d="M339.569 102.196C340.378 102.975 341.246 103.692 342.169 104.338" stroke="#204C30" stroke-width="2" stroke-linecap="round" stroke-linejoin="round"/>
<path d="M344.218 104.741C345.383 104.29 346.64 104.096 347.887 104.171" stroke="#204C30" stroke-width="2" stroke-linecap="round" stroke-linejoin="round"/>
<path d="M349.506 104.7C349.889 104.943 350.275 105.185 350.658 105.431" stroke="#204C30" stroke-width="2" stroke-linecap="round" stroke-linejoin="round"/>
<path d="M295.224 101.735C296.543 102.135 297.892 102.422 299.259 102.593" stroke="#204C30" stroke-width="2" stroke-linecap="round" stroke-linejoin="round"/>
<path d="M294.483 99.6307C295.73 99.8938 296.98 100.157 298.227 100.423" stroke="#204C30" stroke-width="2" stroke-linecap="round" stroke-linejoin="round"/>
<path d="M294.527 126.697C291.856 123.127 290.24 118.778 289.939 114.33" stroke="white" stroke-width="2" stroke-linecap="round" stroke-linejoin="round"/>
<path d="M295.88 128.951C296.344 129.761 296.915 130.506 297.574 131.165" stroke="white" stroke-width="2" stroke-linecap="round" stroke-linejoin="round"/>
<path d="M299.436 133.409C301.048 134.721 302.733 135.941 304.485 137.054" stroke="white" stroke-width="2" stroke-linecap="round" stroke-linejoin="round"/>
<path d="M341.15 90.4551C342.599 91.7874 343.89 93.2905 344.99 94.9234" stroke="#204C30" stroke-width="2" stroke-linecap="round" stroke-linejoin="round"/>
<path d="M346.568 97.178C347.081 97.7621 347.474 98.4454 347.723 99.1798" stroke="#204C30" stroke-width="2" stroke-linecap="round" stroke-linejoin="round"/>
<path d="M318.29 120.189C319.407 120.435 320.524 120.681 321.641 120.93" stroke="#204C30" stroke-width="2" stroke-linecap="round" stroke-linejoin="round"/>
<path d="M349.93 131.014C351.204 132.285 351.846 132.162 353.124 133.433C350.313 139.179 345.571 144.071 339.989 147.197C334.407 150.322 329.3 152.28 322.922 152.789C315.116 153.41 306.504 153.134 300.051 148.696C297.974 147.268 295.627 146.206 293.858 144.412C290.1 140.6 286.476 136.227 283.852 131.561C279.09 123.079 277.976 112.209 279.886 102.671C281.792 93.1333 288.317 83.9953 295.972 78C296.912 78.796 297.855 79.5953 298.794 80.3913" stroke="white" stroke-width="2" stroke-linecap="round" stroke-linejoin="round"/>
<path d="M344.878 136.962C343.836 135.855 342.743 134.796 341.602 133.792C342.408 133.071 343.221 132.114 344.03 131.394C345.076 132.412 346.142 133.365 347.293 134.26C346.456 135.151 345.564 135.947 344.878 136.962Z" fill="#F4F4F4"/>
<path d="M296.013 90.1169C294.971 89.0101 293.878 87.9511 292.737 86.9467C293.544 86.2259 294.357 85.2694 295.166 84.5486C296.211 85.5666 297.277 86.5197 298.429 87.4148C297.592 88.3064 296.7 89.1023 296.013 90.1169Z" fill="#F4F4F4"/>
<path d="M341.725 133.758C342.708 134.588 343.692 135.414 344.673 136.244" stroke="white" stroke-width="2" stroke-linecap="round" stroke-linejoin="round"/>
<path d="M344.321 131.448C345.383 132.418 346.442 133.385 347.505 134.355" stroke="white" stroke-width="2" stroke-linecap="round" stroke-linejoin="round"/>
<path d="M298.825 80.299C290.431 87.7188 284.016 98.2199 283.575 109.411C282.625 133.635 302.805 153.383 327.356 147.241C335.961 145.089 343.74 139.77 348.868 132.531C349.284 131.944 349.756 131.698 350.036 131.032" stroke="white" stroke-width="2" stroke-linecap="round" stroke-linejoin="round"/>
<path d="M292.956 87.4114C293.854 88.1868 294.753 88.9657 295.648 89.7412" stroke="white" stroke-width="2" stroke-linecap="round" stroke-linejoin="round"/>
<path d="M295.029 84.5623C296.03 85.5359 297.028 86.5061 298.029 87.4797" stroke="white" stroke-width="2" stroke-linecap="round" stroke-linejoin="round"/>
<path d="M326.379 158.613C334.94 157.312 342.589 157.54 343.904 158.968C345.906 161.141 340.802 162.805 338.25 163.59C329.567 166.262 319.277 169.159 310.392 168.048C309.097 167.888 307.635 167.56 307.205 166.6C306.692 165.462 307.966 164.178 309.35 163.505C312.882 161.79 317.067 160.485 321.286 159.556" stroke="white" stroke-width="2" stroke-linecap="round" stroke-linejoin="round"/>
<path d="M321.607 162.75C321.337 159.693 320.821 156.222 320.2 153.216" stroke="white" stroke-width="2" stroke-linecap="round" stroke-linejoin="round"/>
<path d="M325.037 153.305C325.71 156.013 326.304 159.187 326.683 161.951" stroke="white" stroke-width="2" stroke-linecap="round" stroke-linejoin="round"/>
<path d="M16.0775 163.939C15.6231 160.841 17.2014 157.544 19.9001 155.956C22.5989 154.371 26.2507 154.593 28.7342 156.499C30.4969 157.852 31.4193 160.964 29.496 162.081C28.1467 162.863 26.3669 161.961 25.4821 160.677C23.7535 158.169 24.3718 154.562 26.2814 152.191C28.1911 149.82 31.1187 148.492 34.0531 147.675C37.9885 146.582 40.3149 149.991 40.8546 154.039C38.2755 156.431 33.6398 154.405 32.4202 151.105C31.2007 147.805 32.4202 144.112 34.06 141" stroke="white" stroke-width="2" stroke-linecap="round" stroke-linejoin="round"/>
<path d="M90 170.223C92.9071 169.66 95.7767 168.901 98.5847 167.962" stroke="white" stroke-width="2" stroke-linecap="round" stroke-linejoin="round"/>
<path d="M90.2666 166.1C92.7979 168.273 95.4284 170.333 98.1476 172.266" stroke="white" stroke-width="2" stroke-linecap="round" stroke-linejoin="round"/>
<path d="M93.1973 174.019C93.9215 171.043 94.4988 168.033 94.9224 165" stroke="white" stroke-width="2" stroke-linecap="round" stroke-linejoin="round"/>
</svg>
