<svg width="630" height="234" viewBox="0 0 630 234" fill="none" xmlns="http://www.w3.org/2000/svg">
<rect y="1" width="630" height="233" rx="13" fill="#090830"/>
<path d="M45.512 62.32C43.9333 62.32 42.472 62.032 41.128 61.456C39.8053 60.8587 38.6533 60.0373 37.672 58.992C36.6907 57.9253 35.9333 56.6773 35.4 55.248C34.8667 53.7973 34.6 52.208 34.6 50.48C34.6 48.752 34.8667 47.1733 35.4 45.744C35.9333 44.2933 36.68 43.0453 37.64 42C38.6213 40.9333 39.7733 40.112 41.096 39.536C42.44 38.9387 43.9013 38.64 45.48 38.64C47.208 38.64 48.7547 38.992 50.12 39.696C51.5067 40.4 52.6373 41.392 53.512 42.672C54.408 43.952 54.9627 45.4453 55.176 47.152H52.552C52.296 45.2533 51.5387 43.76 50.28 42.672C49.0427 41.5627 47.4533 41.008 45.512 41.008C43.8693 41.008 42.4293 41.4133 41.192 42.224C39.9547 43.0133 38.9947 44.1227 38.312 45.552C37.6293 46.96 37.288 48.6027 37.288 50.48C37.288 52.3573 37.6293 54.0107 38.312 55.44C38.9947 56.848 39.9547 57.9573 41.192 58.768C42.4293 59.5573 43.8587 59.952 45.48 59.952C47.464 59.952 49.0853 59.3973 50.344 58.288C51.624 57.1787 52.3813 55.6853 52.616 53.808H55.24C55.0267 55.5147 54.472 57.008 53.576 58.288C52.7013 59.568 51.5707 60.56 50.184 61.264C48.8187 61.968 47.2613 62.32 45.512 62.32ZM64.2157 62.32C63.1491 62.32 62.1997 62.1067 61.3677 61.68C60.5357 61.232 59.8851 60.6133 59.4157 59.824C58.9464 59.0133 58.7117 58.0853 58.7117 57.04V45.68H61.2717V56.368C61.2717 57.6053 61.5704 58.5333 62.1677 59.152C62.7864 59.7707 63.6611 60.08 64.7917 60.08C65.8157 60.08 66.7224 59.8453 67.5117 59.376C68.3011 58.9067 68.9197 58.256 69.3677 57.424C69.8371 56.5707 70.0717 55.6 70.0717 54.512L70.4877 58.384C69.9544 59.6 69.1224 60.56 67.9917 61.264C66.8611 61.968 65.6024 62.32 64.2157 62.32ZM70.2317 62V58.16H70.0717V45.68H72.6317V62H70.2317ZM77.7475 62V45.68H80.1475V49.84H80.3075V62H77.7475ZM80.3075 53.488L79.8915 49.616C80.2755 48.2293 80.9582 47.1733 81.9395 46.448C82.9208 45.7227 84.0515 45.36 85.3315 45.36C85.8648 45.36 86.2275 45.4027 86.4195 45.488V47.952C86.3128 47.9093 86.1635 47.888 85.9715 47.888C85.7795 47.8667 85.5448 47.856 85.2675 47.856C83.6462 47.856 82.4088 48.3467 81.5555 49.328C80.7235 50.288 80.3075 51.6747 80.3075 53.488ZM94.8147 62.32C92.8094 62.32 91.2094 61.8613 90.0147 60.944C88.8201 60.0053 88.1374 58.6827 87.9667 56.976H90.4307C90.5801 58.0213 91.0387 58.8213 91.8067 59.376C92.5747 59.9307 93.5987 60.208 94.8787 60.208C96.0094 60.208 96.8947 59.9947 97.5347 59.568C98.1747 59.1413 98.4947 58.5333 98.4947 57.744C98.4947 57.1893 98.3134 56.7093 97.9507 56.304C97.5881 55.8773 96.8627 55.5253 95.7747 55.248L93.1507 54.576C91.6574 54.192 90.5374 53.6053 89.7907 52.816C89.0441 52.0053 88.6707 51.0453 88.6707 49.936C88.6707 48.528 89.1934 47.4187 90.2387 46.608C91.2841 45.776 92.7027 45.36 94.4947 45.36C96.2654 45.36 97.7054 45.7867 98.8147 46.64C99.9241 47.4933 100.553 48.6773 100.703 50.192H98.2387C98.0894 49.3173 97.6841 48.6453 97.0227 48.176C96.3614 47.7067 95.4867 47.472 94.3987 47.472C93.3534 47.472 92.5427 47.6747 91.9667 48.08C91.3907 48.464 91.1027 49.0187 91.1027 49.744C91.1027 50.2987 91.3054 50.7787 91.7107 51.184C92.1374 51.5893 92.8414 51.9307 93.8227 52.208L96.3827 52.912C97.8974 53.3173 99.0387 53.936 99.8067 54.768C100.575 55.6 100.959 56.6027 100.959 57.776C100.959 59.2053 100.415 60.3253 99.3267 61.136C98.2387 61.9253 96.7347 62.32 94.8147 62.32ZM111.75 62.32C110.15 62.32 108.742 61.9467 107.526 61.2C106.31 60.4533 105.361 59.44 104.678 58.16C104.017 56.8587 103.686 55.3973 103.686 53.776C103.686 52.1333 104.028 50.6827 104.71 49.424C105.393 48.1653 106.332 47.1733 107.526 46.448C108.742 45.7227 110.15 45.36 111.75 45.36C113.372 45.36 114.78 45.7227 115.974 46.448C117.19 47.1733 118.129 48.1653 118.79 49.424C119.473 50.6827 119.814 52.1333 119.814 53.776C119.814 55.3973 119.473 56.8587 118.79 58.16C118.129 59.44 117.19 60.4533 115.974 61.2C114.78 61.9467 113.372 62.32 111.75 62.32ZM111.75 60.144C112.86 60.144 113.82 59.8773 114.63 59.344C115.441 58.7893 116.07 58.032 116.518 57.072C116.966 56.112 117.19 55.0027 117.19 53.744C117.19 51.8667 116.689 50.3627 115.686 49.232C114.705 48.1013 113.393 47.536 111.75 47.536C110.129 47.536 108.817 48.1013 107.814 49.232C106.812 50.3627 106.31 51.8667 106.31 53.744C106.31 55.0027 106.534 56.112 106.982 57.072C107.43 58.032 108.06 58.7893 108.87 59.344C109.702 59.8773 110.662 60.144 111.75 60.144ZM34.984 88V64.96H39.144V88H34.984ZM36.968 88V84.704H50.472V88H36.968ZM60.1305 88.32C58.4025 88.32 56.8772 87.9573 55.5545 87.232C54.2532 86.5067 53.2398 85.504 52.5145 84.224C51.7892 82.9227 51.4265 81.44 51.4265 79.776C51.4265 78.112 51.7892 76.6507 52.5145 75.392C53.2398 74.1333 54.2532 73.152 55.5545 72.448C56.8772 71.7227 58.4025 71.36 60.1305 71.36C61.8798 71.36 63.4052 71.7227 64.7065 72.448C66.0078 73.152 67.0212 74.1333 67.7465 75.392C68.4718 76.6507 68.8345 78.112 68.8345 79.776C68.8345 81.44 68.4612 82.9227 67.7145 84.224C66.9892 85.504 65.9758 86.5067 64.6745 87.232C63.3732 87.9573 61.8585 88.32 60.1305 88.32ZM60.1305 85.088C60.9838 85.088 61.7518 84.8747 62.4345 84.448C63.1172 84 63.6505 83.3813 64.0345 82.592C64.4185 81.7813 64.6105 80.832 64.6105 79.744C64.6105 78.144 64.1838 76.8853 63.3305 75.968C62.4985 75.0507 61.4318 74.592 60.1305 74.592C58.8292 74.592 57.7518 75.0507 56.8985 75.968C56.0452 76.8853 55.6185 78.144 55.6185 79.744C55.6185 80.832 55.8105 81.7813 56.1945 82.592C56.5998 83.3813 57.1332 84 57.7945 84.448C58.4772 84.8747 59.2558 85.088 60.1305 85.088ZM71.8002 88V71.68H75.7362V75.616H75.8322V88H71.8002ZM75.8322 79.488L75.4162 75.616C75.8002 74.2293 76.4509 73.1733 77.3682 72.448C78.2856 71.7227 79.3842 71.36 80.6642 71.36C81.1122 71.36 81.4322 71.4027 81.6242 71.488V75.296C81.5176 75.2533 81.3682 75.232 81.1762 75.232C80.9842 75.2107 80.7496 75.2 80.4722 75.2C78.9149 75.2 77.7522 75.5413 76.9842 76.224C76.2162 76.9067 75.8322 77.9947 75.8322 79.488ZM91.2532 88.32C89.5252 88.32 88.0106 87.9573 86.7092 87.232C85.4292 86.5067 84.4266 85.504 83.7012 84.224C82.9972 82.944 82.6452 81.472 82.6452 79.808C82.6452 78.144 82.9972 76.6827 83.7012 75.424C84.4266 74.144 85.4292 73.152 86.7092 72.448C87.9892 71.7227 89.4826 71.36 91.1892 71.36C92.8106 71.36 94.2186 71.7013 95.4132 72.384C96.6079 73.0453 97.5359 73.984 98.1972 75.2C98.8586 76.416 99.1892 77.8347 99.1892 79.456C99.1892 79.7547 99.1786 80.032 99.1572 80.288C99.1359 80.544 99.1039 80.8 99.0612 81.056H85.1412V78.24H95.9572L95.1252 79.008C95.1252 77.472 94.7732 76.32 94.0692 75.552C93.3652 74.784 92.3839 74.4 91.1252 74.4C89.7599 74.4 88.6719 74.8693 87.8612 75.808C87.0719 76.7467 86.6772 78.1013 86.6772 79.872C86.6772 81.6213 87.0719 82.9653 87.8612 83.904C88.6719 84.8213 89.8132 85.28 91.2852 85.28C92.1386 85.28 92.8852 85.12 93.5252 84.8C94.1652 84.48 94.6346 83.9893 94.9332 83.328H98.7412C98.2079 84.864 97.3012 86.08 96.0212 86.976C94.7626 87.872 93.1732 88.32 91.2532 88.32ZM102.206 88V71.68H106.142V75.52H106.238V88H102.206ZM113.182 88V77.472C113.182 76.512 112.937 75.808 112.446 75.36C111.977 74.8907 111.305 74.656 110.43 74.656C109.662 74.656 108.958 74.8373 108.318 75.2C107.678 75.5627 107.166 76.0747 106.782 76.736C106.42 77.3973 106.238 78.1653 106.238 79.04L105.822 75.296C106.377 74.1013 107.177 73.152 108.222 72.448C109.268 71.7227 110.484 71.36 111.87 71.36C113.534 71.36 114.846 71.84 115.806 72.8C116.766 73.7387 117.246 74.9547 117.246 76.448V88H113.182ZM124.158 88V77.472C124.158 76.512 123.924 75.808 123.454 75.36C122.985 74.8907 122.313 74.656 121.438 74.656C120.649 74.656 119.934 74.8373 119.294 75.2C118.654 75.5627 118.153 76.0747 117.79 76.736C117.428 77.3973 117.246 78.1653 117.246 79.04L116.542 75.296C117.076 74.1013 117.886 73.152 118.974 72.448C120.062 71.7227 121.321 71.36 122.75 71.36C124.457 71.36 125.79 71.8507 126.75 72.832C127.732 73.792 128.222 75.072 128.222 76.672V88H124.158ZM138.359 88V64.96H142.519V88H138.359ZM155.956 88.32C154.399 88.32 153.129 87.9573 152.148 87.232C151.188 86.4853 150.591 85.4613 150.356 84.16L150.676 84.128V94.56H146.644V71.68H150.58V75.36L150.26 75.296C150.559 74.08 151.241 73.12 152.308 72.416C153.375 71.712 154.676 71.36 156.212 71.36C157.663 71.36 158.921 71.712 159.988 72.416C161.076 73.0987 161.919 74.0693 162.516 75.328C163.113 76.5867 163.412 78.0693 163.412 79.776C163.412 81.504 163.103 83.008 162.484 84.288C161.865 85.568 161.001 86.56 159.892 87.264C158.783 87.968 157.471 88.32 155.956 88.32ZM154.932 84.992C156.233 84.992 157.268 84.544 158.036 83.648C158.804 82.7307 159.188 81.4507 159.188 79.808C159.188 78.1653 158.793 76.896 158.004 76C157.236 75.104 156.201 74.656 154.9 74.656C153.62 74.656 152.585 75.1147 151.796 76.032C151.007 76.928 150.612 78.1973 150.612 79.84C150.612 81.4827 151.007 82.752 151.796 83.648C152.585 84.544 153.631 84.992 154.932 84.992ZM172.821 88.32C170.56 88.32 168.757 87.8507 167.413 86.912C166.069 85.952 165.333 84.6293 165.205 82.944H168.885C168.992 83.776 169.387 84.4053 170.069 84.832C170.752 85.2587 171.669 85.472 172.821 85.472C173.867 85.472 174.645 85.312 175.157 84.992C175.691 84.6507 175.957 84.1707 175.957 83.552C175.957 83.104 175.808 82.7413 175.509 82.464C175.211 82.1653 174.645 81.92 173.813 81.728L171.189 81.12C169.397 80.736 168.064 80.1387 167.189 79.328C166.336 78.496 165.909 77.4613 165.909 76.224C165.909 74.7093 166.485 73.5253 167.637 72.672C168.811 71.7973 170.421 71.36 172.469 71.36C174.496 71.36 176.117 71.7973 177.333 72.672C178.571 73.5253 179.253 74.7093 179.381 76.224H175.701C175.595 75.5627 175.253 75.0613 174.677 74.72C174.123 74.3787 173.355 74.208 172.373 74.208C171.456 74.208 170.763 74.3573 170.293 74.656C169.824 74.9333 169.589 75.3493 169.589 75.904C169.589 76.3307 169.771 76.6933 170.133 76.992C170.496 77.2693 171.104 77.5147 171.957 77.728L174.773 78.368C176.373 78.7307 177.579 79.36 178.389 80.256C179.221 81.152 179.637 82.208 179.637 83.424C179.637 84.9813 179.04 86.1867 177.845 87.04C176.651 87.8933 174.976 88.32 172.821 88.32ZM187.799 88.32C186.668 88.32 185.687 88.0853 184.855 87.616C184.044 87.1253 183.415 86.464 182.967 85.632C182.54 84.8 182.327 83.8613 182.327 82.816V71.68H186.359V81.984C186.359 82.9867 186.604 83.744 187.095 84.256C187.607 84.768 188.322 85.024 189.239 85.024C190.071 85.024 190.796 84.832 191.415 84.448C192.055 84.064 192.556 83.5307 192.919 82.848C193.303 82.144 193.495 81.3547 193.495 80.48L193.911 84.384C193.378 85.5787 192.578 86.5387 191.511 87.264C190.466 87.968 189.228 88.32 187.799 88.32ZM193.623 88V84.16H193.495V71.68H197.559V88H193.623ZM201.831 88V71.68H205.767V75.52H205.863V88H201.831ZM212.807 88V77.472C212.807 76.512 212.562 75.808 212.071 75.36C211.602 74.8907 210.93 74.656 210.055 74.656C209.287 74.656 208.583 74.8373 207.943 75.2C207.303 75.5627 206.791 76.0747 206.407 76.736C206.045 77.3973 205.863 78.1653 205.863 79.04L205.447 75.296C206.002 74.1013 206.802 73.152 207.847 72.448C208.893 71.7227 210.109 71.36 211.495 71.36C213.159 71.36 214.471 71.84 215.431 72.8C216.391 73.7387 216.871 74.9547 216.871 76.448V88H212.807ZM223.783 88V77.472C223.783 76.512 223.549 75.808 223.079 75.36C222.61 74.8907 221.938 74.656 221.063 74.656C220.274 74.656 219.559 74.8373 218.919 75.2C218.279 75.5627 217.778 76.0747 217.415 76.736C217.053 77.3973 216.871 78.1653 216.871 79.04L216.167 75.296C216.701 74.1013 217.511 73.152 218.599 72.448C219.687 71.7227 220.946 71.36 222.375 71.36C224.082 71.36 225.415 71.8507 226.375 72.832C227.357 73.792 227.847 75.072 227.847 76.672V88H223.783Z" fill="white"/>
<path d="M443.854 215H380.146C367.363 215 357 204.702 357 192C357 179.298 367.363 169 380.146 169H443.854C456.637 169 467 179.298 467 192C467 204.702 456.637 215 443.854 215Z" fill="#FF8E47"/>
<path d="M630 95V130H610.18C600.138 130 592 122.164 592 112.505C592 107.675 594.038 103.29 597.323 100.122C600.617 96.9625 605.162 95 610.18 95H630Z" fill="#FF8E47"/>
<path d="M449.269 83H408.731C400.593 83 394 76.5062 394 68.5C394 60.489 400.593 54 408.731 54H449.269C457.407 54 464 60.4938 464 68.5C464 76.511 457.407 83 449.269 83Z" fill="#FF8E47"/>
<path d="M484.223 44.1584H488.267C494.655 57.0122 507.916 65.8517 523.246 65.8517C544.813 65.8517 562.293 48.367 562.293 26.8047V1H441.064C441.064 24.834 460.389 44.1584 484.223 44.1584Z" fill="#7481FF"/>
<path d="M453.442 1C453.442 24.834 472.767 44.1584 496.601 44.1584H500.645C507.038 57.0122 520.294 65.8517 535.624 65.8517C557.191 65.8517 574.671 48.367 574.671 26.8047" stroke="white" stroke-width="2" stroke-linecap="round" stroke-linejoin="round"/>
<path d="M516.164 34.9258L569.759 34.9258C576.314 34.9258 581.628 29.6121 581.628 23.0573C581.628 16.5026 576.314 11.1889 569.759 11.1889L516.164 11.1889C509.609 11.1889 504.296 16.5026 504.296 23.0573C504.296 29.6121 509.609 34.9258 516.164 34.9258Z" fill="#148EE4"/>
<path d="M547.939 31.7948H518.46C511.907 31.7948 506.591 26.4795 506.591 19.9264C506.591 13.3733 511.907 8.05795 518.46 8.05795" stroke="white" stroke-width="2" stroke-linecap="round" stroke-linejoin="round"/>
<path d="M532.372 8.05795H572.06C578.613 8.05795 583.928 13.3733 583.928 19.9264C583.928 26.4795 578.613 31.7948 572.06 31.7948" stroke="white" stroke-width="2" stroke-linecap="round" stroke-linejoin="round"/>
<mask id="mask0_619_1068" style="mask-type:luminance" maskUnits="userSpaceOnUse" x="554" y="135" width="76" height="99">
<path d="M629.747 135.46H554.226V234H629.747V135.46Z" fill="white"/>
</mask>
<g mask="url(#mask0_619_1068)">
<path d="M587.937 139.756C571.962 139.756 559.011 152.707 559.011 168.682C559.011 183.322 569.889 195.414 584.001 197.336V199.293C584.001 216.923 598.291 231.214 615.922 231.214H632.8V139.751H587.937V139.756Z" fill="#7481FF"/>
<path d="M626.8 149.984H587.937C571.962 149.984 559.011 162.935 559.011 178.91C559.011 193.55 569.889 205.642 584.001 207.564V209.52C584.001 227.151 598.291 241.441 615.922 241.441H626.805" stroke="white" stroke-width="2" stroke-linecap="round" stroke-linejoin="round"/>
<path d="M639.198 189.356H604.306C598.486 189.356 593.763 184.638 593.763 178.813C593.763 172.993 598.481 168.27 604.306 168.27H639.198C645.018 168.27 649.741 172.988 649.741 178.813C649.741 184.633 645.023 189.356 639.198 189.356Z" fill="#148EE4"/>
<path d="M637.615 173.522C643.435 173.522 648.159 178.24 648.159 184.065C648.159 189.885 643.44 194.608 637.615 194.608H625.441" stroke="white" stroke-width="2" stroke-linecap="round" stroke-linejoin="round"/>
<path d="M602.718 194.604C596.898 194.604 592.175 189.885 592.175 184.06C592.175 178.24 596.893 173.517 602.718 173.517H621.747" stroke="white" stroke-width="2" stroke-linecap="round" stroke-linejoin="round"/>
</g>
<path d="M464.957 119.587C456.035 108.5 441.162 99.8502 426.968 98.7532C412.779 97.6562 397.945 103.719 389.547 115.214C381.397 126.369 379.897 141.489 383.479 154.829C387.062 168.173 391.717 173.182 401.362 183.075C406.168 179.366 411.973 176.357 417.031 173.003C412.619 166.794 410.163 164.095 407.284 157.047C404.406 149.999 403.881 139.373 406.148 132.101C407.852 126.645 411.74 121.65 417.119 119.723C421.832 118.034 427.711 119.223 432.521 120.631C439.725 122.738 448.19 132.689 454.161 137.232C458.918 134.072 465.005 129.844 468.913 125.679C468.913 125.679 465.918 120.786 464.952 119.587H464.957Z" fill="#148EE4"/>
<path d="M464.957 119.587C440.263 136.781 414.245 151.848 388.207 166.93C390.498 172.823 398.76 184.944 398.76 184.944C398.76 184.944 417.211 174.769 421.949 171.755C436.579 162.459 449.161 151.906 464.156 142.261C467.889 139.858 472.146 136.271 475.592 133.475C472.5 129.271 468.044 123.796 464.952 119.592L464.957 119.587Z" fill="#148EE4"/>
<path d="M409.042 111.16C407.896 108.879 406.755 106.593 405.61 104.311" stroke="white" stroke-width="2" stroke-linecap="round" stroke-linejoin="round"/>
<path d="M403.469 112.049C402.353 110.947 401.236 109.845 400.125 108.743" stroke="white" stroke-width="2" stroke-linecap="round" stroke-linejoin="round"/>
<path d="M392.639 114.646C394.824 115.685 397.008 116.718 399.197 117.757" stroke="white" stroke-width="2" stroke-linecap="round" stroke-linejoin="round"/>
<path d="M388.022 122.102C389.217 122.476 390.406 122.844 391.6 123.218" stroke="white" stroke-width="2" stroke-linecap="round" stroke-linejoin="round"/>
<path d="M385.241 128.49C387.338 129.033 389.488 129.344 391.653 129.422" stroke="white" stroke-width="2" stroke-linecap="round" stroke-linejoin="round"/>
<path d="M384.202 135.174C385.27 135.315 386.343 135.46 387.411 135.601" stroke="white" stroke-width="2" stroke-linecap="round" stroke-linejoin="round"/>
<path d="M383.601 141.912C386.435 142.077 389.27 142.242 392.11 142.407" stroke="white" stroke-width="2" stroke-linecap="round" stroke-linejoin="round"/>
<path d="M384.158 152.144C385.702 151.94 387.245 151.732 388.784 151.528" stroke="white" stroke-width="2" stroke-linecap="round" stroke-linejoin="round"/>
<path d="M386.271 160.027C388.27 159.168 390.338 158.455 392.445 157.906" stroke="white" stroke-width="2" stroke-linecap="round" stroke-linejoin="round"/>
<path d="M389.576 167.056C390.386 166.25 391.44 165.687 392.561 165.459" stroke="white" stroke-width="2" stroke-linecap="round" stroke-linejoin="round"/>
<path d="M460.224 122.553C461.476 122.102 462.641 121.417 463.646 120.548" stroke="white" stroke-width="2" stroke-linecap="round" stroke-linejoin="round"/>
<path d="M453.904 121.044C456.171 119.32 458.277 117.388 460.19 115.282" stroke="white" stroke-width="2" stroke-linecap="round" stroke-linejoin="round"/>
<path d="M452.457 115.913C453.433 114.33 454.413 112.743 455.389 111.16" stroke="white" stroke-width="2" stroke-linecap="round" stroke-linejoin="round"/>
<path d="M445.604 115.155C446.036 112.855 446.992 110.651 448.375 108.763" stroke="white" stroke-width="2" stroke-linecap="round" stroke-linejoin="round"/>
<path d="M414.114 106.204C414.09 104.835 414.066 103.471 414.042 102.103" stroke="white" stroke-width="2" stroke-linecap="round" stroke-linejoin="round"/>
<path d="M421.385 107.86C421.511 105.806 421.638 103.753 421.769 101.695" stroke="white" stroke-width="2" stroke-linecap="round" stroke-linejoin="round"/>
<path d="M427.512 104.093C427.891 102.971 428.041 101.772 427.944 100.588" stroke="white" stroke-width="2" stroke-linecap="round" stroke-linejoin="round"/>
<path d="M431.71 110.127C432.458 107.335 433.206 104.549 433.953 101.758" stroke="white" stroke-width="2" stroke-linecap="round" stroke-linejoin="round"/>
<path d="M437.909 108.471C438.564 106.758 439.225 105.039 439.88 103.326" stroke="white" stroke-width="2" stroke-linecap="round" stroke-linejoin="round"/>
<path d="M443.555 109.073C444.137 108.248 444.521 107.287 444.666 106.292" stroke="white" stroke-width="2" stroke-linecap="round" stroke-linejoin="round"/>
<path d="M407.42 158.717C414.264 155.27 421.109 151.824 427.948 148.372" stroke="white" stroke-width="2" stroke-linecap="round" stroke-linejoin="round"/>
<path d="M399.561 182.046C406.201 178.075 412.847 174.109 419.487 170.139" stroke="white" stroke-width="2" stroke-linecap="round" stroke-linejoin="round"/>
<path d="M423.745 168.076C424.784 167.43 425.828 166.784 426.866 166.144" stroke="white" stroke-width="2" stroke-linecap="round" stroke-linejoin="round"/>
<path d="M465.7 138.426C468.204 136.887 470.709 135.349 473.209 133.81" stroke="white" stroke-width="2" stroke-linecap="round" stroke-linejoin="round"/>
<path d="M416.196 118.286C420.924 116.558 426.244 116.51 431.006 118.15" stroke="white" stroke-width="2" stroke-linecap="round" stroke-linejoin="round"/>
<path d="M439.778 122.684C438.535 121.471 437.021 120.544 435.375 119.99" stroke="white" stroke-width="2" stroke-linecap="round" stroke-linejoin="round"/>
<path d="M594.923 103.36C586.894 100.603 578.754 98.1708 570.531 96.0689C571.405 91.0788 572.705 86.0839 574.555 81.3705C582.991 83.4675 591.244 85.9091 599.442 88.8071C597.908 93.734 596.452 98.4377 594.923 103.365V103.36Z" fill="#148EE4"/>
<path d="M603.418 72.6038C596.457 71.3418 588.414 69.6574 578.118 66.6915C576.875 78.089 570.637 91.7438 569.414 103.141C567.934 116.956 586.661 119.257 590.423 113.99C592.608 110.932 593.865 107.369 594.666 103.695C596.874 93.569 601.772 83.4432 603.413 72.6038H603.418Z" stroke="white" stroke-width="2" stroke-linecap="round" stroke-linejoin="round"/>
<path d="M577.132 72.9485C585.608 74.7348 594.054 76.6425 602.476 78.6667" stroke="white" stroke-width="2" stroke-linecap="round" stroke-linejoin="round"/>
<path d="M584.477 73.9436C584.768 72.5116 585.06 71.0797 585.356 69.6525" stroke="white" stroke-width="2" stroke-linecap="round" stroke-linejoin="round"/>
<path d="M593.511 75.8756C593.918 74.2251 594.331 72.5747 594.739 70.9243" stroke="white" stroke-width="2" stroke-linecap="round" stroke-linejoin="round"/>
<path d="M574.434 113.923C573.773 115.976 573.118 118.029 572.458 120.082C575.273 120.762 578.346 122.145 581.162 122.825C581.419 122.888 581.793 122.553 581.531 122.51C582.118 120.437 582.652 118.694 583.239 116.617" stroke="white" stroke-width="2" stroke-linecap="round" stroke-linejoin="round"/>
<path d="M576.851 120.811C577.122 119.534 577.55 118.296 578.127 117.126" stroke="white" stroke-width="2" stroke-linecap="round" stroke-linejoin="round"/>
<path d="M529.607 118.582C528.016 119.434 525.874 118.944 524.778 117.473C523.682 116.003 523.752 113.722 524.937 112.329C526.3 110.724 528.462 110.513 529.919 112.024C531.377 113.536 531.441 117.607 529.612 118.588L529.607 118.582Z" stroke="white" stroke-width="2" stroke-linecap="round" stroke-linejoin="round"/>
<path d="M341.369 30.001C345.94 29.9445 350.472 32.2799 352.967 35.9808C353.97 37.4687 354.672 39.2673 354.331 41.0142C353.693 44.2866 349.916 45.9204 346.588 46.7868C344.064 47.446 340.37 47.2718 340.024 44.7715C339.649 42.05 343.747 41.1601 346.534 41.6734C350.691 42.4408 354.731 43.811 358.463 45.7321C362.25 47.6767 365.826 50.2946 367.897 53.9249C369.968 57.5551 370.241 62.3389 367.741 65.7055C365.242 69.0721 359.682 70.2068 356.475 67.4571C355.739 66.8261 355.12 65.9409 355.208 64.9945C355.379 63.1158 357.859 62.4849 359.808 62.3342C363.136 62.0753 366.538 61.8257 369.764 62.6591C372.99 63.4925 376.055 65.6302 377 68.7236" stroke="white" stroke-width="2" stroke-linecap="round" stroke-linejoin="round"/>
<path d="M493 174.651C496.613 172.863 501.035 175.016 503.77 177.979C508.865 183.504 510.43 192.016 507.641 198.993C506.018 203.047 501.02 206.833 497.622 204.085C494.897 201.878 496.086 197.103 498.987 195.135C502.259 192.918 506.876 193.327 510.162 195.524C513.448 197.722 515.506 201.42 516.442 205.264C517.281 208.709 517.271 212.49 515.647 215.642C514.56 217.762 510.835 219.102 510.304 216.783C510.201 216.329 510.284 215.857 510.396 215.404C511.503 210.965 515.311 207.311 519.796 206.39C524.282 205.464 529.221 207.311 532 210.95" stroke="white" stroke-width="2" stroke-linecap="round" stroke-linejoin="round"/>
<path d="M359.388 203.802C363.519 203.001 367.596 201.924 371.586 200.589" stroke="white" stroke-width="2" stroke-linecap="round" stroke-linejoin="round"/>
<path d="M359.767 197.943C363.364 201.03 367.101 203.958 370.965 206.705" stroke="white" stroke-width="2" stroke-linecap="round" stroke-linejoin="round"/>
<path d="M363.931 209.195C364.96 204.967 365.781 200.691 366.382 196.38" stroke="white" stroke-width="2" stroke-linecap="round" stroke-linejoin="round"/>
<path d="M319.366 78.8167C303.6 78.6971 290.144 92.0062 287.996 107.286C285.341 126.164 303.18 145.981 322.837 143.296C326.683 142.769 330.376 141.383 333.799 139.552C342.708 134.786 350.125 126.417 351.744 116.442C352.348 112.711 352.14 108.872 351.32 105.186C348.092 90.6296 334.27 78.9328 319.362 78.8201L319.366 78.8167Z" fill="#37C6ED"/>
<path d="M296.888 88.9657C297.858 88.9247 301.366 89.8573 301.933 90.6464C302.118 90.9026 302.275 91.2032 302.555 91.3501C302.893 91.5312 303.317 91.4355 303.665 91.2716C304.536 90.8616 305.175 90.0896 305.934 89.4986C306.692 88.9042 307.741 88.484 308.605 88.9076C309.268 89.2321 309.674 90.3834 310.071 91.0119C310.672 91.9684 311.212 93.0582 311.02 93.7721C310.617 95.2889 308.568 95.9414 308.161 97.4581C307.785 98.8655 307.409 100.352 307.799 101.756C308.011 102.514 308.445 103.279 308.25 104.044C307.997 105.038 306.856 105.465 305.893 105.824C304.929 106.179 302.938 107.706 303.283 108.673C304.137 111.068 307.28 112.332 310.064 113.268C309.985 113.934 310.873 114.33 311.522 114.159C312.175 113.992 312.708 113.51 313.35 113.316C314.054 113.104 314.836 113.247 315.523 112.977C316.056 112.769 316.462 112.335 316.937 112.014C317.412 111.693 318.556 111.283 319.045 111.58C321.467 111.116 324.685 110.894 327.151 110.969C327.677 113.596 329.361 116.175 328.548 118.73C328.06 120.267 327.377 121.634 326.195 122.727C327.24 124.746 328.282 126.761 329.327 128.78C329.56 129.228 329.799 129.71 329.741 130.212C329.648 131.038 328.494 131.961 328.794 132.736C329.529 134.646 330.362 136.88 331.097 138.786C329.925 139.063 328.388 139.425 327.237 139.767C326.625 138.772 326.014 137.775 325.402 136.781C324.999 136.122 324.589 135.459 324.06 134.895C323.506 134.308 322.611 133.481 321.863 133.177C320.179 130.581 318.15 128.538 316.295 126.065C313.285 125.576 310.422 124.538 307.936 122.771C307.666 122.088 307.597 121.347 307.532 120.616C307.372 118.853 307.215 117.087 307.054 115.324C306.221 114.972 305.045 114.043 304.386 113.425C303.747 112.824 303.16 112.086 302.313 111.86C301.578 111.666 300.68 111.86 300.143 111.321C298.842 110.005 296.734 109.329 294.886 109.432C293.762 109.493 292.628 110.016 291.548 109.701C291.063 109.561 290.643 109.264 290.233 108.97C289.83 108.683 288.406 107.58 288.002 107.296C289.15 99.9758 291.244 93.7516 296.895 88.9759L296.888 88.9657Z" fill="#204C30"/>
<path d="M341.113 131.172C345.178 127.715 347.969 122.795 348.847 117.531" stroke="white" stroke-width="2" stroke-linecap="round" stroke-linejoin="round"/>
<path d="M349.445 114.894C349.612 113.777 349.78 112.656 349.95 111.539" stroke="white" stroke-width="2" stroke-linecap="round" stroke-linejoin="round"/>
<path d="M289.048 107.706C289.905 108.697 290.957 109.78 292.266 109.705C292.744 109.678 293.195 109.493 293.656 109.36C295.815 108.731 298.278 109.278 299.969 110.764C301.042 111.707 302.501 112.291 303.901 112.021C304.984 112.981 306.046 114.429 307.129 115.389" stroke="#204C30" stroke-width="2" stroke-linecap="round" stroke-linejoin="round"/>
<path d="M309.558 113.001C308.803 112.646 308.048 112.294 307.29 111.939C306.255 111.454 305.185 110.945 304.427 110.091C303.665 109.237 303.286 107.932 303.826 106.924C305.257 106.415 306.63 105.52 307.976 104.823" stroke="#204C30" stroke-width="2" stroke-linecap="round" stroke-linejoin="round"/>
<path d="M308.123 102.927C308.294 102.049 308.171 101.12 307.782 100.314" stroke="#204C30" stroke-width="2" stroke-linecap="round" stroke-linejoin="round"/>
<path d="M307.946 98.3019C307.905 97.4445 308.212 96.6041 308.653 95.8696C309.281 94.8209 310.193 93.9395 311.263 93.3451C310.842 91.661 309.79 89.6216 308.748 88.2312C307.389 89.0101 305.206 90.0623 303.843 90.8411" stroke="#204C30" stroke-width="2" stroke-linecap="round" stroke-linejoin="round"/>
<path d="M301.223 90.3526C300.007 89.9085 298.79 89.461 297.578 89.0169" stroke="#204C30" stroke-width="2" stroke-linecap="round" stroke-linejoin="round"/>
<path d="M307.099 116.937C307.17 118.887 307.293 120.838 307.471 122.782C310.245 124.199 313.562 125.491 316.595 126.191C318.198 128.336 319.93 130.543 321.532 132.688C322.263 133.665 323.458 134.659 324.292 135.548C325.399 136.73 326.54 138.246 327.138 139.753C328.197 139.65 329.454 139.404 330.4 138.923" stroke="#204C30" stroke-width="2" stroke-linecap="round" stroke-linejoin="round"/>
<path d="M309.855 113.008C310.337 113.565 311.14 113.753 311.871 113.674C312.602 113.596 313.289 113.281 313.955 112.974C314.098 112.909 314.238 112.844 314.382 112.779C315.062 112.468 315.782 112.147 316.527 112.229C317.033 112.284 317.771 112.376 317.846 111.871" stroke="#204C30" stroke-width="2" stroke-linecap="round" stroke-linejoin="round"/>
<path d="M320.76 111.437C322.782 111.396 324.798 111.222 326.796 110.914C327.578 112.971 328.552 115.488 328.712 117.685C328.036 118.723 327.363 120.261 326.69 121.302C326.523 121.559 326.352 121.822 326.27 122.119C326.017 123.017 326.605 123.919 327.162 124.667C327.807 125.535 328.074 127.151 328.593 128.101C328.986 128.821 329.396 129.621 329.239 130.43C329.119 131.049 328.678 131.605 328.736 132.231C328.88 133.747 329.884 135.414 330.714 136.695" stroke="#204C30" stroke-width="2" stroke-linecap="round" stroke-linejoin="round"/>
<path d="M351.43 105.643C349.599 104.468 346.538 103.86 344.471 104.536C344.017 104.687 343.545 104.881 343.074 104.799C342.647 104.724 342.288 104.427 341.926 104.219C341.321 103.87 340.724 103.501 340.204 103.033C338.322 101.335 337.724 100.03 337.7 98.1208C337.673 95.9585 337.27 93.8063 336.303 91.8728C335.917 91.1008 335.425 90.3014 334.643 89.912C334.342 89.7616 333.751 90.2843 333.133 90.9983C331.801 92.5355 329.474 92.7302 327.944 91.3945C327.322 90.8514 326.69 90.4995 325.986 90.7352C324.914 91.0939 323.879 91.6029 322.758 91.7601C321.638 91.9172 319.984 88.6309 319.796 88.0433C319.653 87.5924 319.639 87.1142 319.738 86.653C319.882 85.9629 319.984 85.2934 320.039 84.6341C320.196 82.663 317.364 81.2556 319.018 78.8028C326.796 78.8199 331.217 80.6475 336.194 83.9816C344.024 89.2253 349.431 96.3957 351.433 105.64L351.43 105.643Z" fill="#204C30"/>
<path d="M318.98 78.9702C318.509 79.5817 318.447 80.4323 318.635 81.1804C318.823 81.9285 319.229 82.6015 319.632 83.2574" stroke="#204C30" stroke-width="2" stroke-linecap="round" stroke-linejoin="round"/>
<path d="M319.923 84.7366C319.8 85.7272 319.595 86.7077 319.308 87.6642" stroke="#204C30" stroke-width="2" stroke-linecap="round" stroke-linejoin="round"/>
<path d="M319.902 88.6753C320.326 89.3551 320.753 90.0383 321.177 90.7182C321.361 91.0154 321.556 91.3194 321.853 91.5073C322.242 91.7498 322.741 91.7396 323.178 91.6029C323.616 91.4697 324.009 91.2237 324.412 91.0119C325.177 90.6123 326 90.3185 326.847 90.1511" stroke="#204C30" stroke-width="2" stroke-linecap="round" stroke-linejoin="round"/>
<path d="M327.893 91.0324C328.644 91.9445 329.891 92.4262 331.063 92.2554" stroke="#204C30" stroke-width="2" stroke-linecap="round" stroke-linejoin="round"/>
<path d="M333.7 90.6806C334.14 90.3321 334.82 90.4688 335.244 90.8343C335.671 91.1998 335.903 91.7361 336.122 92.252C336.262 92.5799 336.398 92.9045 336.539 93.2324" stroke="#204C30" stroke-width="2" stroke-linecap="round" stroke-linejoin="round"/>
<path d="M337.666 95.5143C337.639 96.9901 337.714 98.4659 337.895 99.9314C337.919 100.129 337.97 100.365 338.155 100.44" stroke="#204C30" stroke-width="2" stroke-linecap="round" stroke-linejoin="round"/>
<path d="M339.569 102.196C340.378 102.975 341.246 103.693 342.169 104.338" stroke="#204C30" stroke-width="2" stroke-linecap="round" stroke-linejoin="round"/>
<path d="M344.218 104.741C345.383 104.29 346.64 104.096 347.887 104.171" stroke="#204C30" stroke-width="2" stroke-linecap="round" stroke-linejoin="round"/>
<path d="M349.506 104.7C349.889 104.943 350.275 105.185 350.658 105.431" stroke="#204C30" stroke-width="2" stroke-linecap="round" stroke-linejoin="round"/>
<path d="M295.224 101.735C296.543 102.135 297.892 102.422 299.259 102.593" stroke="#204C30" stroke-width="2" stroke-linecap="round" stroke-linejoin="round"/>
<path d="M294.483 99.6308C295.73 99.8938 296.98 100.157 298.227 100.423" stroke="#204C30" stroke-width="2" stroke-linecap="round" stroke-linejoin="round"/>
<path d="M294.527 126.697C291.856 123.127 290.24 118.778 289.939 114.33" stroke="white" stroke-width="2" stroke-linecap="round" stroke-linejoin="round"/>
<path d="M295.88 128.951C296.344 129.761 296.915 130.505 297.574 131.165" stroke="white" stroke-width="2" stroke-linecap="round" stroke-linejoin="round"/>
<path d="M299.436 133.409C301.048 134.721 302.733 135.94 304.485 137.054" stroke="white" stroke-width="2" stroke-linecap="round" stroke-linejoin="round"/>
<path d="M341.15 90.4551C342.599 91.7874 343.89 93.2905 344.99 94.9234" stroke="#204C30" stroke-width="2" stroke-linecap="round" stroke-linejoin="round"/>
<path d="M346.568 97.178C347.081 97.7622 347.474 98.4454 347.723 99.1798" stroke="#204C30" stroke-width="2" stroke-linecap="round" stroke-linejoin="round"/>
<path d="M318.29 120.189C319.407 120.435 320.524 120.681 321.641 120.93" stroke="#204C30" stroke-width="2" stroke-linecap="round" stroke-linejoin="round"/>
<path d="M349.93 131.014C351.204 132.285 351.846 132.162 353.124 133.433C350.313 139.179 345.571 144.071 339.989 147.197C334.407 150.322 329.3 152.28 322.922 152.789C315.116 153.41 306.504 153.134 300.051 148.696C297.974 147.268 295.627 146.206 293.858 144.412C290.1 140.6 286.476 136.227 283.852 131.561C279.09 123.079 277.976 112.209 279.886 102.671C281.792 93.1333 288.317 83.9953 295.972 78C296.912 78.796 297.855 79.5953 298.794 80.3913" stroke="white" stroke-width="2" stroke-linecap="round" stroke-linejoin="round"/>
<path d="M344.878 136.962C343.836 135.855 342.743 134.796 341.602 133.792C342.408 133.071 343.221 132.114 344.03 131.394C345.076 132.412 346.142 133.365 347.293 134.26C346.456 135.151 345.564 135.947 344.878 136.962Z" fill="#F4F4F4"/>
<path d="M296.013 90.1169C294.971 89.0101 293.878 87.9511 292.737 86.9468C293.544 86.226 294.357 85.2695 295.166 84.5487C296.211 85.5667 297.277 86.5198 298.429 87.4148C297.592 88.3064 296.7 89.1023 296.013 90.1169Z" fill="#F4F4F4"/>
<path d="M341.725 133.758C342.708 134.588 343.692 135.414 344.673 136.245" stroke="white" stroke-width="2" stroke-linecap="round" stroke-linejoin="round"/>
<path d="M344.321 131.448C345.383 132.418 346.442 133.385 347.505 134.355" stroke="white" stroke-width="2" stroke-linecap="round" stroke-linejoin="round"/>
<path d="M298.825 80.299C290.431 87.7188 284.016 98.2199 283.575 109.411C282.625 133.635 302.805 153.383 327.356 147.241C335.961 145.089 343.74 139.77 348.868 132.531C349.284 131.944 349.756 131.698 350.036 131.032" stroke="white" stroke-width="2" stroke-linecap="round" stroke-linejoin="round"/>
<path d="M292.956 87.4113C293.854 88.1868 294.753 88.9657 295.648 89.7411" stroke="white" stroke-width="2" stroke-linecap="round" stroke-linejoin="round"/>
<path d="M295.029 84.5623C296.03 85.5359 297.028 86.5061 298.029 87.4797" stroke="white" stroke-width="2" stroke-linecap="round" stroke-linejoin="round"/>
<path d="M326.379 158.613C334.94 157.312 342.589 157.54 343.904 158.968C345.906 161.141 340.802 162.805 338.25 163.59C329.567 166.262 319.277 169.159 310.392 168.048C309.097 167.888 307.635 167.56 307.205 166.6C306.692 165.462 307.966 164.178 309.35 163.505C312.882 161.79 317.067 160.485 321.286 159.556" stroke="white" stroke-width="2" stroke-linecap="round" stroke-linejoin="round"/>
<path d="M321.607 162.75C321.337 159.693 320.821 156.222 320.2 153.216" stroke="white" stroke-width="2" stroke-linecap="round" stroke-linejoin="round"/>
<path d="M325.037 153.305C325.71 156.013 326.304 159.187 326.683 161.951" stroke="white" stroke-width="2" stroke-linecap="round" stroke-linejoin="round"/>
<path d="M24.0775 151.939C23.6231 148.841 25.2014 145.544 27.9001 143.956C30.5989 142.371 34.2507 142.593 36.7342 144.499C38.4969 145.852 39.4193 148.964 37.496 150.081C36.1467 150.863 34.3669 149.961 33.4821 148.677C31.7535 146.169 32.3718 142.562 34.2814 140.191C36.1911 137.82 39.1187 136.492 42.0531 135.675C45.9885 134.582 48.3149 137.991 48.8546 142.039C46.2755 144.431 41.6398 142.405 40.4202 139.105C39.2007 135.805 40.4202 132.112 42.06 129" stroke="white" stroke-width="2" stroke-linecap="round" stroke-linejoin="round"/>
<path d="M81 153.223C83.9071 152.66 86.7767 151.901 89.5847 150.962" stroke="white" stroke-width="2" stroke-linecap="round" stroke-linejoin="round"/>
<path d="M81.2666 149.1C83.7979 151.273 86.4284 153.333 89.1476 155.266" stroke="white" stroke-width="2" stroke-linecap="round" stroke-linejoin="round"/>
<path d="M84.1973 157.019C84.9215 154.043 85.4988 151.033 85.9224 148" stroke="white" stroke-width="2" stroke-linecap="round" stroke-linejoin="round"/>
</svg>
