<svg width="42" height="42" viewBox="0 0 42 42" fill="none" xmlns="http://www.w3.org/2000/svg">
<path d="M33.7155 23.653C34.1206 23.3395 34.4485 22.9374 34.6741 22.4775C34.8997 22.0176 35.017 21.5122 35.017 21C35.017 20.4878 34.8997 19.9824 34.6741 19.5225C34.4485 19.0626 34.1206 18.6605 33.7155 18.347C28.4693 14.289 22.6121 11.0899 16.3625 8.869L15.2198 8.463C13.0358 7.68775 10.7275 9.16475 10.4318 11.4205C9.60576 17.7801 9.60576 24.2199 10.4318 30.5795C10.7293 32.8353 13.0358 34.3123 15.2198 33.537L16.3625 33.131C22.6121 30.9101 28.4693 27.711 33.7155 23.653Z" fill="white"/>
</svg>
