<svg width="457" height="505" viewBox="0 0 457 505" fill="none" xmlns="http://www.w3.org/2000/svg">
<g clip-path="url(#clip0_215_360)">
<g opacity="0.2">
<mask id="mask0_215_360" style="mask-type:luminance" maskUnits="userSpaceOnUse" x="0" y="0" width="454" height="493">
<path d="M453.317 0H0V492.873H453.317V0Z" fill="white"/>
</mask>
<g mask="url(#mask0_215_360)">
<path d="M10.1396 218.348C-9.58278 186.957 4.64162 145.316 9.77614 130.282C25.2524 84.9733 58.4601 60.1735 76.6339 46.5997C130.489 6.37911 187.297 1.40988 207.137 0.550831C235.428 -0.674375 289.138 -3.00005 335.795 33.1103C377.26 65.2031 410.549 125.638 392.874 158.244C382.504 177.375 358.158 180.342 355.685 200.364C354.544 209.61 358.58 219.08 373.616 236.581C412.075 281.348 438.907 280.7 449.491 303.032C468.319 342.747 412.025 405.094 403.042 415.04C387.776 431.948 313.377 509.049 215.758 489.814C173.798 481.546 113.7 452.75 100.471 405.279C93.7718 381.242 104.467 371.71 95.0075 330.707C90.729 312.157 84.4679 285.018 63.5745 260.952C40.137 233.958 24.0833 240.544 10.1376 218.35" fill="#4B5FC8"/>
</g>
</g>
<path d="M399.539 439.491H114.138V484.819H399.539V439.491Z" fill="#EFE8E1"/>
<path d="M383.655 482.717C392.422 482.717 399.531 475.635 399.531 466.9V457.412C399.531 448.677 392.424 441.595 383.655 441.595H109.06V434.041H387.667C400.23 434.041 410.414 444.188 410.414 456.706V467.61C410.414 480.128 400.23 490.275 387.667 490.275H109.06V482.721H383.655V482.717Z" fill="#FF8E47"/>
<path d="M383.655 482.717C392.422 482.717 399.531 475.635 399.531 466.9V457.412C399.531 448.677 392.424 441.595 383.655 441.595H109.06V434.041H387.667C400.23 434.041 410.414 444.188 410.414 456.706V467.61C410.414 480.128 400.23 490.275 387.667 490.275H109.06V482.721H383.655V482.717Z" stroke="black" stroke-width="2" stroke-miterlimit="10"/>
<path d="M390.528 455.277H115.857" stroke="#030000" stroke-width="2" stroke-linecap="round" stroke-linejoin="round"/>
<path d="M357.696 444.8C358.8 446.601 363.652 454.934 360.486 463.401C359.703 465.496 358.715 467.799 358.126 467.678C357.472 467.544 358.033 464.602 356.41 461.049C356.214 460.623 354.962 457.881 354.049 458.056C353.175 458.223 353.439 460.903 352.761 463.83C351.394 469.735 346.706 474.436 345.466 473.879C344.509 473.448 346.546 470.316 346.11 464.472C345.624 457.951 342.375 452.29 340.532 449.077C339.845 447.882 339.231 446.926 338.815 446.297" fill="#090830"/>
<path d="M357.696 444.8C358.82 446.456 360.254 449.055 360.924 452.485C362.376 459.923 359.186 465.876 358.126 467.678" stroke="#030000" stroke-width="2" stroke-linecap="round" stroke-linejoin="round"/>
<path d="M357.159 463.142C356.763 461.007 355.85 459.683 355.277 458.999C354.794 458.424 354.421 457.988 354.047 458.058C353.155 458.227 353.189 461.12 352.906 463.12C351.992 469.598 346.599 474.821 345.446 474.291C344.669 473.935 345.991 471.038 346.161 466.701C346.403 460.545 344.166 455.475 342.22 452.135" stroke="#030000" stroke-width="2" stroke-linecap="round" stroke-linejoin="round"/>
<path d="M383.746 383.141H147.726V428.47H383.746V383.141Z" fill="#EFE8E1"/>
<path d="M374.733 398.928H156.749" stroke="#030000" stroke-width="2" stroke-linecap="round" stroke-linejoin="round"/>
<path d="M374.733 415.391H156.749" stroke="#030000" stroke-width="2" stroke-linecap="round" stroke-linejoin="round"/>
<path d="M127.45 390.259V418.56C127.45 427.528 134.747 434.799 143.748 434.799H389.64C390.956 434.799 392.022 433.737 392.022 432.425V430.098C392.022 428.782 390.948 427.717 389.627 427.724L265.046 428.347C264.023 428.353 263.108 427.703 262.779 426.738C257.507 411.325 256.461 399.604 262.036 387.553C262.422 386.718 263.263 386.185 264.186 386.181L389.652 385.556C390.962 385.549 392.022 384.487 392.022 383.182V379.184C392.022 377.872 390.956 376.81 389.64 376.81H140.946C133.491 376.81 127.45 382.832 127.45 390.257" fill="#2B2B2B"/>
<path d="M127.45 390.259V418.56C127.45 427.528 134.747 434.799 143.748 434.799H389.64C390.956 434.799 392.022 433.737 392.022 432.425V430.098C392.022 428.782 390.948 427.717 389.627 427.724L265.046 428.347C264.023 428.353 263.108 427.703 262.779 426.738C257.507 411.325 256.461 399.604 262.036 387.553C262.422 386.718 263.263 386.185 264.186 386.181L389.652 385.556C390.962 385.549 392.022 384.487 392.022 383.182V379.184C392.022 377.872 390.956 376.81 389.64 376.81H140.946C133.491 376.81 127.45 382.832 127.45 390.257V390.259Z" stroke="black" stroke-width="2" stroke-miterlimit="10"/>
<path d="M352.765 325.062H116.745V370.39H352.765V325.062Z" fill="#EFE8E1"/>
<path d="M125.758 340.849H343.742" stroke="#030000" stroke-width="2" stroke-linecap="round" stroke-linejoin="round"/>
<path d="M125.758 357.311H343.742" stroke="#030000" stroke-width="2" stroke-linecap="round" stroke-linejoin="round"/>
<path d="M373.043 332.18V360.48C373.043 369.449 365.746 376.72 356.745 376.72H110.851C109.535 376.72 108.469 375.657 108.469 374.346V372.018C108.469 370.702 109.543 369.638 110.864 369.644L235.445 370.268C236.468 370.274 237.383 369.624 237.712 368.658C242.984 353.246 244.03 341.525 238.455 329.474C238.069 328.639 237.227 328.106 236.305 328.102L110.839 327.476C109.529 327.47 108.469 326.408 108.469 325.102V321.104C108.469 319.793 109.535 318.731 110.851 318.731H359.545C367 318.731 373.041 324.752 373.041 332.178" fill="#8232AE"/>
<path d="M373.043 332.18V360.48C373.043 369.449 365.746 376.72 356.745 376.72H110.851C109.535 376.72 108.469 375.657 108.469 374.346V372.018C108.469 370.702 109.543 369.638 110.864 369.644L235.445 370.268C236.468 370.274 237.383 369.624 237.712 368.658C242.984 353.246 244.03 341.525 238.455 329.474C238.069 328.639 237.227 328.106 236.305 328.102L110.839 327.476C109.529 327.47 108.469 326.408 108.469 325.102V321.104C108.469 319.793 109.535 318.731 110.851 318.731H359.545C367 318.731 373.041 324.752 373.041 332.178L373.043 332.18Z" stroke="black" stroke-width="2" stroke-miterlimit="10"/>
<path d="M384.444 350.491L395.588 377.383L435.061 392.478L404.952 314.546L384.444 350.491Z" fill="#FCD9B4"/>
<path d="M399.614 376.653C415.076 382.441 426.153 385.022 429.189 381.719C429.823 381.031 430.825 380.81 431.719 381.087C436.113 382.449 446.069 386.523 452.13 397.194C457.612 406.845 456.721 416.28 456.106 420.008C456.009 420.596 455.71 421.127 455.256 421.513C453.614 422.915 451.399 423.45 449.295 422.955L388.969 407.905C387.633 407.589 386.245 406.479 386.532 405.141C385.531 396.782 388.672 387.121 393.165 377.035C393.48 375.557 395.022 374.688 396.458 375.178L399.614 376.651V376.653Z" fill="#8232AE"/>
<path d="M399.614 376.653C415.076 382.441 426.153 385.022 429.189 381.719C429.823 381.031 430.825 380.81 431.719 381.087C436.113 382.449 446.069 386.523 452.13 397.194C457.612 406.845 456.721 416.28 456.106 420.008C456.009 420.596 455.71 421.127 455.256 421.513C453.614 422.915 451.399 423.45 449.295 422.955L388.969 407.905C387.633 407.589 386.245 406.479 386.532 405.141C385.531 396.782 388.672 387.121 393.165 377.035C393.48 375.557 395.022 374.688 396.458 375.178L399.614 376.651V376.653Z" stroke="black" stroke-width="2" stroke-miterlimit="10"/>
<path d="M413.218 407.907L453.721 417.383" stroke="black" stroke-width="2" stroke-linecap="round" stroke-linejoin="round"/>
<path d="M435.487 380.5C435.501 381.445 435.358 382.25 435.164 382.91C433.676 387.946 427.584 389.764 426.671 390.022" stroke="black" stroke-width="2" stroke-linecap="round" stroke-linejoin="round"/>
<path d="M439.258 382.894C439.48 383.813 439.519 384.628 439.474 385.316C439.135 390.555 433.597 393.663 432.763 394.116" stroke="black" stroke-width="2" stroke-linecap="round" stroke-linejoin="round"/>
<path d="M443.809 386.32C444.031 387.239 444.07 388.054 444.025 388.742C443.686 393.981 438.148 397.089 437.314 397.542" stroke="black" stroke-width="2" stroke-linecap="round" stroke-linejoin="round"/>
<path d="M161.207 247.532C157.942 252.004 150.997 268.899 154.972 286.006C158.201 299.9 163.828 306.203 168.855 310.599C195.467 328.442 326.556 317.614 347.53 317.876L373.778 376.04L439.202 345.983C427.089 318.783 417.741 297.097 409.82 277.669C406.646 269.885 400.716 255.141 387.098 242.536C378.365 234.455 370.682 231.149 367.9 230.045C360.896 227.267 355.224 226.649 346.353 225.752C339.716 225.08 330.327 224.557 318.929 225.361" fill="#4B5FC8"/>
<path d="M161.207 247.532C157.942 252.004 150.997 268.899 154.972 286.006C158.201 299.9 163.828 306.203 168.855 310.599C195.467 328.442 326.556 317.614 347.53 317.876L373.778 376.04L439.202 345.983C427.089 318.783 417.741 297.097 409.82 277.669C406.646 269.885 400.716 255.141 387.098 242.536C378.365 234.455 370.682 231.149 367.9 230.045C360.896 227.267 355.224 226.649 346.353 225.752C339.716 225.08 330.327 224.557 318.929 225.361" stroke="black" stroke-width="2" stroke-miterlimit="10"/>
<path d="M347.532 317.876C351.101 317.369 357.405 315.992 363.725 311.629C365.921 310.112 379.653 300.634 379.395 284.694C379.215 273.603 372.207 266.004 369.992 263.614C354.5 246.896 327.272 250.204 324.431 250.706" fill="#4B5FC8"/>
<path d="M347.532 317.876C351.101 317.369 357.405 315.992 363.725 311.629C365.921 310.112 379.653 300.634 379.395 284.694C379.215 273.603 372.207 266.004 369.992 263.614C354.5 246.896 327.272 250.204 324.431 250.706" stroke="black" stroke-width="2" stroke-miterlimit="10"/>
<path d="M235.544 31.296C230.914 28.8497 222.387 26.5702 213.041 27.1275C206.606 27.5098 194.209 27.9604 185.343 31.8734C175.807 36.0822 174.458 40.2567 164.434 52.5088C151.08 68.8248 145.759 85.696 135.264 94.9202C133.566 96.411 129.976 101.511 116.685 103.362C99.3608 105.776 97.263 101.652 80.6339 107.355C73.446 109.82 65.6826 110.56 55.6418 120.613C40.8985 135.374 38.5806 153.593 38.1465 157.788C37.5347 163.709 35.0068 188.205 49.2009 199.304C62.5167 209.717 75.8103 202.596 83.4667 213.184C88.2479 219.797 82.9276 225.452 87.6643 238.998C90.3699 246.731 95.4701 254.513 101.027 258.828C116.359 270.732 143.494 262.685 158.908 254.205C197.528 232.956 184.814 181.159 189.797 156.921C194.49 134.109 304.045 71.1042 235.54 31.2981" fill="#030000"/>
<path d="M162.083 239.034L156.119 255.666L229.757 258.124L176.716 243.438" fill="#8232AE"/>
<path d="M236.511 35.1849C230.797 32.8673 222.333 30.0689 211.793 28.8778C203.743 27.9685 179.985 25.2827 157.436 39.1724C132.159 54.742 144.348 76.0251 122.344 91.987C97.2873 110.162 69.7854 92.154 47.515 112.58C44.3168 115.513 34.3203 125.14 32.6041 139.979C29.9813 162.655 48.682 179.305 51.1271 181.415" stroke="black" stroke-width="2" stroke-linecap="round" stroke-linejoin="round"/>
<path d="M253.695 74.8703C257.598 78.6646 263.34 85.2232 267.255 94.7975C269 99.0646 277.801 120.589 267.292 137.466C257.913 152.527 235.893 159.494 213.711 153.141" fill="#030000"/>
<path d="M200.379 31.6984C201.97 31.4429 206.964 30.6382 209.461 27.2442C212.805 22.7015 210.709 14.8332 206.192 10.4374C202.633 6.97301 196.638 4.762 191.221 6.88046C190.619 7.11585 185.012 9.40933 183.92 14.7447C183.177 18.368 184.952 21.2711 186.801 24.3009C188.204 26.5964 190.637 30.5819 195.219 31.7004C197.272 32.2014 198.952 31.9298 200.379 31.7004" fill="#030000"/>
<path d="M187.809 32.3945L193.139 34.5291L193.975 32.4549L188.798 30.3807C187.213 29.4472 183.556 26.8499 182.212 22.1201C180.447 15.9056 183.966 10.7351 185.563 8.80177C189.226 4.36166 196.18 1.0361 202.384 3.27125C205.681 4.45823 208.446 7.09172 210.166 10.6848C210.913 12.244 213.182 16.9859 210.866 21.5045C209.332 24.4961 206.572 25.9245 205.064 26.5079L205.877 28.5922C207.684 27.892 210.994 26.1739 212.865 22.5225C215.686 17.0201 213.057 11.5278 212.193 9.72319C210.216 5.59491 207.006 2.55906 203.149 1.1709C195.632 -1.53502 187.867 2.49468 183.833 7.38544C182.014 9.59242 178.002 15.5032 180.055 22.7337C181.642 28.3186 185.957 31.3242 187.74 32.3583L187.811 32.3986L187.809 32.3945Z" fill="#030000"/>
<path d="M208.395 25.848C206.824 28.8899 207.779 32.4971 210.527 33.9054C213.275 35.3137 216.774 33.9879 218.345 30.946C219.916 27.9041 218.961 24.2969 216.213 22.8886C213.465 21.4803 209.966 22.8061 208.395 25.848Z" fill="#FF8E47"/>
<path d="M200.991 26.695C199.42 29.7369 200.375 33.3441 203.123 34.7524C205.871 36.1607 209.37 34.8349 210.941 31.793C212.512 28.7511 211.557 25.1439 208.809 23.7356C206.061 22.3273 202.562 23.6531 200.991 26.695Z" fill="#FF8E47"/>
<path d="M193.173 29.6544C191.602 32.6963 192.557 36.3035 195.305 37.7118C198.053 39.1201 201.552 37.7943 203.123 34.7524C204.694 31.7105 203.739 28.1033 200.991 26.695C198.243 25.2867 194.744 26.6125 193.173 29.6544Z" fill="#FF8E47"/>
<path d="M185.959 31.447C184.388 34.4889 185.343 38.0961 188.091 39.5043C190.839 40.9126 194.338 39.5868 195.909 36.5449C197.48 33.5031 196.525 29.8958 193.777 28.4876C191.029 27.0793 187.53 28.4051 185.959 31.447Z" fill="#FF8E47"/>
<path d="M214.81 126.727C215.133 121.993 216.015 119.451 215.553 116.938L215.331 115.747C205.342 110.313 202.552 103.388 201.498 99.3483C200.553 99.7587 196.729 100.296 194.778 100.244C190.643 100.135 187.861 97.4753 186.44 96.1173C184.663 94.4193 183.308 91.0032 183.292 87.4382C183.278 84.5674 183.758 81.1352 188.051 78.4514C190.353 77.0109 197.086 79.226 198.013 79.23L200.125 59.9224L207.511 49.7687L252.058 51.4405L257.638 66.8109C257.426 73.4439 258.686 78.9604 257.822 87.398C256.72 98.1714 253.261 105.362 252.088 106.858C245.257 115.568 236.218 120.414 232.678 118.841C232.513 121.645 231.883 123.357 232.317 127.876C233.024 135.243 236.981 138.995 235.57 141.001C233.381 144.11 212.764 137.344 208.96 132.208" fill="#FCD9B4"/>
<path d="M187.699 86.1648C186.25 88.9753 187.762 92.6308 191.079 94.3288C194.397 96.0288 198.259 95.1275 199.711 92.3169C201.161 89.5064 199.648 85.8509 196.331 84.1529C193.014 82.4529 189.151 83.3542 187.699 86.1648Z" fill="#E46940"/>
<path d="M191.435 82.8372C195.828 83.7566 199.121 86.3861 199.723 89.6311C199.854 90.3373 199.913 91.3714 199.531 92.667" stroke="#030000" stroke-width="2" stroke-linecap="round" stroke-linejoin="round"/>
<path d="M244.587 84.4245C244.43 86.4866 245.239 88.2309 246.394 88.3174C247.549 88.4059 248.613 86.8045 248.771 84.7424C248.928 82.6802 248.118 80.938 246.963 80.8495C245.809 80.761 244.744 82.3624 244.587 84.4245Z" fill="#0E1413"/>
<path d="M224.776 85.7242C224.618 87.7863 225.428 89.5305 226.583 89.6171C227.738 89.7056 228.802 88.1042 228.959 86.042C229.117 83.9799 228.307 82.2377 227.152 82.1491C225.997 82.0606 224.933 83.662 224.776 85.7242Z" fill="#0E1413"/>
<path d="M235.525 94.4112C235.59 94.4455 235.663 94.4636 235.741 94.4636C236.436 94.4696 237.464 94.3348 238.417 93.6669C238.629 93.518 240.472 92.1721 240.08 90.627C239.953 90.1281 239.644 89.8303 239.253 89.4541C238.695 88.919 238.029 88.5146 237.274 88.253C237.022 88.1665 236.747 88.2993 236.66 88.5508C236.573 88.8023 236.707 89.0739 236.959 89.1624C237.581 89.3756 238.128 89.7076 238.584 90.1462C238.934 90.4821 239.089 90.6391 239.148 90.8644C239.325 91.5605 238.477 92.4517 237.864 92.8823C237.118 93.4053 236.305 93.5099 235.752 93.5039C235.485 93.5019 235.267 93.7152 235.265 93.9807C235.265 94.1678 235.37 94.3328 235.527 94.4112" fill="#0E1413"/>
<path d="M231.324 102.344C231.673 102.523 232.059 102.67 232.483 102.766C234.243 103.169 235.667 102.493 237.042 101.839C238.372 101.205 239.56 100.324 240.567 99.2155C240.775 98.9862 240.759 98.6341 240.529 98.4269C240.299 98.2196 239.945 98.2378 239.737 98.4651C238.827 99.465 237.758 100.26 236.559 100.829C235.301 101.427 234.112 101.992 232.733 101.676C231.013 101.284 230.038 99.7647 229.67 99.1934C229.155 98.3927 228.826 97.4934 228.691 96.5237C228.648 96.2179 228.366 96.0046 228.059 96.0469C227.752 96.0891 227.538 96.3708 227.58 96.6766C227.738 97.8072 228.121 98.8574 228.725 99.7969C229.074 100.34 229.89 101.61 231.322 102.344" fill="#0E1413"/>
<path d="M245.948 92.0916C244.906 94.1115 245.704 96.5921 247.731 97.6302C249.758 98.6683 252.247 97.8736 253.289 95.8537C254.331 93.8339 253.534 91.3533 251.506 90.3152C249.479 89.2771 246.99 90.0717 245.948 92.0916Z" fill="#E46940"/>
<path d="M218.077 94.5581C217.035 96.578 217.832 99.0586 219.859 100.097C221.887 101.135 224.376 100.34 225.418 98.3202C226.46 96.3004 225.662 93.8198 223.635 92.7817C221.608 91.7436 219.118 92.5382 218.077 94.5581Z" fill="#E46940"/>
<path d="M197.393 40.5626C201.068 38.5125 212.223 34.5391 217.61 33.7666C234.863 31.292 250.891 38.432 258.04 48.4007C261.521 53.2532 262.633 57.7859 263.239 60.359C264.303 64.8896 265.333 69.6114 262.387 73.8765C261.172 75.6348 259.13 77.536 258.878 77.4052C258.638 77.2805 259.997 75.317 260.511 74.4056C262.076 71.6373 262.405 66.992 256.962 58.7535C257.687 60.3449 258.365 62.3105 258.71 64.608C259.564 70.2733 257.953 74.983 256.726 77.6829L235.937 79.3929C236.456 77.87 237.052 75.673 237.238 73.0033C237.441 70.0802 237.133 66.8914 236.721 66.8894C236.414 66.8894 236.252 68.6578 235.735 70.5167C235.097 72.8102 233.69 76.0674 230.197 79.8516L207.787 82.1371L202.683 96.7047L197.827 78.5299L197.393 40.5585V40.5626Z" fill="#030000"/>
<path d="M219.67 116.205C221.895 117.085 224.011 117.807 228.212 118.547C230.77 118.998 233.43 118.779 234.518 118.74C239.41 118.565 244.371 115.171 247.523 112.431C254.218 106.611 255.773 98.8051 257.136 92.4819C258.161 87.7279 259.278 79.4895 257.226 69.1869" stroke="#030000" stroke-width="2" stroke-linecap="round" stroke-linejoin="round"/>
<path d="M242.891 125.538C242.703 125.838 242.451 126.257 242.176 126.77C241.526 127.985 238.118 134.37 240.27 136.895C241.684 138.551 245.374 138.414 249.055 136.754" fill="#4B5FC8"/>
<path d="M195.826 126.073C195.639 126.373 195.386 126.792 195.112 127.305C194.461 128.522 191.053 134.905 193.206 137.43C194.619 139.086 198.31 138.949 201.991 137.289" fill="#4B5FC8"/>
<path d="M210.64 125.522C210.856 125.108 211.908 122.73 213.251 122.78C213.784 122.8 214.16 123.195 214.309 123.343C216.074 125.088 221.036 126.651 224.683 126.438C225.507 126.389 229.771 126.138 232.798 124.118C233.193 123.854 234.338 123.046 235.338 123.416C236.034 123.673 236.406 124.406 236.608 124.963L237.032 126.46C242.701 128.007 247.284 128.769 250.509 129.182C252.932 129.492 254.902 129.642 257.212 130.87C260.75 132.747 262.549 135.797 263.352 137.197C272.656 153.432 274.714 160.19 274.714 160.19C283.246 188.229 289.301 186.123 288.227 195.276C286.144 213.047 264.624 209.913 249.168 237.676C246.984 241.599 241.183 252.857 230.75 259.824C227.673 261.88 223.076 257.957 218.282 258.384C212.986 258.854 209.227 257.671 207.173 256.899C190.657 250.688 177.911 243.743 176.477 243.47C166.495 241.565 132.183 232.592 127.547 230.083C121.064 226.575 120.202 218.744 117.625 213.033C116.8 211.2 116.925 205.114 122.168 188.243C126.005 175.898 132.813 163.976 147.798 148.065C152.329 143.254 164.048 132.342 172.974 130.339C188.554 126.842 208.062 130.463 210.64 125.53" fill="#8232AE"/>
<path d="M242.689 125.538C245.114 126.007 247.541 126.476 249.966 126.945C254.228 136.255 258.303 146.292 261.963 157.017C267.423 173.014 271.108 188.03 273.567 201.757H263.782C261.051 189.241 258.398 171.287 253.748 157.289C250.095 146.29 247.636 137.42 243.475 127.647" fill="#4B5FC8"/>
<path d="M189.02 126.975C191.526 126.084 193.704 126.043 195.782 126.084C197.918 136.094 196.606 152.386 197.849 163.648C199.701 180.443 193.044 244.446 192.46 258.378H185.789C185.844 245.57 190.993 180.127 189.496 165.459C188.321 153.933 190.956 137.414 189.02 126.975Z" fill="#4B5FC8"/>
<path d="M316.452 180.481C313.092 182.089 313.958 142.48 317.191 137.726C297.251 144.037 283.947 158.422 281.595 186.135" fill="#FDF8E6"/>
<path d="M316.452 180.481C313.092 182.089 313.958 142.48 317.191 137.726C297.251 144.037 283.947 158.422 281.595 186.135" stroke="black" stroke-width="2" stroke-linecap="round" stroke-linejoin="round"/>
<path d="M331.936 193.55C327.937 194.085 330.783 153.42 334.196 144.9C311.653 148.725 294.531 156.856 281.031 181.403" fill="#FDF8E6"/>
<path d="M331.936 193.55C327.937 194.085 330.783 153.42 334.196 144.9C311.653 148.725 294.531 156.856 281.031 181.403" stroke="black" stroke-width="2" stroke-linecap="round" stroke-linejoin="round"/>
<path d="M208.758 210.943C212.758 211.478 219.306 157.166 215.896 148.644C238.439 152.471 270.266 157.893 283.765 182.439" fill="#FDF8E6"/>
<path d="M208.758 210.943C212.758 211.478 219.306 157.166 215.896 148.644C238.439 152.471 270.266 157.893 283.765 182.439" stroke="black" stroke-width="2" stroke-linecap="round" stroke-linejoin="round"/>
<path d="M342.868 157.013L342.599 156.679C342.29 156.295 341.769 156.154 341.309 156.329L282.778 178.486C282.54 178.576 282.279 178.584 282.037 178.508L212.282 156.792C211.729 156.621 211.135 156.891 210.903 157.418L210.351 158.673C210.077 159.295 210.412 160.017 211.066 160.21L281.193 181.093C281.429 181.163 281.681 181.155 281.912 181.069L342.375 158.78C343.102 158.512 343.35 157.615 342.868 157.011" fill="#FDF8E6"/>
<path d="M342.868 157.013L342.599 156.679C342.29 156.295 341.769 156.154 341.309 156.329L282.778 178.486C282.54 178.576 282.279 178.584 282.037 178.508L212.282 156.792C211.729 156.621 211.135 156.891 210.903 157.418L210.351 158.673C210.077 159.295 210.412 160.017 211.066 160.21L281.193 181.093C281.429 181.163 281.681 181.155 281.912 181.069L342.375 158.78C343.102 158.512 343.35 157.615 342.868 157.011V157.013Z" stroke="black" stroke-width="2" stroke-miterlimit="10"/>
<path d="M345.571 157.534L284.25 180.298C283.48 180.584 282.636 180.61 281.851 180.373L210.822 158.975C208.72 158.343 206.525 159.631 206.063 161.769L187.73 246.566C187.316 248.479 188.453 250.387 190.336 250.944L263.732 272.591C264.402 272.788 265.113 272.796 265.787 272.613L320.504 257.736C321.762 257.394 322.754 256.424 323.121 255.177L350.49 162.093C351.36 159.136 348.471 156.458 345.573 157.534" fill="#FF8E47"/>
<path d="M345.571 157.534L284.25 180.298C283.48 180.584 282.636 180.61 281.851 180.373L210.822 158.975C208.72 158.343 206.525 159.631 206.063 161.769L187.73 246.566C187.316 248.479 188.453 250.387 190.336 250.944L263.732 272.591C264.402 272.788 265.113 272.796 265.787 272.613L320.504 257.736C321.762 257.394 322.754 256.424 323.121 255.177L350.49 162.093C351.36 159.136 348.471 156.458 345.573 157.534H345.571Z" stroke="black" stroke-width="2" stroke-miterlimit="10"/>
<path d="M191.554 229.109C193.177 229.673 194.869 230.015 198.328 229.673C202.798 229.23 207.868 227.156 209.037 226.174C209.102 226.12 209.394 225.868 209.849 225.752C210.632 225.553 211.652 225.82 211.93 226.349C212.387 227.214 210.866 228.792 210.273 229.407C206.198 233.632 200.179 234.314 198.629 234.469C197.538 234.578 197.04 234.562 197.042 234.574C197.042 234.622 204.08 235.471 208.668 233.431C212.482 231.735 214.896 229.005 215.797 229.506C216.407 229.846 216.928 230.689 216.413 231.514C213.776 235.751 208.474 237.525 208.474 237.525C203.17 239.301 198.645 238.605 198.629 238.895C198.619 239.082 201.32 239.46 204.319 239.263C210.202 238.877 214.8 235.091 215.46 234.077C215.492 234.026 216.792 232.232 218.107 233.69C218.612 234.25 217.931 235.435 217.612 236.01C215.496 239.833 210.475 241.718 209.532 242.058C204.272 243.957 200.014 243.045 200.006 243.323C199.998 243.575 203.469 244.323 207.434 243.657C210.057 243.216 212.821 241.985 213.546 241.494C213.57 241.478 213.699 241.39 213.889 241.309C214.581 241.017 215.555 241.044 215.847 241.44C216.259 241.999 215.335 243.299 215.08 243.655C214.113 245.011 210.804 247.906 201.611 247.477C195.233 247.18 191.114 245.52 185.892 243.778C181.051 242.162 175.694 240.006 166.871 238.219L172.132 224.583H192.483" fill="#FCD9B4"/>
<path d="M191.554 229.109C193.177 229.673 194.869 230.015 198.328 229.673C202.798 229.23 207.868 227.156 209.037 226.174C209.102 226.12 209.394 225.868 209.849 225.752C210.632 225.553 211.652 225.82 211.93 226.349C212.387 227.214 210.866 228.792 210.273 229.407C206.198 233.632 200.179 234.314 198.629 234.469C197.538 234.578 197.04 234.562 197.042 234.574C197.042 234.622 204.08 235.471 208.668 233.431C212.482 231.735 214.896 229.005 215.797 229.506C216.407 229.846 216.928 230.689 216.413 231.514C213.776 235.751 208.474 237.525 208.474 237.525C203.17 239.301 198.645 238.605 198.629 238.895C198.619 239.082 201.32 239.46 204.319 239.263C210.202 238.877 214.8 235.091 215.46 234.077C215.492 234.026 216.792 232.232 218.107 233.69C218.612 234.25 217.931 235.435 217.612 236.01C215.496 239.833 210.475 241.718 209.532 242.058C204.272 243.957 200.014 243.045 200.006 243.323C199.998 243.575 203.469 244.323 207.434 243.657C210.057 243.216 212.821 241.985 213.546 241.494C213.57 241.478 213.699 241.39 213.889 241.309C214.581 241.017 215.555 241.044 215.847 241.44C216.259 241.999 215.335 243.299 215.08 243.655C214.113 245.011 210.804 247.906 201.611 247.477C195.233 247.18 191.114 245.52 185.892 243.778C181.051 242.162 175.694 240.006 166.871 238.219L172.132 224.583H192.483" stroke="#030000" stroke-width="2" stroke-linecap="round" stroke-linejoin="round"/>
<path d="M333.277 226.717C334.089 227.53 334.105 229.379 333.426 230.512C333.18 230.924 332.881 231.174 332.679 231.331C329.996 233.421 326.184 233.859 326.184 233.859C324.312 234.075 320.06 234.566 319.315 232.892C318.992 232.167 319.412 231.226 319.763 230.735C320.547 229.635 321.954 229.419 322.525 229.321C328.453 228.311 331.757 225.196 333.275 226.717" fill="#FCD9B4"/>
<path d="M333.277 226.717C334.089 227.53 334.105 229.379 333.426 230.512C333.18 230.924 332.881 231.174 332.679 231.331C329.996 233.421 326.184 233.859 326.184 233.859C324.312 234.075 320.06 234.566 319.315 232.892C318.992 232.167 319.412 231.226 319.763 230.735C320.547 229.635 321.954 229.419 322.525 229.321C328.453 228.311 331.757 225.196 333.275 226.717H333.277Z" stroke="#030000" stroke-width="2" stroke-linecap="round" stroke-linejoin="round"/>
<path d="M333.277 232.835C334.089 233.648 334.105 235.497 333.426 236.63C333.18 237.042 332.881 237.292 332.679 237.449C329.996 239.539 326.184 239.977 326.184 239.977C324.312 240.193 320.06 240.684 319.315 239.01C318.992 238.285 319.412 237.344 319.763 236.853C320.547 235.753 321.954 235.537 322.525 235.439C328.453 234.429 331.757 231.314 333.275 232.835" fill="#FCD9B4"/>
<path d="M333.277 232.835C334.089 233.648 334.105 235.497 333.426 236.63C333.18 237.042 332.881 237.292 332.679 237.449C329.996 239.539 326.184 239.977 326.184 239.977C324.312 240.193 320.06 240.684 319.315 239.01C318.992 238.285 319.412 237.344 319.763 236.853C320.547 235.753 321.954 235.537 322.525 235.439C328.453 234.429 331.757 231.314 333.275 232.835H333.277Z" stroke="#030000" stroke-width="2" stroke-linecap="round" stroke-linejoin="round"/>
<path d="M332.643 239.058C333.455 239.871 333.471 241.72 332.792 242.852C332.546 243.265 332.247 243.514 332.045 243.671C329.362 245.761 325.55 246.2 325.55 246.2C323.678 246.415 319.426 246.906 318.681 245.232C318.358 244.508 318.778 243.566 319.129 243.076C319.913 241.975 321.32 241.76 321.891 241.661C327.819 240.651 331.123 237.537 332.641 239.058" fill="#FCD9B4"/>
<path d="M332.643 239.058C333.455 239.871 333.471 241.72 332.792 242.852C332.546 243.265 332.247 243.514 332.045 243.671C329.362 245.761 325.55 246.2 325.55 246.2C323.678 246.415 319.426 246.906 318.681 245.232C318.358 244.508 318.778 243.566 319.129 243.076C319.913 241.975 321.32 241.76 321.891 241.661C327.819 240.651 331.123 237.537 332.641 239.058H332.643Z" stroke="#030000" stroke-width="2" stroke-linecap="round" stroke-linejoin="round"/>
<path d="M288.351 178.775L272.365 270.825L265.684 273.169L258.012 270.905L275.8 178.643L282.152 180.226L288.351 178.775Z" fill="#8232AE"/>
<path d="M288.351 178.775L272.365 270.825L265.684 273.169L258.012 270.905L275.8 178.643L282.152 180.226L288.351 178.775Z" stroke="black" stroke-width="2" stroke-miterlimit="10"/>
<path d="M195.598 270.533V252.495L185.961 249.59L184.929 267.801" fill="#4B5FC8"/>
<path d="M237.032 126.456C237.052 124.953 236.345 123.734 235.338 123.412C234.859 123.259 234.316 123.382 234.154 123.416C233.195 123.615 232.576 124.217 232.444 124.339C231.221 125.468 227.669 126.186 225.555 126.369C225.105 126.409 217.606 126.995 215.076 123.959C214.83 123.663 214.141 122.748 213.251 122.78C212.633 122.802 212.161 123.273 211.737 123.7C211.387 124.05 210.816 124.724 210.457 125.818C211.436 126.991 212.457 127.854 213.419 128.5C221.257 133.761 231.956 129.121 233.585 128.389" stroke="#030000" stroke-width="2" stroke-linecap="round" stroke-linejoin="round"/>
<path d="M233.593 124.923L234.387 127.297" stroke="#030000" stroke-width="2" stroke-linecap="round" stroke-linejoin="round"/>
<path d="M229.311 126.84L229.826 129.288" stroke="#030000" stroke-width="2" stroke-linecap="round" stroke-linejoin="round"/>
<path d="M224.851 127.506L225.111 129.757" stroke="#030000" stroke-width="2" stroke-linecap="round" stroke-linejoin="round"/>
<path d="M216.354 126.468L215.436 128.542" stroke="#030000" stroke-width="2" stroke-linecap="round" stroke-linejoin="round"/>
<path d="M220.433 126.84L219.989 130.164" stroke="#030000" stroke-width="2" stroke-linecap="round" stroke-linejoin="round"/>
<path d="M111.504 171.48C112.537 187.535 115.009 200.533 117.256 209.878C120.137 221.859 122.148 225.738 125.619 228.784C128.763 231.542 129.734 230.661 148.764 237.294C151.257 238.163 158.984 239.617 161.89 240.317C163.024 240.591 163.664 240.746 164.5 240.529C168.284 239.539 166.953 233.197 171.416 226.959C171.904 226.275 173.077 224.734 172.615 223.303C172.304 222.338 171.454 222.05 170.709 221.334C168.843 219.539 169.409 216.761 169.193 215.021C168.714 211.196 164.22 208.826 160.018 206.498C154.058 203.195 147.385 199.252 139.06 194.158" stroke="#030000" stroke-width="2" stroke-linecap="round" stroke-linejoin="round"/>
<path d="M182.741 169.968C177.507 175.746 172.233 181.721 166.933 187.897C162.829 192.681 158.843 197.429 154.972 202.135" stroke="#030000" stroke-width="2" stroke-linecap="round" stroke-linejoin="round"/>
<path d="M249.966 126.945C253.158 133.902 256.292 141.394 259.256 149.409C260.909 153.881 262.413 158.255 263.782 162.514" stroke="black" stroke-width="2" stroke-linecap="round" stroke-linejoin="round"/>
<path d="M196.703 203.42C198.263 184.234 198.639 163.335 197.09 141.013C196.739 135.935 196.299 130.958 195.782 126.084C194.906 125.955 193.672 125.868 192.222 126.073C190.884 126.263 189.797 126.639 189.02 126.975C188.881 132.503 188.764 140.995 189.02 151.431C189.282 162.101 189.642 162.753 189.757 171.151C189.874 179.723 189.507 187.458 188.766 202.581C188.499 208.033 188.107 215.435 187.556 224.259" stroke="black" stroke-width="2" stroke-linecap="round" stroke-linejoin="round"/>
<path d="M186.393 244.401L185.561 256.649L157.254 255.704" stroke="black" stroke-width="2" stroke-linecap="round" stroke-linejoin="round"/>
<path d="M127.02 218.058L109.489 249.224L113.309 258.611L127.307 260.973L132.768 253.306L128.654 218.382C128.555 217.543 127.436 217.32 127.02 218.058Z" fill="#F7E4CD"/>
<path d="M83.5918 392.201L109.488 249.224L113.787 255.257L121.934 250.626L126.81 256.724L132.768 253.308L107.675 399.522L83.5918 392.201Z" fill="#FF8E47"/>
<path d="M121.912 227.138L129.827 228.361L128.652 218.384C128.644 217.781 127.676 217.197 127.059 217.99L121.912 227.14V227.138Z" fill="#FF8E47"/>
<path d="M87.7653 395.196L113.787 255.257" stroke="#FFF8F5" stroke-width="2" stroke-linecap="round" stroke-linejoin="round"/>
<path d="M126.81 256.724L103.203 392.875" stroke="#FFF8F5" stroke-width="2" stroke-linecap="round" stroke-linejoin="round"/>
<path d="M70.0559 178.415L58.5411 211.299L60.6773 219.392H81.8433L83.5918 211.299L72.606 178.433C72.2002 177.218 70.4799 177.206 70.0559 178.415Z" fill="#FAE3CE"/>
<path d="M58.5411 360.544V211.301L61.6485 217.073L63.7847 211.301L66.892 216.298L70.1932 211.301L73.2986 216.105L77.7648 211.301L80.2906 216.105L83.5918 211.301L86.1157 362.973L58.5411 360.544Z" fill="#000001"/>
<path d="M75.887 188.249L73.0704 178.423C72.5676 176.749 70.1912 176.737 69.6723 178.407L66.6517 188.14L75.885 188.249H75.887Z" fill="#4B5FC8"/>
<path d="M62.2724 360.818H61.0246V215.916L61.6485 217.073L62.2724 215.389V360.818Z" fill="#4B5FC8"/>
<path d="M80.9125 362.186H79.6667V214.92L80.2906 216.105L80.9125 215.192V362.186Z" fill="#4B5FC8"/>
<path d="M71.2694 360.154H70.0236V211.558L70.1932 211.301L70.6596 212.021L71.2694 212.971V360.154Z" fill="#4B5FC8"/>
<path d="M14.9614 240.589L19.4538 209.951C19.7547 208.229 22.1129 207.939 22.8257 209.534L34.9623 239.04L14.9614 240.587V240.589Z" fill="#F8E4CF"/>
<path d="M26.7407 219.052L22.8257 209.536C22.113 207.939 19.7547 208.231 19.4538 209.953L17.986 219.96L26.7387 219.052H26.7407Z" fill="#8232AE"/>
<path d="M13.6025 238.672L35.7397 235.171L49.1383 368.523L27.0011 371.485L13.6025 238.672Z" fill="#8232AE"/>
<path d="M18.2 237.945L33.1189 371.485" stroke="#FFF8F5" stroke-width="2" stroke-linecap="round" stroke-linejoin="round"/>
<path d="M28.9798 236.239L44.5025 369.145" stroke="#FFF8F5" stroke-width="2" stroke-linecap="round" stroke-linejoin="round"/>
<path d="M23.71 499.447L6.07336 342.595L140.758 345.856L123.008 499.449C89.9337 506.094 56.835 506.084 23.71 499.449" fill="#4B5FC8"/>
<path d="M23.71 499.447L6.07336 342.595L140.758 345.856L123.008 499.449C89.9337 506.094 56.835 506.084 23.71 499.449V499.447Z" stroke="black" stroke-width="2" stroke-linecap="round" stroke-linejoin="round"/>
<path d="M19.9 357.553C45.0941 360.068 104.952 361.154 124.757 357.553" stroke="#FFF8F5" stroke-width="2" stroke-linecap="round" stroke-linejoin="round"/>
<path d="M116.985 345.387L132.768 253.414L129.829 228.468L128.654 218.491C128.654 218.394 128.619 218.3 128.573 218.207C128.573 218.205 128.569 218.201 128.569 218.199C128.534 218.133 128.492 218.073 128.44 218.016C128.415 217.99 128.389 217.966 128.363 217.942C128.326 217.912 128.29 217.883 128.252 217.859C128.219 217.839 128.189 217.823 128.155 217.807C128.1 217.781 128.044 217.761 127.983 217.747C127.967 217.743 127.951 217.739 127.935 217.737C127.862 217.722 127.789 217.718 127.715 217.724C127.701 217.724 127.686 217.726 127.674 217.729C127.614 217.737 127.553 217.751 127.493 217.773C127.448 217.789 127.408 217.809 127.367 217.831C127.337 217.849 127.307 217.865 127.277 217.889C127.222 217.928 127.176 217.976 127.129 218.03C127.107 218.054 127.083 218.069 127.063 218.095L127.024 218.161C127.024 218.161 127.024 218.163 127.022 218.165L109.491 249.33L92.2011 344.786L85.8108 344.631L83.5938 211.407L75.889 188.356L73.0724 178.53C72.5697 176.856 70.1932 176.844 69.6743 178.514L66.6538 188.247L58.5431 211.407V343.971L46.6326 343.683L35.7417 235.278L33.5187 235.63L26.7427 219.159L22.8277 209.643C22.1149 208.046 19.7567 208.337 19.4558 210.059L17.9879 220.066L15.2824 238.515L13.6025 238.78L24.13 343.14L6.07336 342.704L23.71 499.558C56.835 506.193 89.9357 506.203 123.008 499.558L140.758 345.965L116.983 345.389L116.985 345.387Z" stroke="black" stroke-width="2" stroke-linecap="round" stroke-linejoin="round"/>
<path d="M112.61 397.725L112.681 395.923C113.085 385.515 122.552 377.814 132.865 379.508C145.119 381.52 156.715 384.715 169.114 389.694C178.86 393.607 182.878 405.211 177.677 414.307" stroke="black" stroke-width="2" stroke-miterlimit="10"/>
<path d="M171.979 466.435C182.775 445.814 174.747 420.376 154.052 409.619C133.356 398.862 107.827 406.861 97.0308 427.482C86.2368 448.103 94.2627 473.541 114.958 484.298C135.654 495.056 161.183 487.056 171.979 466.435Z" fill="#FF8E47"/>
<path d="M171.979 466.435C182.775 445.814 174.747 420.376 154.052 409.619C133.356 398.862 107.827 406.861 97.0308 427.482C86.2368 448.103 94.2627 473.541 114.958 484.298C135.654 495.056 161.183 487.056 171.979 466.435Z" stroke="black" stroke-width="2" stroke-miterlimit="10"/>
<path d="M159.864 460.138C167.17 446.182 161.738 428.969 147.732 421.688C133.726 414.409 116.448 419.821 109.143 433.777C101.838 447.733 107.27 464.946 121.276 472.227C135.282 479.506 152.559 474.094 159.864 460.138Z" fill="#FDF8E6"/>
<path d="M159.864 460.138C167.17 446.182 161.738 428.969 147.732 421.688C133.726 414.409 116.448 419.821 109.143 433.777C101.838 447.733 107.27 464.946 121.276 472.227C135.282 479.506 152.559 474.094 159.864 460.138Z" stroke="black" stroke-width="2" stroke-miterlimit="10"/>
<path d="M103.698 412.566C101.556 409.396 100.286 405.933 102.462 401.318C105.172 395.82 114.138 392.297 121.227 391.668C123.881 391.432 126.54 392.261 128.504 394.054C130.659 396.019 131.618 398.715 131.553 401.58C125.873 405.099 114.191 409.77 103.698 412.566Z" fill="#FF8E47"/>
<path d="M103.698 412.566C101.556 409.396 100.286 405.933 102.462 401.318C105.172 395.82 114.138 392.297 121.227 391.668C123.881 391.432 126.54 392.261 128.504 394.054C130.659 396.019 131.618 398.715 131.553 401.58C125.873 405.099 114.191 409.77 103.698 412.566Z" stroke="black" stroke-width="2" stroke-miterlimit="10"/>
<path d="M178.426 433.198C181.899 431.574 184.772 429.253 185.285 424.181C185.795 418.077 179.918 410.464 174.162 406.296C172.007 404.736 169.298 404.087 166.689 404.618C163.826 405.201 161.615 407.024 160.194 409.514C165.261 417.908 170 424.066 178.428 433.2" fill="#FF8E47"/>
<path d="M178.426 433.198C181.899 431.574 184.772 429.253 185.285 424.181C185.795 418.077 179.918 410.464 174.162 406.296C172.007 404.736 169.298 404.087 166.689 404.618C163.826 405.201 161.615 407.024 160.194 409.514C165.261 417.908 170 424.066 178.428 433.2L178.426 433.198Z" stroke="black" stroke-width="2" stroke-miterlimit="10"/>
<path d="M136.3 447.89C136.817 446.902 136.433 445.685 135.442 445.17C134.45 444.655 133.229 445.037 132.712 446.025C132.195 447.013 132.579 448.23 133.57 448.745C134.561 449.26 135.783 448.878 136.3 447.89Z" fill="black"/>
<path d="M116.957 437.702L133.495 446.57" stroke="black" stroke-width="2" stroke-miterlimit="10"/>
<path d="M140.366 433.443L134.612 445.834L135.197 446.138L142.048 434.318L140.366 433.443Z" fill="black"/>
<path d="M93.1966 402.439C90.6303 394.909 99.595 383.59 109.884 386.696" stroke="black" stroke-width="2" stroke-linecap="round" stroke-linejoin="round"/>
<path d="M84.1511 402.222C80.4521 390.402 94.3818 374.784 108.61 378.291" stroke="black" stroke-width="2" stroke-linecap="round" stroke-linejoin="round"/>
</g>
<defs>
<clipPath id="clip0_215_360">
<rect width="457" height="505" fill="white"/>
</clipPath>
</defs>
</svg>
