<svg width="487" height="487" viewBox="0 0 487 487" fill="none" xmlns="http://www.w3.org/2000/svg">
<g opacity="0.2">
<mask id="mask0_215_504" style="mask-type:luminance" maskUnits="userSpaceOnUse" x="31" y="43" width="430" height="403">
<path d="M460.995 43.4311H31.7268V445.576H460.995V43.4311Z" fill="white"/>
</mask>
<g mask="url(#mask0_215_504)">
<path d="M196.948 425.819C135.368 431.723 111.632 418.203 101.81 403.58C84.3191 377.538 108.138 343.803 84.142 304.641C72.7266 286.012 63.371 287.174 50.6169 269.241C21.5235 228.337 34.1931 177.147 36.1198 168.487C39.8854 151.569 46.2957 122.757 72.8159 100.858C74.9992 99.0549 110.529 70.536 149.832 78.1702C163.132 80.7529 165.345 85.2397 177.467 85.4318C200.332 85.7947 212.128 70.1486 230.472 59.1082C266.226 37.5937 318.865 38.3878 353.246 60.4704C361.279 65.6293 382.814 79.2101 391.302 106.762C397.122 125.654 380.669 138.273 386.771 164.855C390.243 179.979 396.872 186.444 398.55 188.002C409.007 197.709 419.148 192.453 431.465 197.893C452.457 207.163 465.225 239.817 459.71 264.248C456.071 280.369 450.545 288.331 427.092 308.726C388.47 342.311 456.31 416.695 316.475 445.574" fill="#4B5FC8"/>
</g>
</g>
<path d="M258.038 206.424C253.439 205.384 230.416 200.658 210.821 214.771C196.347 225.196 191.775 240.118 188.601 250.478C183.404 267.441 192.292 276.33 189.064 306.127C187.852 317.32 186.41 320.176 185.36 321.893C177.205 335.238 161.573 330.782 145.55 341.834C132.96 350.518 123.336 366.566 123.33 382.179C123.322 404.342 142.691 419.654 149.252 424.842C167.845 439.541 188.645 443.556 253.868 443.392C363.336 443.115 377.826 431.624 385.333 422.987C398.922 407.354 408.599 379.256 399.219 365.947C398.581 365.042 398.708 365.415 385.796 354.354C369.44 340.343 366.339 337.262 364.965 332.094C363.428 326.315 366.17 325.906 366.817 314.472C367.088 309.682 367.637 297.696 362.187 284.329C359.851 278.599 356.168 269.568 347.375 262.533C337.878 254.936 330.928 256.474 326.544 248.621C323.678 243.49 325.557 240.883 322.84 233.319C322.84 233.319 319.842 225.261 312.193 217.552C302.106 207.387 284.036 201.939 264.05 204.103" fill="#030000"/>
<path d="M215.945 307.385C214.68 307.998 209.501 308.935 206.843 308.97C201.207 309.041 197.274 305.547 195.268 303.765C192.758 301.536 190.731 296.93 190.518 292.051C190.348 288.121 190.817 283.398 196.521 279.494C199.578 277.401 208.865 280.073 210.128 280.031C221.694 286.996 217.064 297.583 215.945 307.385Z" fill="#FCD9B4"/>
<path d="M196.452 290.069C194.628 293.992 196.883 298.917 201.488 301.067C206.096 303.217 211.309 301.778 213.133 297.854C214.957 293.931 212.702 289.006 208.097 286.856C203.49 284.706 198.277 286.145 196.452 290.069Z" fill="#E46940"/>
<path d="M201.362 285.315C207.394 286.34 212.019 289.766 213.011 294.175C213.227 295.135 213.362 296.548 212.914 298.341" stroke="#030000" stroke-width="3" stroke-linecap="round" stroke-linejoin="round"/>
<path d="M288.71 208.323C286.264 207.829 278.58 206.273 274.918 200.837C270.017 193.563 270.675 179.637 277.936 173.067C283.658 167.89 293.425 166.581 301.685 170.209C302.601 170.611 313.299 174.872 314.668 183.245C315.598 188.931 315.286 194.477 312.236 199.083C309.925 202.574 303.865 207.174 296.703 208.637C293.494 209.293 290.907 208.769 288.712 208.325" fill="#030000"/>
<path d="M306.788 210.932L298.405 213.933L297.236 210.654L305.378 207.739C307.891 206.383 313.708 202.561 316.077 195.278C319.188 185.71 314.048 177.448 311.694 174.338C306.292 167.203 295.725 161.605 285.981 164.708C280.804 166.355 276.366 170.289 273.482 175.778C272.231 178.161 268.428 185.406 271.742 192.583C273.937 197.333 278.125 199.724 280.425 200.725L279.039 203.919C276.284 202.72 271.263 199.844 268.586 194.046C264.55 185.308 268.956 176.917 270.405 174.159C273.716 167.853 278.874 163.318 284.928 161.39C296.734 157.631 308.515 164.376 314.465 172.234C317.149 175.78 323.002 185.227 319.383 196.357C316.587 204.955 309.722 209.375 306.9 210.875L306.789 210.934L306.788 210.932Z" fill="#030000"/>
<path d="M276.651 198.729C278.898 203.561 277.202 209.12 272.861 211.145C268.521 213.171 263.181 210.896 260.934 206.064C258.688 201.232 260.384 195.673 264.724 193.649C269.065 191.622 274.405 193.897 276.651 198.729Z" fill="#DF6A4F"/>
<path d="M288.064 200.495C290.31 205.327 288.614 210.886 284.274 212.911C279.933 214.937 274.593 212.662 272.346 207.83C270.1 202.998 271.796 197.439 276.136 195.414C280.477 193.388 285.817 195.663 288.064 200.495Z" fill="#DF6A4F"/>
<path d="M299.991 205.576C302.238 210.408 300.542 215.967 296.201 217.992C291.86 220.018 286.52 217.743 284.274 212.911C282.027 208.079 283.723 202.52 288.064 200.495C292.404 198.469 297.744 200.744 299.991 205.576Z" fill="#DF6A4F"/>
<path d="M311.055 208.802C313.302 213.634 311.606 219.193 307.265 221.217C302.925 223.243 297.585 220.968 295.338 216.136C293.092 211.305 294.788 205.745 299.128 203.721C303.469 201.695 308.809 203.97 311.055 208.802Z" fill="#DF6A4F"/>
<path d="M272.889 368.441C271.818 361.093 271.182 359.472 270.894 355.011L270.728 339.534C286.527 331.679 293.525 321.411 295.405 315.188C296.844 315.885 302.733 316.952 305.755 316.991C312.163 317.073 316.636 313.1 318.918 311.072C321.772 308.537 324.079 303.298 324.32 297.752C324.514 293.283 323.98 287.911 317.493 283.471C314.015 281.09 303.454 284.13 302.02 284.081L299.921 253.893L289.1 237.636L220.016 237.542L210.441 261.136C210.366 271.477 206.458 280.556 207.283 293.747C208.337 310.587 213.092 322.952 214.819 325.353C224.867 339.324 234.198 341.72 240.3 342.96C241.451 345.93 240.795 349.139 240.737 356.733C240.649 368.265 230.166 372.595 232.231 375.805C235.433 380.778 272.225 376.718 278.425 368.953" fill="#FCD9B4"/>
<path d="M317.571 295.495C319.646 299.957 317.082 305.557 311.843 308.001C306.604 310.446 300.675 308.81 298.6 304.348C296.526 299.885 299.089 294.285 304.328 291.841C309.567 289.397 315.495 291.032 317.571 295.495Z" fill="#E46940"/>
<path d="M311.989 290.088C305.129 291.255 299.871 295.15 298.742 300.164C298.496 301.254 298.342 302.862 298.854 304.903" stroke="#030000" stroke-width="3" stroke-linecap="round" stroke-linejoin="round"/>
<path d="M236.945 289.846C237.065 293.086 235.697 295.768 233.893 295.835C232.088 295.901 230.527 293.328 230.406 290.088C230.286 286.848 231.654 284.166 233.459 284.099C235.264 284.033 236.825 286.606 236.945 289.846Z" fill="#0E1413"/>
<path d="M264.594 292.401C264.713 295.622 263.355 298.286 261.561 298.352C259.768 298.419 258.216 295.862 258.098 292.642C257.979 289.421 259.337 286.757 261.131 286.69C262.924 286.624 264.476 289.18 264.596 292.401" fill="#0E1413"/>
<path d="M247.214 308.389C247.121 308.433 247.017 308.455 246.908 308.452C245.935 308.423 244.502 308.177 243.201 307.183C242.914 306.961 240.402 304.963 241.036 302.81C241.24 302.112 241.69 301.71 242.26 301.202C243.071 300.478 244.028 299.944 245.1 299.618C245.458 299.511 245.834 299.713 245.943 300.071C246.05 300.429 245.849 300.806 245.492 300.915C244.608 301.182 243.823 301.62 243.16 302.213C242.654 302.665 242.426 302.878 242.334 303.192C242.048 304.162 243.186 305.466 244.023 306.105C245.038 306.882 246.174 307.074 246.95 307.098C247.324 307.109 247.617 307.422 247.605 307.796C247.597 308.062 247.438 308.284 247.214 308.39" fill="#0E1413"/>
<path d="M252.617 323.656C252.066 323.913 251.46 324.118 250.796 324.243C248.045 324.762 245.883 323.625 243.791 322.523C241.768 321.457 239.985 320.012 238.49 318.225C238.181 317.857 238.23 317.307 238.597 316.998C238.966 316.689 239.513 316.737 239.822 317.105C241.17 318.716 242.777 320.02 244.598 320.98C246.51 321.987 248.317 322.938 250.471 322.531C253.158 322.023 254.759 319.719 255.364 318.851C256.21 317.634 256.774 316.256 257.04 314.755C257.125 314.282 257.575 313.966 258.049 314.05C258.522 314.135 258.837 314.588 258.753 315.059C258.442 316.811 257.781 318.422 256.79 319.847C256.215 320.672 254.876 322.599 252.614 323.656" fill="#0E1413"/>
<path d="M229.8 302.196C231.293 305.406 229.906 309.219 226.703 310.713C223.499 312.208 219.694 310.818 218.201 307.609C216.709 304.4 218.096 300.587 221.299 299.093C224.503 297.599 228.308 298.987 229.8 302.196Z" fill="#DB694C"/>
<path d="M279.372 302.196C280.865 305.406 279.478 309.219 276.275 310.713C273.071 312.208 269.266 310.818 267.773 307.609C266.282 304.4 267.668 300.587 270.871 299.093C274.075 297.599 277.88 298.987 279.372 302.196Z" fill="#E46940"/>
<path d="M305.326 223.909C299.759 220.495 282.725 213.634 274.431 212.104C247.865 207.205 222.61 217.352 210.935 232.44C205.251 239.785 203.253 246.774 202.159 250.744C200.236 257.732 198.355 265.023 202.658 271.842C204.434 274.654 190.091 262.259 190.49 262.069C190.869 261.89 206.274 274.227 205.532 272.779C203.277 268.375 203.048 261.122 211.976 248.626C210.758 251.061 209.588 254.082 208.914 257.636C207.249 266.403 206.143 273.27 207.879 277.547L243.286 282.034C242.576 279.632 241.786 276.174 241.659 272.008C241.521 267.443 242.191 262.499 242.831 262.521C243.307 262.538 243.45 265.304 244.135 268.229C244.983 271.837 246.965 276.994 252.146 283.098L286.71 288.012L293.732 311.002L302.353 282.999L305.326 223.909Z" fill="#030000"/>
<path d="M266.242 340.328C262.741 341.564 259.422 342.56 252.872 343.458C248.884 344.005 244.78 343.504 243.097 343.377C235.532 342.807 225.372 336.921 220.658 332.465C210.643 323 208.8 310.87 207.66 300.86C206.835 293.612 207.134 280.768 210.935 264.852" stroke="#030000" stroke-width="3" stroke-linecap="round" stroke-linejoin="round"/>
<path d="M240.631 345.875L240.589 361.866" stroke="black" stroke-width="3" stroke-linecap="round" stroke-linejoin="round"/>
<path d="M332.103 333.448C327.729 331.684 321.053 329.511 312.66 328.811C308.164 328.435 304.161 328.102 299.698 329.275C289.18 332.04 283.197 341.318 280.874 345.505C280.052 349.025 281.338 351.006 285.04 351.224C284.153 355.651 285.534 357.467 290.749 357.311C288.917 361.441 292.72 364.167 296.477 363.107C296.865 365.929 298.418 367.446 303.246 365.292L319.139 358.027L334.26 353.87L332.099 333.448H332.103Z" fill="#FCD9B4"/>
<path d="M332.103 333.448C327.729 331.684 321.053 329.511 312.66 328.811C308.164 328.435 304.161 328.102 299.698 329.275C289.18 332.04 283.197 341.318 280.874 345.505C280.052 349.025 281.338 351.006 285.04 351.224C284.153 355.651 285.534 357.467 290.749 357.311C288.917 361.441 292.72 364.167 296.477 363.108C296.865 365.929 298.418 367.446 303.246 365.292L319.139 358.027L334.26 353.87L332.099 333.448H332.103Z" stroke="black" stroke-width="3" stroke-linecap="round" stroke-linejoin="round"/>
<path d="M285.019 351.162L289.069 346.74L292.193 344.573" fill="white"/>
<path d="M285.019 351.162L289.069 346.74L292.193 344.573" stroke="#0A0A0A" stroke-width="3" stroke-linecap="round" stroke-linejoin="round"/>
<path d="M296.558 362.966L300.608 358.544L303.734 356.377" fill="white"/>
<path d="M296.558 362.966L300.608 358.544L303.734 356.377" stroke="#0A0A0A" stroke-width="3" stroke-linecap="round" stroke-linejoin="round"/>
<path d="M290.923 357.164L294.974 352.742L298.098 350.576" fill="white"/>
<path d="M290.923 357.164L294.974 352.742L298.098 350.576" stroke="#0A0A0A" stroke-width="3" stroke-linecap="round" stroke-linejoin="round"/>
<path d="M230.4 375.725C231.537 376.706 237.361 379.577 240.872 380.052C263.709 383.144 282.751 378.798 283.335 372.511C283.403 371.777 283.039 371.912 281.483 366.792C280.55 363.724 280.232 362.203 278.859 361.382C277.727 360.705 276.492 360.873 276.081 360.919C268.11 361.804 232.054 354.386 229.945 360.919C229.851 361.213 229.927 361.226 229.636 362.929C229.259 365.137 228.782 367.201 228.247 369.111C225.928 370.963 223.294 370.252 218.651 371.764C218.132 371.933 204.695 373.461 201.36 373.829C180.472 376.138 144.499 376.955 144.499 376.955C102.989 376.379 88.2485 384.384 77.2261 390.269C68.8355 394.748 43.6328 420.211 48.7971 435.087C51.7326 443.54 55.7939 439.593 65.3916 441.388C82.4002 444.57 106.542 443.24 109.83 443.395C194.123 447.371 295.764 443.893 295.764 443.893C326.147 444.226 349.209 444.733 362.307 445.052C401.633 446.01 420.676 446.972 432.205 433.922C434.395 431.443 439.949 424.344 439.611 415.372C439.179 403.925 429.426 396.6 419.243 388.012C376.79 352.204 376.509 336.283 351.197 330.972C344.754 329.622 336.385 328.894 326.201 330.509C326.885 332.434 329.097 339.398 326.124 347.396C323.069 355.615 312.041 358.347 313.008 361.309C313.263 362.09 314.051 362.126 316.866 363.628C319.82 365.204 322.052 366.816 323.501 367.957C323.995 369.634 324.828 371.943 326.279 374.449C331.276 383.083 338.968 386.067 338.469 387.125C337.967 388.188 330.098 385.4 317.792 381.252C303.079 376.291 299.326 375.219 296.344 374.451C288.203 372.351 287.656 372.524 283.296 372.036" fill="#8232AE"/>
<path d="M230.4 375.725C231.537 376.706 237.361 379.577 240.872 380.052C263.709 383.144 282.751 378.798 283.335 372.511C283.403 371.777 283.039 371.912 281.483 366.792C280.55 363.724 280.232 362.203 278.859 361.382C277.727 360.705 276.492 360.873 276.081 360.919C268.11 361.804 232.054 354.386 229.945 360.919C229.851 361.213 229.927 361.226 229.636 362.929C229.259 365.137 228.782 367.201 228.247 369.111C225.928 370.963 223.294 370.252 218.651 371.764C218.132 371.933 204.695 373.461 201.36 373.829C180.472 376.138 144.499 376.955 144.499 376.955C102.989 376.379 88.2485 384.384 77.2261 390.269C68.8355 394.748 43.6328 420.211 48.7971 435.087C51.7326 443.54 55.7939 439.593 65.3916 441.388C82.4002 444.57 106.542 443.24 109.83 443.395C194.123 447.371 295.764 443.893 295.764 443.893C326.147 444.226 349.209 444.733 362.307 445.052C401.633 446.01 420.676 446.972 432.205 433.922C434.395 431.443 439.949 424.344 439.611 415.372C439.179 403.925 429.426 396.6 419.243 388.012C376.79 352.204 376.509 336.283 351.197 330.972C344.754 329.622 336.385 328.894 326.201 330.509C326.885 332.434 329.097 339.398 326.124 347.396C323.069 355.615 312.041 358.347 313.008 361.309C313.263 362.09 314.051 362.126 316.866 363.628C319.82 365.204 322.052 366.816 323.501 367.957C323.995 369.634 324.828 371.943 326.279 374.449C331.276 383.083 338.968 386.067 338.469 387.125C337.967 388.188 330.098 385.4 317.792 381.252C303.079 376.291 299.326 375.219 296.344 374.451C288.203 372.351 287.656 372.524 283.296 372.036" stroke="black" stroke-width="3" stroke-linecap="round" stroke-linejoin="round"/>
<path d="M102.889 392.258C133.228 394.313 158.354 398.548 177.184 402.563C206.534 408.822 223.096 415.086 238.635 424.126C243.529 426.974 249.103 430.922 251.753 432.766" fill="#8232AE"/>
<path d="M102.889 392.258C133.228 394.313 158.354 398.548 177.184 402.563C206.534 408.822 223.096 415.086 238.635 424.126C243.529 426.974 249.103 430.922 251.753 432.766" stroke="black" stroke-width="3" stroke-linecap="round" stroke-linejoin="round"/>
<path d="M175.231 373.723L172.057 401.025L190.419 405.116L192.442 372.864L175.231 373.723Z" fill="#4B5FC8"/>
<path d="M323.249 379.694L328.451 424.452L306.71 425.306L305.763 375.355L323.249 379.694Z" fill="#4B5FC8"/>
<path d="M44.8252 432.086L47.4553 418.033C86.6045 417.999 164.916 418.035 184.111 418.891C185.104 418.935 186.93 419.026 189.298 419.241C193.207 419.595 206.339 420.993 223.553 428.051C233.225 432.017 236.386 434.573 238.597 436.862C241.427 439.793 243.156 442.758 244.174 444.824" fill="white"/>
<path d="M44.8252 432.086L47.4553 418.033C86.6045 417.999 164.916 418.035 184.111 418.891C185.104 418.935 186.93 419.026 189.298 419.241C193.207 419.595 206.339 420.993 223.553 428.051C233.225 432.017 236.386 434.573 238.597 436.862C241.427 439.793 243.156 442.758 244.174 444.824" stroke="#0A0A0A" stroke-width="3" stroke-linecap="round" stroke-linejoin="round"/>
<path d="M440.282 432.086L437.652 418.033C398.503 417.999 320.192 418.035 300.996 418.891C300.004 418.935 298.178 419.026 295.809 419.241C291.901 419.595 278.768 420.993 261.555 428.051C251.882 432.017 248.721 434.573 246.51 436.862C243.68 439.793 241.952 442.758 240.932 444.824" fill="white"/>
<path d="M440.282 432.086L437.652 418.033C398.503 417.999 320.192 418.035 300.996 418.891C300.004 418.935 298.178 419.026 295.809 419.241C291.901 419.595 278.768 420.993 261.555 428.051C251.882 432.017 248.721 434.573 246.51 436.862C243.68 439.793 241.952 442.758 240.932 444.824" stroke="#0A0A0A" stroke-width="3" stroke-linecap="round" stroke-linejoin="round"/>
<path d="M241.299 454.227L34.1911 443.979C32.7908 443.909 31.7121 442.716 31.7804 441.313L32.141 434.003C32.2109 432.6 33.4016 431.519 34.802 431.588L241.91 441.836C243.31 441.906 244.389 443.099 244.32 444.501L243.96 451.812C243.89 453.215 242.699 454.295 241.299 454.227Z" fill="black"/>
<path d="M247.506 454.211L453.957 443.995C455.538 443.917 456.758 442.57 456.678 440.986L456.35 434.333C456.272 432.75 454.927 431.529 453.347 431.607L246.894 441.823C245.313 441.901 244.095 443.248 244.173 444.832L244.501 451.485C244.579 453.068 245.924 454.289 247.504 454.211" fill="black"/>
<path d="M252.753 441.388H235.511V454.326H252.753V441.388Z" fill="#B7B7B7"/>
<path d="M53.6658 425.306C80.3761 425.597 107.07 426.266 133.748 427.316C147.685 427.864 163.509 426.619 184.821 429.79C202.176 432.371 216.153 436.348 225.403 439.373" fill="white"/>
<path d="M53.6658 425.306C80.3761 425.597 107.07 426.266 133.748 427.316C147.685 427.864 163.509 426.619 184.821 429.79C202.176 432.371 216.153 436.348 225.403 439.373" stroke="#0A0A0A" stroke-width="3" stroke-linecap="round" stroke-linejoin="round"/>
<path d="M432.145 425.734C405.435 426.025 378.741 426.694 352.063 427.744C338.126 428.292 322.302 427.047 300.99 430.218C283.635 432.799 269.658 436.776 260.41 439.801" fill="white"/>
<path d="M432.145 425.734C405.435 426.025 378.741 426.694 352.063 427.744C338.126 428.292 322.302 427.047 300.99 430.218C283.635 432.799 269.658 436.776 260.41 439.801" stroke="#0A0A0A" stroke-width="3" stroke-linecap="round" stroke-linejoin="round"/>
<path d="M165.785 193.12L190.793 181.085C188.697 170.969 201.823 160.742 201.852 141.599C201.87 129.505 196.444 118.086 187.355 110.128C172.925 97.4941 152.568 93.144 134.147 101.26C112.181 109.993 98.0995 134.454 113.906 164.329C130.738 191.53 152.368 183.464 165.785 193.121" fill="#FF8E47"/>
<path d="M165.785 193.12L190.898 181.066C193.813 187.084 198.444 194.85 197.684 197.127C194.789 203.604 179.036 211.607 173.535 207.816C171.389 206.103 168.434 199.034 165.785 193.12Z" fill="black"/>
<path d="M181.788 204.702C186.834 213.345 191.572 215.814 193.346 214.739C196.1 213.07 192.474 205.589 191.782 197.623" stroke="black" stroke-width="3" stroke-miterlimit="10"/>
<path d="M169.71 194.747C134.995 153.824 135.142 127.403 157.727 142.966C156.252 129.279 162.555 121.227 169.864 138.635C178.391 155.972 184.425 168.603 189.61 182.935" stroke="black" stroke-width="3" stroke-miterlimit="10"/>
<path d="M180.963 188.07C172.743 170.935 164.701 154.591 157.727 142.968" stroke="black" stroke-width="3" stroke-miterlimit="10"/>
<path d="M141.713 101.751C142.587 99.5154 148.364 99.9401 153.38 100.31C161.29 100.891 167.866 101.376 169.913 105.591C170.943 107.711 170.798 110.719 169.359 111.778C167.749 112.963 165.634 110.894 160.828 109.511C152.669 107.161 148.776 110.25 144.476 106.767C142.952 105.534 141.12 103.263 141.711 101.751" fill="white"/>
<path d="M176.429 107.548C174.202 107.416 172.796 109.459 172.705 109.596C171.204 111.853 172.442 114.53 172.678 115.039C173.396 116.594 175.223 118.926 177.254 118.587C178.776 118.335 179.614 116.714 179.982 116.006C180.196 115.591 181.318 113.306 180.254 110.823C180.079 110.413 178.914 107.696 176.429 107.548Z" fill="white"/>
<path d="M168.046 193.909C167.02 193.463 165.986 193.011 164.95 192.549C161.149 190.856 159.238 189.911 158.127 189.417C154.35 187.74 148.544 187.022 148.031 186.963C141.965 186.264 130.653 181.972 122.953 175.505C112.683 166.876 109.728 155.256 108.851 151.708C107.671 146.945 104.965 135.281 110.8 122.677C115.383 112.777 122.862 107.421 126.295 105.268" stroke="black" stroke-width="3" stroke-linecap="round" stroke-linejoin="round"/>
<path d="M190.874 182.561C190.633 182.174 190.497 181.253 190.252 180.38C189.503 177.711 190.898 175.321 191.316 174.313C193.434 169.19 198.452 158.096 198.867 157.167C202.245 149.614 201.935 142.564 201.794 139.358C201.282 127.766 195.372 118.973 191.499 114.284" stroke="black" stroke-width="3" stroke-linecap="round" stroke-linejoin="round"/>
<path d="M140.993 98.8286C144.341 97.927 148.633 97.1442 153.634 97.1377C163.944 97.1247 171.947 100.417 176.416 102.705" stroke="black" stroke-width="3" stroke-linecap="round" stroke-linejoin="round"/>
</svg>
