<svg width="32" height="32" viewBox="0 0 32 32" fill="none" xmlns="http://www.w3.org/2000/svg">
<path d="M11.979 27.5507H7.59233C5.97633 27.5507 4.66699 26.2413 4.66699 24.6253V16.02C4.66798 15.3931 4.80291 14.7737 5.06276 14.2032C5.3226 13.6326 5.70136 13.1242 6.17366 12.712L14.0803 5.82535C14.6127 5.36218 15.2946 5.10709 16.0003 5.10709C16.706 5.10709 17.3879 5.36218 17.9203 5.82535L25.827 12.7133C26.2991 13.1254 26.6778 13.6336 26.9376 14.2039C27.1975 14.7741 27.3325 15.3933 27.3337 16.02V24.6253C27.3337 25.401 27.0256 26.1448 26.4773 26.6934C25.929 27.242 25.1853 27.5503 24.4097 27.5507H20.387V18.776C20.387 17.5653 19.4057 16.5827 18.1937 16.5827H14.1737C12.9617 16.5827 11.9803 17.5653 11.9803 18.776L11.979 27.5507ZM11.979 27.5507H20.3883" stroke="white" stroke-width="1.5" stroke-linejoin="round"/>
</svg>
