<svg width="162" height="38" viewBox="0 0 162 38" fill="none" xmlns="http://www.w3.org/2000/svg">
<path d="M0.728 24.28C0.728 17.08 5.768 10.936 13.352 10.936C21.08 10.936 25.736 16.648 25.736 24.328V26.008H7.544C8.072 29.368 10.088 32.056 13.736 32.056C16.136 32.056 17.96 30.904 19.208 28.888L25.208 30.808C23.384 35.368 18.44 37.72 13.688 37.72C6.056 37.72 0.728 31.96 0.728 24.28ZM13.352 16.12C10.136 16.12 8.216 18.52 7.64 21.496H18.824C18.392 18.52 16.568 16.12 13.352 16.12ZM29.9067 11.656H36.0987L36.2907 14.92C37.8747 12.232 40.7067 10.936 43.7787 10.936C50.0187 10.936 53.0427 15.88 53.0427 21.784V37H46.3227V22.648C46.3227 19.72 45.1227 16.984 41.8107 16.984C38.6907 16.984 36.6267 19.336 36.6267 22.456V37H29.9067V11.656ZM56.8707 30.664L62.9187 29.368C63.6387 31.48 65.4627 32.584 67.6227 32.584C69.3027 32.584 71.3667 31.912 71.3667 29.896C71.3667 27.88 68.9187 27.304 67.3347 27.064L65.9907 26.824C61.7667 26.104 57.5907 23.992 57.5907 19.144C57.5907 13.72 62.3427 10.936 67.3827 10.936C71.8947 10.936 76.3107 13.096 77.4147 17.848L71.4147 19.096C70.7427 17.224 69.3987 16.024 67.3347 16.024C65.7987 16.024 63.9267 16.792 63.9267 18.568C63.9267 20.392 66.7107 20.968 68.0547 21.208L69.3987 21.448C73.6707 22.216 77.7987 24.328 77.7987 29.224C77.7987 34.84 72.7107 37.72 67.5267 37.72C62.9187 37.72 58.1667 35.464 56.8707 30.664ZM81.9849 37V11.656H88.7049V37H81.9849ZM85.3449 8.632C83.2329 8.632 81.5049 6.952 81.5049 4.792C81.5049 2.632 83.1369 0.951997 85.3449 0.951997C87.5529 0.951997 89.1849 2.536 89.1849 4.792C89.1849 6.952 87.5529 8.632 85.3449 8.632ZM94.0786 11.656H100.271L100.463 14.92C102.047 12.232 104.879 10.936 107.951 10.936C114.191 10.936 117.215 15.88 117.215 21.784V37H110.495V22.648C110.495 19.72 109.295 16.984 105.983 16.984C102.863 16.984 100.799 19.336 100.799 22.456V37H94.0786V11.656Z" fill="#090830"/>
<path d="M130.403 37.72C125.795 37.72 121.379 34.84 121.379 29.8C121.379 24.136 126.755 21.688 131.795 21.688C133.907 21.688 135.587 22.072 137.555 22.792V21.304C137.555 18.472 135.923 16.456 132.995 16.456C130.931 16.456 129.011 17.464 128.291 19.48L122.291 18.28C123.395 13.432 128.435 10.936 133.091 10.936C139.427 10.936 144.083 15.016 144.083 21.64V37H138.083L137.891 34.024C136.355 36.568 133.283 37.72 130.403 37.72ZM128.003 29.464C128.003 31.624 130.163 32.536 132.035 32.536C134.963 32.536 137.555 30.52 137.555 27.4V27.16C136.835 26.872 136.115 26.632 135.299 26.44C134.483 26.296 133.715 26.2 132.899 26.2C130.835 26.2 128.003 26.92 128.003 29.464ZM149.438 37V11.656H156.158V37H149.438ZM148.19 8.056L153.662 1.192H161.15L154.526 8.056H148.19Z" fill="#FF6E27"/>
</svg>
