<svg width="28" height="28" viewBox="0 0 28 28" fill="none" xmlns="http://www.w3.org/2000/svg">
<path d="M5.99979 11.3333V15.3333C5.99978 15.5407 5.95139 15.7452 5.85846 15.9307L4.15979 19.3333H23.8451L22.1438 15.9307C22.0499 15.7455 22.0006 15.5409 21.9998 15.3333V11.3333C21.9998 9.21159 21.1569 7.17676 19.6566 5.67647C18.1564 4.17618 16.1215 3.33332 13.9998 3.33332C11.8781 3.33332 9.84323 4.17618 8.34294 5.67647C6.84265 7.17676 5.99979 9.21159 5.99979 11.3333ZM8.66646 22H1.99979C1.77242 22 1.54883 21.9418 1.35027 21.8311C1.1517 21.7203 0.984764 21.5606 0.865316 21.3671C0.745869 21.1736 0.67788 20.9528 0.667812 20.7257C0.657744 20.4986 0.70593 20.2726 0.807793 20.0693L3.33313 15.0187V11.3333C3.33313 8.50435 4.45693 5.79124 6.45732 3.79085C8.45771 1.79046 11.1708 0.666656 13.9998 0.666656C16.8288 0.666656 19.5419 1.79046 21.5423 3.79085C23.5427 5.79124 24.6665 8.50435 24.6665 11.3333V15.0187L27.1918 20.0693C27.2937 20.2726 27.3418 20.4986 27.3318 20.7257C27.3217 20.9528 27.2537 21.1736 27.1343 21.3671C27.0148 21.5606 26.8479 21.7203 26.6493 21.8311C26.4508 21.9418 26.2272 22 25.9998 22H19.3331C19.3331 23.4145 18.7712 24.771 17.771 25.7712C16.7708 26.7714 15.4143 27.3333 13.9998 27.3333C12.5853 27.3333 11.2287 26.7714 10.2286 25.7712C9.22836 24.771 8.66646 23.4145 8.66646 22ZM16.6665 22H11.3331C11.3331 22.7072 11.6141 23.3855 12.1142 23.8856C12.6143 24.3857 13.2925 24.6667 13.9998 24.6667C14.707 24.6667 15.3853 24.3857 15.8854 23.8856C16.3855 23.3855 16.6665 22.7072 16.6665 22Z" fill="#055FCF"/>
</svg>
