<svg width="32" height="32" viewBox="0 0 32 32" fill="none" xmlns="http://www.w3.org/2000/svg">
<path d="M8.00028 13.3333V17.3333C8.00027 17.5407 7.95187 17.7452 7.85895 17.9307L6.16028 21.3333H25.8456L24.1443 17.9307C24.0504 17.7455 24.0011 17.5409 24.0003 17.3333V13.3333C24.0003 11.2116 23.1574 9.17676 21.6571 7.67647C20.1568 6.17618 18.122 5.33332 16.0003 5.33332C13.8785 5.33332 11.8437 6.17618 10.3434 7.67647C8.84314 9.17676 8.00028 11.2116 8.00028 13.3333ZM10.6669 24H4.00028C3.77291 24 3.54932 23.9418 3.35075 23.8311C3.15219 23.7203 2.98525 23.5606 2.8658 23.3671C2.74636 23.1736 2.67837 22.9528 2.6683 22.7257C2.65823 22.4986 2.70642 22.2726 2.80828 22.0693L5.33361 17.0187V13.3333C5.33361 10.5043 6.45742 7.79124 8.45781 5.79085C10.4582 3.79046 13.1713 2.66666 16.0003 2.66666C18.8293 2.66666 21.5424 3.79046 23.5428 5.79085C25.5431 7.79124 26.6669 10.5043 26.6669 13.3333V17.0187L29.1923 22.0693C29.2941 22.2726 29.3423 22.4986 29.3323 22.7257C29.3222 22.9528 29.2542 23.1736 29.1348 23.3671C29.0153 23.5606 28.8484 23.7203 28.6498 23.8311C28.4512 23.9418 28.2276 24 28.0003 24H21.3336C21.3336 25.4145 20.7717 26.771 19.7715 27.7712C18.7713 28.7714 17.4148 29.3333 16.0003 29.3333C14.5858 29.3333 13.2292 28.7714 12.229 27.7712C11.2289 26.771 10.6669 25.4145 10.6669 24ZM18.6669 24H13.3336C13.3336 24.7072 13.6146 25.3855 14.1147 25.8856C14.6148 26.3857 15.293 26.6667 16.0003 26.6667C16.7075 26.6667 17.3858 26.3857 17.8859 25.8856C18.386 25.3855 18.6669 24.7072 18.6669 24Z" fill="#FF8E47"/>
</svg>
