<svg width="220" height="32" viewBox="0 0 220 32" fill="none" xmlns="http://www.w3.org/2000/svg">
<path d="M14 2L13.7586 2.724C13.5224 3.43267 13.2018 4.11041 12.804 4.74267C12.2702 5.58421 11.5406 6.28402 10.6776 6.78229C9.81451 7.28057 8.84367 7.5625 7.84798 7.604C7.10201 7.63227 6.35534 7.57094 5.62398 7.42133L4.87598 7.268L2.87598 10.732L3.38264 11.304C3.88131 11.8667 4.30664 12.4827 4.65331 13.1387C5.11521 14.0217 5.35647 15.0034 5.35647 16C5.35647 16.9966 5.11521 17.9783 4.65331 18.8613C4.30466 19.5215 3.87805 20.1375 3.38264 20.696L2.87598 21.268L4.87598 24.732L5.62264 24.5787C6.35487 24.4288 7.10245 24.3675 7.84931 24.396C8.84477 24.4377 9.81535 24.7197 10.6781 25.218C11.5409 25.7163 12.2703 26.416 12.804 27.2573C13.1986 27.884 13.52 28.5627 13.7586 29.276L14 30H18L18.2413 29.276C18.4813 28.5596 18.7995 27.8867 19.196 27.2573C19.7298 26.4158 20.4594 25.716 21.3224 25.2177C22.1854 24.7194 23.1563 24.4375 24.152 24.396C24.8979 24.3677 25.6446 24.4291 26.376 24.5787L27.124 24.732L29.124 21.268L28.6173 20.696C28.1219 20.1375 27.6953 19.5215 27.3466 18.8613C26.8847 17.9783 26.6435 16.9966 26.6435 16C26.6435 15.0034 26.8847 14.0217 27.3466 13.1387C27.6933 12.4827 28.1186 11.8667 28.6173 11.304L29.124 10.732L27.124 7.268L26.3773 7.42133C25.6451 7.57116 24.8975 7.63249 24.1506 7.604C23.1552 7.56229 22.1846 7.28026 21.3218 6.78199C20.459 6.28372 19.7296 5.58403 19.196 4.74267C18.7981 4.11041 18.4776 3.43267 18.2413 2.724L18 2H14Z" stroke="white" stroke-width="1.5"/>
<path d="M20.6692 16C20.6692 17.2384 20.1773 18.426 19.3016 19.3017C18.4259 20.1774 17.2383 20.6693 15.9999 20.6693C14.7615 20.6693 13.5739 20.1774 12.6982 19.3017C11.8225 18.426 11.3306 17.2384 11.3306 16C11.3306 14.7616 11.8225 13.5739 12.6982 12.6983C13.5739 11.8226 14.7615 11.3307 15.9999 11.3307C17.2383 11.3307 18.4259 11.8226 19.3016 12.6983C20.1773 13.5739 20.6692 14.7616 20.6692 16Z" stroke="white" stroke-width="1.5"/>
<path d="M45.474 21.14C44.7833 21.14 44.144 21.014 43.556 20.762C42.9773 20.5007 42.4733 20.1413 42.044 19.684C41.6147 19.2173 41.2833 18.6713 41.05 18.046C40.8167 17.4113 40.7 16.716 40.7 15.96C40.7 15.204 40.8167 14.5133 41.05 13.888C41.2833 13.2533 41.61 12.7073 42.03 12.25C42.4593 11.7833 42.9633 11.424 43.542 11.172C44.13 10.9107 44.7693 10.78 45.46 10.78C46.216 10.78 46.8927 10.934 47.49 11.242C48.0967 11.55 48.5913 11.984 48.974 12.544C49.366 13.104 49.6087 13.7573 49.702 14.504H48.554C48.442 13.6733 48.1107 13.02 47.56 12.544C47.0187 12.0587 46.3233 11.816 45.474 11.816C44.7553 11.816 44.1253 11.9933 43.584 12.348C43.0427 12.6933 42.6227 13.1787 42.324 13.804C42.0253 14.42 41.876 15.1387 41.876 15.96C41.876 16.7813 42.0253 17.5047 42.324 18.13C42.6227 18.746 43.0427 19.2313 43.584 19.586C44.1253 19.9313 44.7507 20.104 45.46 20.104C46.328 20.104 47.0373 19.8613 47.588 19.376C48.148 18.8907 48.4793 18.2373 48.582 17.416H49.73C49.6367 18.1627 49.394 18.816 49.002 19.376C48.6193 19.936 48.1247 20.37 47.518 20.678C46.9207 20.986 46.2393 21.14 45.474 21.14ZM54.4239 21.14C53.7239 21.14 53.1079 20.9767 52.5759 20.65C52.0439 20.3233 51.6286 19.88 51.3299 19.32C51.0406 18.7507 50.8959 18.1113 50.8959 17.402C50.8959 16.6833 51.0453 16.0487 51.3439 15.498C51.6426 14.9473 52.0533 14.5133 52.5759 14.196C53.1079 13.8787 53.7239 13.72 54.4239 13.72C55.1333 13.72 55.7493 13.8787 56.2719 14.196C56.8039 14.5133 57.2146 14.9473 57.5039 15.498C57.8026 16.0487 57.9519 16.6833 57.9519 17.402C57.9519 18.1113 57.8026 18.7507 57.5039 19.32C57.2146 19.88 56.8039 20.3233 56.2719 20.65C55.7493 20.9767 55.1333 21.14 54.4239 21.14ZM54.4239 20.188C54.9093 20.188 55.3293 20.0713 55.6839 19.838C56.0386 19.5953 56.3139 19.264 56.5099 18.844C56.7059 18.424 56.8039 17.9387 56.8039 17.388C56.8039 16.5667 56.5846 15.9087 56.1459 15.414C55.7166 14.9193 55.1426 14.672 54.4239 14.672C53.7146 14.672 53.1406 14.9193 52.7019 15.414C52.2633 15.9087 52.0439 16.5667 52.0439 17.388C52.0439 17.9387 52.1419 18.424 52.3379 18.844C52.5339 19.264 52.8093 19.5953 53.1639 19.838C53.5279 20.0713 53.9479 20.188 54.4239 20.188ZM59.6317 21V13.86H60.6817V15.54H60.7517V21H59.6317ZM64.7417 21V16.324C64.7417 15.7827 64.6064 15.3767 64.3357 15.106C64.0651 14.8353 63.6637 14.7 63.1317 14.7C62.6651 14.7 62.2497 14.8027 61.8857 15.008C61.5311 15.2133 61.2511 15.498 61.0457 15.862C60.8497 16.226 60.7517 16.6507 60.7517 17.136L60.5697 15.442C60.8124 14.91 61.1811 14.49 61.6757 14.182C62.1797 13.874 62.7491 13.72 63.3837 13.72C64.1304 13.72 64.7277 13.9347 65.1757 14.364C65.6331 14.784 65.8617 15.3393 65.8617 16.03V21H64.7417ZM68.4092 21V12.852C68.4092 12.1987 68.5958 11.69 68.9692 11.326C69.3518 10.962 69.9305 10.78 70.7052 10.78C70.8918 10.78 71.0365 10.7893 71.1392 10.808C71.2512 10.8267 71.3445 10.85 71.4192 10.878V11.76C71.3538 11.7413 71.2605 11.7227 71.1392 11.704C71.0272 11.6853 70.9058 11.676 70.7752 11.676C70.3458 11.676 70.0285 11.7833 69.8232 11.998C69.6272 12.2127 69.5292 12.516 69.5292 12.908V21H68.4092ZM72.9172 21V13.86H74.0372V21H72.9172ZM66.9392 14.812V13.86H73.5472V14.812H66.9392ZM72.8332 12.236V10.92H74.1212V12.236H72.8332ZM78.9483 24.01C78.099 24.01 77.3897 23.8093 76.8203 23.408C76.2603 23.016 75.9197 22.4933 75.7983 21.84H76.8623C76.965 22.2133 77.1937 22.5073 77.5483 22.722C77.9123 22.946 78.4023 23.058 79.0183 23.058C79.7463 23.058 80.297 22.8573 80.6703 22.456C81.0437 22.064 81.2303 21.4853 81.2303 20.72V19.194L81.3703 19.222C81.2117 19.7633 80.8943 20.1973 80.4183 20.524C79.9423 20.8413 79.3777 21 78.7243 21C78.099 21 77.5483 20.8507 77.0723 20.552C76.5963 20.244 76.2277 19.8193 75.9663 19.278C75.705 18.7367 75.5743 18.1067 75.5743 17.388C75.5743 16.66 75.7097 16.0207 75.9803 15.47C76.251 14.9193 76.629 14.4947 77.1143 14.196C77.609 13.888 78.183 13.734 78.8363 13.734C79.5083 13.734 80.0683 13.8973 80.5163 14.224C80.9737 14.5507 81.277 15.0173 81.4263 15.624L81.3003 15.638V13.86H82.3503V20.72C82.3503 21.7373 82.047 22.54 81.4403 23.128C80.8337 23.716 80.003 24.01 78.9483 24.01ZM79.0043 20.034C79.7043 20.034 80.2597 19.7913 80.6703 19.306C81.081 18.8207 81.2863 18.1627 81.2863 17.332C81.2863 16.52 81.081 15.8807 80.6703 15.414C80.2597 14.938 79.7043 14.7 79.0043 14.7C78.295 14.7 77.735 14.938 77.3243 15.414C76.923 15.89 76.7223 16.5433 76.7223 17.374C76.7223 18.186 76.9277 18.8347 77.3383 19.32C77.749 19.796 78.3043 20.034 79.0043 20.034ZM86.9206 21.14C86.4539 21.14 86.0386 21.0467 85.6746 20.86C85.3106 20.664 85.0259 20.3933 84.8206 20.048C84.6152 19.6933 84.5126 19.2873 84.5126 18.83V13.86H85.6326V18.536C85.6326 19.0773 85.7632 19.4833 86.0246 19.754C86.2952 20.0247 86.6779 20.16 87.1726 20.16C87.6206 20.16 88.0172 20.0573 88.3626 19.852C88.7079 19.6467 88.9786 19.362 89.1746 18.998C89.3799 18.6247 89.4826 18.2 89.4826 17.724L89.6646 19.418C89.4312 19.95 89.0672 20.37 88.5726 20.678C88.0779 20.986 87.5272 21.14 86.9206 21.14ZM89.5526 21V19.32H89.4826V13.86H90.6026V21H89.5526ZM92.8407 21V13.86H93.8907V15.68H93.9607V21H92.8407ZM93.9607 17.276L93.7787 15.582C93.9467 14.9753 94.2454 14.5133 94.6747 14.196C95.104 13.8787 95.5987 13.72 96.1587 13.72C96.392 13.72 96.5507 13.7387 96.6347 13.776V14.854C96.588 14.8353 96.5227 14.826 96.4387 14.826C96.3547 14.8167 96.252 14.812 96.1307 14.812C95.4214 14.812 94.88 15.0267 94.5067 15.456C94.1427 15.876 93.9607 16.4827 93.9607 17.276ZM102.268 21C102.23 20.8413 102.202 20.6593 102.184 20.454C102.174 20.2487 102.17 19.9873 102.17 19.67H102.1V16.254C102.1 15.7127 101.974 15.316 101.722 15.064C101.479 14.8027 101.082 14.672 100.532 14.672C99.9903 14.672 99.5563 14.784 99.2296 15.008C98.9123 15.2227 98.735 15.5307 98.6976 15.932H97.6196C97.6663 15.2413 97.9556 14.7 98.4876 14.308C99.0196 13.916 99.715 13.72 100.574 13.72C101.46 13.72 102.118 13.93 102.548 14.35C102.977 14.77 103.192 15.4 103.192 16.24V19.67C103.192 19.8753 103.206 20.09 103.234 20.314C103.262 20.5287 103.299 20.7573 103.346 21H102.268ZM99.8176 21.14C99.0803 21.14 98.4923 20.9627 98.0536 20.608C97.6243 20.244 97.4096 19.7493 97.4096 19.124C97.4096 18.4987 97.6243 18.0133 98.0536 17.668C98.483 17.3227 99.1083 17.08 99.9296 16.94L102.422 16.52V17.444L100.098 17.808C99.575 17.892 99.1783 18.032 98.9076 18.228C98.637 18.424 98.5016 18.7087 98.5016 19.082C98.5016 19.446 98.623 19.7213 98.8656 19.908C99.1176 20.0947 99.4863 20.188 99.9716 20.188C100.597 20.188 101.106 20.048 101.498 19.768C101.899 19.4787 102.1 19.1053 102.1 18.648L102.282 19.642C102.132 20.118 101.838 20.4867 101.4 20.748C100.97 21.0093 100.443 21.14 99.8176 21.14ZM108.178 21.14C107.525 21.14 106.942 20.9813 106.428 20.664C105.924 20.3373 105.523 19.894 105.224 19.334C104.935 18.7647 104.79 18.1207 104.79 17.402C104.79 16.6833 104.935 16.0487 105.224 15.498C105.523 14.9473 105.924 14.5133 106.428 14.196C106.942 13.8787 107.52 13.72 108.164 13.72C108.696 13.72 109.172 13.8227 109.592 14.028C110.022 14.2333 110.372 14.5273 110.642 14.91C110.922 15.2833 111.1 15.722 111.174 16.226H110.138C110.045 15.7687 109.83 15.3953 109.494 15.106C109.158 14.8167 108.724 14.672 108.192 14.672C107.735 14.672 107.338 14.784 107.002 15.008C106.666 15.232 106.405 15.5493 106.218 15.96C106.032 16.3707 105.938 16.8513 105.938 17.402C105.938 17.9527 106.032 18.438 106.218 18.858C106.405 19.278 106.666 19.6047 107.002 19.838C107.348 20.0713 107.749 20.188 108.206 20.188C108.72 20.188 109.149 20.048 109.494 19.768C109.84 19.4787 110.059 19.1053 110.152 18.648H111.188C111.104 19.1427 110.918 19.5813 110.628 19.964C110.348 20.3373 109.998 20.6267 109.578 20.832C109.158 21.0373 108.692 21.14 108.178 21.14ZM107.996 24.01C107.511 24.01 107.119 23.898 106.82 23.674C106.522 23.45 106.363 23.1467 106.344 22.764H107.128C107.147 22.9507 107.245 23.0813 107.422 23.156C107.6 23.24 107.8 23.282 108.024 23.282C108.239 23.282 108.421 23.24 108.57 23.156C108.729 23.0813 108.808 22.9693 108.808 22.82C108.808 22.6613 108.715 22.526 108.528 22.414C108.351 22.302 108.001 22.2367 107.478 22.218L107.828 20.832H108.64L108.402 21.616C108.86 21.7093 109.177 21.8633 109.354 22.078C109.541 22.302 109.634 22.5493 109.634 22.82C109.634 23.2027 109.48 23.4967 109.172 23.702C108.874 23.9073 108.482 24.01 107.996 24.01ZM115.756 21.14C115.056 21.14 114.44 20.9767 113.908 20.65C113.376 20.3233 112.961 19.88 112.662 19.32C112.373 18.7507 112.228 18.1113 112.228 17.402C112.228 16.6833 112.377 16.0487 112.676 15.498C112.975 14.9473 113.385 14.5133 113.908 14.196C114.44 13.8787 115.056 13.72 115.756 13.72C116.465 13.72 117.081 13.8787 117.604 14.196C118.136 14.5133 118.547 14.9473 118.836 15.498C119.135 16.0487 119.284 16.6833 119.284 17.402C119.284 18.1113 119.135 18.7507 118.836 19.32C118.547 19.88 118.136 20.3233 117.604 20.65C117.081 20.9767 116.465 21.14 115.756 21.14ZM115.756 20.188C116.241 20.188 116.661 20.0713 117.016 19.838C117.371 19.5953 117.646 19.264 117.842 18.844C118.038 18.424 118.136 17.9387 118.136 17.388C118.136 16.5667 117.917 15.9087 117.478 15.414C117.049 14.9193 116.475 14.672 115.756 14.672C115.047 14.672 114.473 14.9193 114.034 15.414C113.595 15.9087 113.376 16.5667 113.376 17.388C113.376 17.9387 113.474 18.424 113.67 18.844C113.866 19.264 114.141 19.5953 114.496 19.838C114.86 20.0713 115.28 20.188 115.756 20.188ZM116.834 12.698C116.554 12.698 116.311 12.6513 116.106 12.558C115.91 12.4553 115.728 12.3433 115.56 12.222C115.401 12.0913 115.243 11.9793 115.084 11.886C114.935 11.7833 114.776 11.732 114.608 11.732C114.421 11.732 114.263 11.7973 114.132 11.928C114.001 12.0587 113.936 12.2687 113.936 12.558H113.124C113.124 12.2033 113.189 11.9047 113.32 11.662C113.46 11.41 113.651 11.2187 113.894 11.088C114.137 10.9573 114.412 10.892 114.72 10.892C115.009 10.892 115.252 10.9433 115.448 11.046C115.644 11.1393 115.817 11.2513 115.966 11.382C116.115 11.5033 116.26 11.6153 116.4 11.718C116.549 11.8113 116.713 11.858 116.89 11.858C117.086 11.858 117.249 11.7927 117.38 11.662C117.511 11.5313 117.576 11.3213 117.576 11.032H118.388C118.388 11.368 118.318 11.662 118.178 11.914C118.047 12.166 117.865 12.362 117.632 12.502C117.399 12.6327 117.133 12.698 116.834 12.698ZM123.89 21.14C123.208 21.14 122.606 20.9813 122.084 20.664C121.561 20.3373 121.15 19.894 120.852 19.334C120.553 18.774 120.404 18.13 120.404 17.402C120.404 16.674 120.548 16.0347 120.838 15.484C121.136 14.924 121.552 14.49 122.084 14.182C122.616 13.874 123.227 13.72 123.918 13.72C124.58 13.72 125.154 13.8647 125.64 14.154C126.134 14.4433 126.512 14.8493 126.774 15.372C127.044 15.8947 127.18 16.5107 127.18 17.22C127.18 17.3133 127.175 17.402 127.166 17.486C127.166 17.57 127.156 17.6633 127.138 17.766H121.244V16.828H126.452L126.088 17.346C126.088 16.4873 125.896 15.8293 125.514 15.372C125.14 14.9053 124.608 14.672 123.918 14.672C123.208 14.672 122.634 14.9193 122.196 15.414C121.766 15.8993 121.552 16.5573 121.552 17.388C121.552 18.2373 121.766 18.9187 122.196 19.432C122.634 19.936 123.218 20.188 123.946 20.188C124.403 20.188 124.804 20.09 125.15 19.894C125.495 19.6887 125.747 19.3993 125.906 19.026H126.97C126.736 19.6793 126.344 20.1973 125.794 20.58C125.252 20.9533 124.618 21.14 123.89 21.14ZM131.288 21.14C130.411 21.14 129.711 20.9393 129.188 20.538C128.665 20.1273 128.367 19.5487 128.292 18.802H129.37C129.435 19.2593 129.636 19.6093 129.972 19.852C130.308 20.0947 130.756 20.216 131.316 20.216C131.811 20.216 132.198 20.1227 132.478 19.936C132.758 19.7493 132.898 19.4833 132.898 19.138C132.898 18.8953 132.819 18.6853 132.66 18.508C132.501 18.3213 132.184 18.1673 131.708 18.046L130.56 17.752C129.907 17.584 129.417 17.3273 129.09 16.982C128.763 16.6273 128.6 16.2073 128.6 15.722C128.6 15.106 128.829 14.6207 129.286 14.266C129.743 13.902 130.364 13.72 131.148 13.72C131.923 13.72 132.553 13.9067 133.038 14.28C133.523 14.6533 133.799 15.1713 133.864 15.834H132.786C132.721 15.4513 132.543 15.1573 132.254 14.952C131.965 14.7467 131.582 14.644 131.106 14.644C130.649 14.644 130.294 14.7327 130.042 14.91C129.79 15.078 129.664 15.3207 129.664 15.638C129.664 15.8807 129.753 16.0907 129.93 16.268C130.117 16.4453 130.425 16.5947 130.854 16.716L131.974 17.024C132.637 17.2013 133.136 17.472 133.472 17.836C133.808 18.2 133.976 18.6387 133.976 19.152C133.976 19.7773 133.738 20.2673 133.262 20.622C132.786 20.9673 132.128 21.14 131.288 21.14Z" fill="white"/>
</svg>
