<svg width="24" height="24" viewBox="0 0 24 24" fill="none" xmlns="http://www.w3.org/2000/svg">
<path d="M1.3335 20C1.3335 18.5855 1.8954 17.2289 2.89559 16.2288C3.89579 15.2286 5.25234 14.6667 6.66683 14.6667H17.3335C18.748 14.6667 20.1045 15.2286 21.1047 16.2288C22.1049 17.2289 22.6668 18.5855 22.6668 20C22.6668 20.7072 22.3859 21.3855 21.8858 21.8856C21.3857 22.3857 20.7074 22.6667 20.0002 22.6667H4.00016C3.29292 22.6667 2.61464 22.3857 2.11454 21.8856C1.61445 21.3855 1.3335 20.7072 1.3335 20Z" stroke="white" stroke-width="1.5" stroke-linejoin="round"/>
<path d="M12 9.33333C14.2091 9.33333 16 7.54247 16 5.33333C16 3.12419 14.2091 1.33333 12 1.33333C9.79086 1.33333 8 3.12419 8 5.33333C8 7.54247 9.79086 9.33333 12 9.33333Z" stroke="white" stroke-width="1.5"/>
</svg>
