<svg width="32" height="32" viewBox="0 0 32 32" fill="none" xmlns="http://www.w3.org/2000/svg">
<path d="M14 2L13.7586 2.724C13.5224 3.43267 13.2018 4.11041 12.804 4.74267C12.2702 5.58421 11.5406 6.28402 10.6776 6.78229C9.81451 7.28057 8.84367 7.5625 7.84798 7.604C7.10201 7.63227 6.35534 7.57094 5.62398 7.42133L4.87598 7.268L2.87598 10.732L3.38264 11.304C3.88131 11.8667 4.30664 12.4827 4.65331 13.1387C5.11521 14.0217 5.35647 15.0034 5.35647 16C5.35647 16.9966 5.11521 17.9783 4.65331 18.8613C4.30466 19.5215 3.87805 20.1375 3.38264 20.696L2.87598 21.268L4.87598 24.732L5.62264 24.5787C6.35487 24.4288 7.10245 24.3675 7.84931 24.396C8.84477 24.4377 9.81535 24.7197 10.6781 25.218C11.5409 25.7163 12.2703 26.416 12.804 27.2573C13.1986 27.884 13.52 28.5627 13.7586 29.276L14 30H18L18.2413 29.276C18.4813 28.5596 18.7995 27.8867 19.196 27.2573C19.7298 26.4158 20.4594 25.716 21.3224 25.2177C22.1854 24.7194 23.1563 24.4375 24.152 24.396C24.8979 24.3677 25.6446 24.4291 26.376 24.5787L27.124 24.732L29.124 21.268L28.6173 20.696C28.1219 20.1375 27.6953 19.5215 27.3466 18.8613C26.8847 17.9783 26.6435 16.9966 26.6435 16C26.6435 15.0034 26.8847 14.0217 27.3466 13.1387C27.6933 12.4827 28.1186 11.8667 28.6173 11.304L29.124 10.732L27.124 7.268L26.3773 7.42133C25.6451 7.57116 24.8975 7.63249 24.1506 7.604C23.1552 7.56229 22.1846 7.28026 21.3218 6.78199C20.459 6.28372 19.7296 5.58403 19.196 4.74267C18.7981 4.11041 18.4776 3.43267 18.2413 2.724L18 2H14Z" stroke="white" stroke-width="1.5"/>
<path d="M20.6697 16C20.6697 17.2384 20.1778 18.426 19.3021 19.3017C18.4264 20.1774 17.2388 20.6693 16.0004 20.6693C14.762 20.6693 13.5743 20.1774 12.6987 19.3017C11.823 18.426 11.3311 17.2384 11.3311 16C11.3311 14.7616 11.823 13.5739 12.6987 12.6983C13.5743 11.8226 14.762 11.3307 16.0004 11.3307C17.2388 11.3307 18.4264 11.8226 19.3021 12.6983C20.1778 13.5739 20.6697 14.7616 20.6697 16Z" stroke="white" stroke-width="1.5"/>
</svg>
