<svg width="32" height="32" viewBox="0 0 32 32" fill="none" xmlns="http://www.w3.org/2000/svg">
<path d="M3.99967 4.00001V3.33334H3.33301V4.00001H3.99967ZM16.861 17.8053C16.9862 17.9305 17.156 18.0009 17.333 18.0009C17.51 18.0009 17.6798 17.9305 17.805 17.8053C17.9302 17.6802 18.0005 17.5104 18.0005 17.3333C18.0005 17.1563 17.9302 16.9865 17.805 16.8613L16.861 17.8053ZM4.66634 14.6667V4.00001H3.33301V14.6667H4.66634ZM3.99967 4.66668H14.6663V3.33334H3.99967V4.66668ZM3.52767 4.47201L16.861 17.8053L17.805 16.8613L4.47167 3.52801L3.52767 4.47201Z" fill="white"/>
<path d="M5.33301 20C5.33301 22.4933 5.33301 23.7387 5.86901 24.6667C6.22007 25.2747 6.72498 25.7796 7.33301 26.1307C8.26101 26.6667 9.50634 26.6667 11.9997 26.6667H18.6663C22.437 26.6667 24.3237 26.6667 25.4943 25.4947C26.6663 24.324 26.6663 22.4373 26.6663 18.6667V12C26.6663 9.50668 26.6663 8.26134 26.1303 7.33334C25.7793 6.72532 25.2744 6.2204 24.6663 5.86934C23.7383 5.33334 22.493 5.33334 19.9997 5.33334" stroke="white" stroke-width="1.5" stroke-linecap="round"/>
</svg>
