<svg width="32" height="32" viewBox="0 0 32 32" fill="none" xmlns="http://www.w3.org/2000/svg">
<path d="M4.00016 4.00001V3.33334H3.3335V4.00001H4.00016ZM16.8615 17.8053C16.9867 17.9305 17.1565 18.0009 17.3335 18.0009C17.5105 18.0009 17.6803 17.9305 17.8055 17.8053C17.9307 17.6802 18.001 17.5104 18.001 17.3333C18.001 17.1563 17.9307 16.9865 17.8055 16.8613L16.8615 17.8053ZM4.66683 14.6667V4.00001H3.3335V14.6667H4.66683ZM4.00016 4.66668H14.6668V3.33334H4.00016V4.66668ZM3.52816 4.47201L16.8615 17.8053L17.8055 16.8613L4.47216 3.52801L3.52816 4.47201Z" fill="white"/>
<path d="M5.3335 20C5.3335 22.4933 5.3335 23.7387 5.8695 24.6667C6.22056 25.2747 6.72547 25.7796 7.3335 26.1307C8.2615 26.6667 9.50683 26.6667 12.0002 26.6667H18.6668C22.4375 26.6667 24.3242 26.6667 25.4948 25.4947C26.6668 24.324 26.6668 22.4373 26.6668 18.6667V12C26.6668 9.50668 26.6668 8.26134 26.1308 7.33334C25.7798 6.72532 25.2749 6.2204 24.6668 5.86934C23.7388 5.33334 22.4935 5.33334 20.0002 5.33334" stroke="white" stroke-width="1.5" stroke-linecap="round"/>
</svg>
