<svg width="124" height="29" viewBox="0 0 124 29" fill="none" xmlns="http://www.w3.org/2000/svg">
<g clip-path="url(#clip0_286_26)">
<path d="M0.557617 18.5295C0.557617 13.0347 4.4154 8.3459 10.2204 8.3459C16.1357 8.3459 19.6995 12.7051 19.6995 18.5661V19.8482H5.7748C6.17895 22.4124 7.72206 24.4638 10.5144 24.4638C12.3514 24.4638 13.7475 23.5846 14.7028 22.0461L19.2954 23.5114C17.8992 26.9914 14.115 28.7863 10.4776 28.7863C4.63584 28.7863 0.557617 24.3905 0.557617 18.5295ZM10.2204 12.3021C7.7588 12.3021 6.28917 14.1337 5.84828 16.4049H14.4089C14.0782 14.1337 12.6821 12.3021 10.2204 12.3021ZM22.8919 8.89538H27.6315L27.7784 11.3863C28.9909 9.33496 31.1586 8.3459 33.51 8.3459C38.2863 8.3459 40.601 12.119 40.601 16.6246V28.2369H35.4573V17.284C35.4573 15.0495 34.5387 12.9615 32.0036 12.9615C29.6155 12.9615 28.0356 14.7564 28.0356 17.1375V28.2369H22.8919V8.89538ZM43.531 23.4015L48.1604 22.4124C48.7115 24.0242 50.1076 24.8667 51.761 24.8667C53.0469 24.8667 54.6267 24.3539 54.6267 22.8154C54.6267 21.2768 52.753 20.8373 51.5405 20.6541L50.5118 20.471C47.2786 19.9215 44.0822 18.3097 44.0822 14.6099C44.0822 10.4705 47.7195 8.3459 51.5773 8.3459C55.0309 8.3459 58.411 9.99432 59.2561 13.6208L54.6635 14.5733C54.1491 13.1446 53.1204 12.2289 51.5405 12.2289C50.3648 12.2289 48.9319 12.815 48.9319 14.1703C48.9319 15.5623 51.0629 16.0019 52.0916 16.1851L53.1204 16.3682C56.3903 16.9543 59.55 18.5661 59.55 22.3025C59.55 26.5884 55.6555 28.7863 51.6875 28.7863C48.1604 28.7863 44.523 27.0646 43.531 23.4015ZM62.7543 28.2369V8.89538H67.898V28.2369H62.7543ZM65.3261 6.58759C63.7095 6.58759 62.3869 5.30548 62.3869 3.65706C62.3869 2.00864 63.636 0.726532 65.3261 0.726532C67.0162 0.726532 68.2654 1.93538 68.2654 3.65706C68.2654 5.30548 67.0162 6.58759 65.3261 6.58759ZM72.0112 8.89538H76.751L76.898 11.3863C78.1104 9.33496 80.2781 8.3459 82.6295 8.3459C87.4058 8.3459 89.7205 12.119 89.7205 16.6246V28.2369H84.5768V17.284C84.5768 15.0495 83.6583 12.9615 81.1232 12.9615C78.735 12.9615 77.1552 14.7564 77.1552 17.1375V28.2369H72.0112V8.89538Z" fill="white"/>
<path d="M99.8145 28.7863C96.2874 28.7863 92.9072 26.5884 92.9072 22.7421C92.9072 18.4196 97.0222 16.5514 100.88 16.5514C102.497 16.5514 103.782 16.8444 105.289 17.3939V16.2583C105.289 14.0971 104.04 12.5585 101.798 12.5585C100.219 12.5585 98.749 13.3278 98.1979 14.8663L93.6053 13.9505C94.4503 10.2508 98.3081 8.34591 101.872 8.34591C106.722 8.34591 110.286 11.4596 110.286 16.5148V28.2369H105.693L105.546 25.9657C104.37 27.9072 102.019 28.7863 99.8145 28.7863ZM97.9775 22.4857C97.9775 24.1341 99.6308 24.8301 101.064 24.8301C103.305 24.8301 105.289 23.2916 105.289 20.9105V20.7274C104.738 20.5076 104.187 20.3244 103.562 20.1779C102.937 20.068 102.35 19.9948 101.725 19.9948C100.145 19.9948 97.9775 20.5442 97.9775 22.4857ZM114.384 28.2369V8.89538H119.528V28.2369H114.384ZM113.429 6.14801L117.618 0.909698H123.349L118.279 6.14801H113.429Z" fill="#090830"/>
</g>
<defs>
<clipPath id="clip0_286_26">
<rect width="124" height="29" fill="white"/>
</clipPath>
</defs>
</svg>
