<svg width="139" height="152" viewBox="0 0 139 152" fill="none" xmlns="http://www.w3.org/2000/svg">
<g clip-path="url(#clip0_215_583)">
<g filter="url(#filter0_d_215_583)">
<path fill-rule="evenodd" clip-rule="evenodd" d="M70.0717 7.95771C69.4468 7.94085 68.8198 7.93237 68.1907 7.93237C30.53 7.93237 0 38.3389 0 75.8472C0 88.7304 3.60182 100.776 9.8573 111.039C14.0756 106.199 20.0865 100.288 25.13 98.06C21.6184 91.1942 19.6389 83.4246 19.6389 75.1952C19.6389 54.5663 32.0778 36.8248 49.9082 28.9745C53.7974 22.8554 61.4692 13.1336 70.0717 7.95771ZM39.7909 137.61C36.7285 136.211 33.7881 134.592 30.9898 132.775C34.4415 126.793 37.7452 119.949 39.7706 115.468C42.3121 117.385 45.0406 119.07 47.924 120.491L39.7909 137.61ZM125.455 112.736C132.367 102.114 136.381 89.4476 136.381 75.8472C136.381 54.8356 126.801 36.0524 111.753 23.5947C111.06 27.91 109.764 34.4355 107.921 41.0081C116.244 50.0052 121.325 62.0106 121.325 75.1952C121.325 84.7468 118.658 93.6791 114.025 101.298L125.455 112.736Z" fill="url(#paint0_linear_215_583)"/>
</g>
<g filter="url(#filter1_d_215_583)">
<path fill-rule="evenodd" clip-rule="evenodd" d="M67.8634 31.4038C64.8449 37.5977 58.8513 50.8546 59.0259 54.3319C60.9898 56.5414 67.2306 61.721 76.4827 64.7636C80.3379 60.6344 89.008 50.7894 92.8485 44.4435C93.4305 43.9001 94.5069 43.3786 94.1578 45.6388C93.3214 48.6451 89.4008 56.7877 80.4105 65.3069C81.7198 66.9732 82.7672 73.1524 76.4827 84.5404C87.3206 77.4409 107.512 50.5938 101.577 0C84.3748 5.21586 47.9408 25.0361 39.8234 62.5903C42.551 58.7871 49.381 51.3327 54.8799 51.9413C57.6802 43.5018 64.1975 27.5789 67.8634 31.4038ZM56.2983 58.6784C58.5168 60.9241 65.0049 66.0458 73.2096 68.5668C66.0086 77.2236 48.9664 95.8631 38.405 101.166C41.6782 88.7783 49.8393 62.938 56.2983 58.6784ZM88.0479 28.7959C91.2416 28.7959 93.8305 26.2175 93.8305 23.0367C93.8305 19.856 91.2416 17.2775 88.0479 17.2775C84.8542 17.2775 82.2653 19.856 82.2653 23.0367C82.2653 26.2175 84.8542 28.7959 88.0479 28.7959Z" fill="url(#paint1_linear_215_583)"/>
</g>
<path d="M49.2005 132.557C49.3406 129.43 51.6576 126.86 54.9641 127.007C58.3335 127.157 60.2522 129.728 60.1025 133.062L60.07 133.792L52.1385 133.439C52.3032 134.908 53.1298 136.115 54.7204 136.185C55.7667 136.232 56.5843 135.767 57.1678 134.916L59.7462 135.866C58.8622 137.811 56.6609 138.736 54.5892 138.644C51.2617 138.496 49.0508 135.892 49.2005 132.557ZM54.8631 129.258C53.4611 129.196 52.5773 130.201 52.2681 131.482L57.1443 131.699C57.0138 130.398 56.2653 129.32 54.8631 129.258Z" fill="white"/>
<path d="M61.6311 127.772L64.3293 127.621L64.4929 129.033C65.1172 127.827 66.3194 127.196 67.6579 127.121C70.377 126.968 71.8159 129.04 71.9607 131.602L72.3341 138.205L69.4059 138.37L69.0537 132.141C68.982 130.87 68.3919 129.713 66.9489 129.793C65.5894 129.87 64.7478 130.941 64.8242 132.295L65.1812 138.606L62.253 138.771L61.6311 127.772Z" fill="white"/>
<path d="M88.1876 124.316L90.6959 123.314L91.3036 124.6C91.5089 123.26 92.4457 122.279 93.6902 121.782C96.2179 120.773 98.2457 122.279 99.2043 124.661L101.675 130.8L98.9525 131.886L96.6223 126.096C96.147 124.915 95.2166 124.005 93.875 124.54C92.6109 125.045 92.1568 126.328 92.6633 127.586L95.0247 133.454L92.3026 134.541L88.1876 124.316Z" fill="white"/>
<path d="M106.522 128.021C104.682 128.83 102.411 128.46 101.523 126.456C100.525 124.204 102.24 122.287 104.252 121.402C105.095 121.031 105.834 120.889 106.746 120.83L106.484 120.238C105.985 119.112 104.978 118.597 103.809 119.111C102.985 119.474 102.396 120.211 102.464 121.139L99.8568 121.716C99.443 119.594 101.015 117.717 102.874 116.899C105.404 115.787 107.982 116.592 109.149 119.226L111.857 125.334L109.461 126.387L108.86 125.237C108.695 126.519 107.672 127.516 106.522 128.021ZM104.109 125.16C104.489 126.019 105.512 126.002 106.26 125.674C107.429 125.16 108.108 123.903 107.558 122.663L107.516 122.567C107.178 122.579 106.848 122.61 106.488 122.677C106.137 122.763 105.814 122.859 105.488 123.003C104.664 123.365 103.66 124.148 104.109 125.16Z" fill="#148EE4"/>
<path d="M74.5474 136.305L77.049 135.295C77.5181 136.145 78.3857 136.48 79.3142 136.317C80.0363 136.191 80.8725 135.747 80.7199 134.884C80.5674 134.021 79.4718 133.959 78.7728 133.976L78.1769 133.974C76.3068 133.984 74.3523 133.395 73.9855 131.32C73.5753 128.998 75.4072 127.448 77.5733 127.068C79.5126 126.728 81.574 127.32 82.408 129.271L79.9237 130.258C79.4932 129.507 78.8248 129.095 77.9375 129.25C77.2774 129.366 76.5309 129.835 76.6651 130.596C76.8033 131.377 78.0434 131.413 78.6393 131.415L79.235 131.416C81.1293 131.423 83.0633 132.016 83.4338 134.112C83.8587 136.516 81.8895 138.133 79.6614 138.523C77.6807 138.87 75.4676 138.263 74.5474 136.305Z" fill="white"/>
<path d="M86.1604 136.529L83.5244 125.831L86.3725 125.135L89.0087 135.833L86.1604 136.529ZM84.634 124.206C83.7387 124.425 82.8316 123.895 82.6068 122.983C82.3823 122.071 82.8992 121.193 83.8351 120.964C84.7708 120.735 85.6273 121.235 85.8621 122.187C86.0866 123.099 85.5697 123.977 84.634 124.206Z" fill="white"/>
<path d="M114.422 123.593L109.234 113.864L111.824 112.494L117.012 122.223L114.422 123.593ZM108.016 112.737L108.72 108.986L111.607 107.459L110.459 111.445L108.016 112.737Z" fill="#148EE4"/>
<path d="M103.213 77.0425L104.982 81.8013L109.76 83.5623L104.982 85.3233L103.213 90.0821L101.445 85.3233L96.6672 83.5623L101.445 81.8013L103.213 77.0425Z" fill="#D74367"/>
<path d="M21.821 109.859L23.5892 114.618L28.3673 116.379L23.5892 118.14L21.821 122.899L20.0529 118.14L15.2747 116.379L20.0529 114.618L21.821 109.859Z" fill="#3716BB"/>
<path d="M85.1021 90.9517L86.2219 93.9656L89.248 95.0809L86.2219 96.1962L85.1021 99.2101L83.9822 96.1962L80.9561 95.0809L83.9822 93.9656L85.1021 90.9517Z" fill="#E8A346"/>
<path d="M19.4207 130.288L20.5405 133.302L23.5667 134.417L20.5405 135.532L19.4207 138.546L18.3009 135.532L15.2747 134.417L18.3009 133.302L19.4207 130.288Z" fill="#0242AA"/>
<path d="M97.8673 99.8621L98.6629 102.004L100.813 102.796L98.6629 103.588L97.8673 105.73L97.0718 103.588L94.9215 102.796L97.0718 102.004L97.8673 99.8621Z" fill="#055FCF"/>
<path d="M52.8069 144.305C66.4815 148.398 99.1984 150.695 120.67 127.136" stroke="url(#paint2_linear_215_583)" stroke-width="3"/>
</g>
<defs>
<filter id="filter0_d_215_583" x="0" y="7.93237" width="148.181" height="152.477" filterUnits="userSpaceOnUse" color-interpolation-filters="sRGB">
<feFlood flood-opacity="0" result="BackgroundImageFix"/>
<feColorMatrix in="SourceAlpha" type="matrix" values="0 0 0 0 0 0 0 0 0 0 0 0 0 0 0 0 0 0 127 0" result="hardAlpha"/>
<feOffset dx="6" dy="17"/>
<feGaussianBlur stdDeviation="2.9"/>
<feComposite in2="hardAlpha" operator="out"/>
<feColorMatrix type="matrix" values="0 0 0 0 0 0 0 0 0 0 0 0 0 0 0 0 0 0 0.25 0"/>
<feBlend mode="normal" in2="BackgroundImageFix" result="effect1_dropShadow_215_583"/>
<feBlend mode="normal" in="SourceGraphic" in2="effect1_dropShadow_215_583" result="shape"/>
</filter>
<filter id="filter1_d_215_583" x="38.405" y="0" width="76.0423" height="123.966" filterUnits="userSpaceOnUse" color-interpolation-filters="sRGB">
<feFlood flood-opacity="0" result="BackgroundImageFix"/>
<feColorMatrix in="SourceAlpha" type="matrix" values="0 0 0 0 0 0 0 0 0 0 0 0 0 0 0 0 0 0 127 0" result="hardAlpha"/>
<feOffset dx="6" dy="17"/>
<feGaussianBlur stdDeviation="2.9"/>
<feComposite in2="hardAlpha" operator="out"/>
<feColorMatrix type="matrix" values="0 0 0 0 0 0 0 0 0 0 0 0 0 0 0 0 0 0 0.25 0"/>
<feBlend mode="normal" in2="BackgroundImageFix" result="effect1_dropShadow_215_583"/>
<feBlend mode="normal" in="SourceGraphic" in2="effect1_dropShadow_215_583" result="shape"/>
</filter>
<linearGradient id="paint0_linear_215_583" x1="68.1907" y1="7.93237" x2="68.299" y2="60.417" gradientUnits="userSpaceOnUse">
<stop stop-color="#148EE4"/>
<stop offset="1" stop-color="#8232AE"/>
</linearGradient>
<linearGradient id="paint1_linear_215_583" x1="113.906" y1="-12.4963" x2="-20.2056" y2="183.823" gradientUnits="userSpaceOnUse">
<stop stop-color="#DC7331"/>
<stop offset="1" stop-color="#FFC73A"/>
</linearGradient>
<linearGradient id="paint2_linear_215_583" x1="82.8108" y1="112.576" x2="88.2228" y2="151.7" gradientUnits="userSpaceOnUse">
<stop stop-color="#148EE4"/>
<stop offset="1" stop-color="#361548"/>
</linearGradient>
<clipPath id="clip0_215_583">
<rect width="139" height="152" fill="white"/>
</clipPath>
</defs>
</svg>
