<svg width="24" height="24" viewBox="0 0 24 24" fill="none" xmlns="http://www.w3.org/2000/svg">
<path d="M12.4998 10.5C11.4832 10.5 10.5082 10.1049 9.78926 9.40165C9.07037 8.69839 8.6665 7.74456 8.6665 6.75C8.6665 5.75544 9.07037 4.80161 9.78926 4.09835C10.5082 3.39509 11.4832 3 12.4998 3C13.5165 3 14.4915 3.39509 15.2104 4.09835C15.9293 4.80161 16.3332 5.75544 16.3332 6.75C16.3332 7.74456 15.9293 8.69839 15.2104 9.40165C14.4915 10.1049 13.5165 10.5 12.4998 10.5ZM12.4998 4.5C11.2272 4.5 10.1998 5.505 10.1998 6.75C10.1998 7.995 11.2272 9 12.4998 9C13.7725 9 14.7998 7.995 14.7998 6.75C14.7998 5.505 13.7725 4.5 12.4998 4.5Z" fill="#090830"/>
<path d="M21.7 16.5C21.2707 16.5 20.9333 16.17 20.9333 15.75C20.9333 15.33 21.2707 15 21.7 15C22.1293 15 22.4667 14.67 22.4667 14.25C22.4667 13.2554 22.0628 12.3016 21.3439 11.5983C20.625 10.8951 19.65 10.5 18.6333 10.5H17.1C16.6707 10.5 16.3333 10.17 16.3333 9.75C16.3333 9.33 16.6707 9 17.1 9C18.3727 9 19.4 7.995 19.4 6.75C19.4 5.505 18.3727 4.5 17.1 4.5C16.6707 4.5 16.3333 4.17 16.3333 3.75C16.3333 3.33 16.6707 3 17.1 3C18.1167 3 19.0917 3.39509 19.8106 4.09835C20.5295 4.80161 20.9333 5.75544 20.9333 6.75C20.9333 7.68 20.596 8.52 20.0133 9.18C22.298 9.78 24 11.82 24 14.25C24 15.495 22.9727 16.5 21.7 16.5ZM3.3 16.5C2.02733 16.5 1 15.495 1 14.25C1 11.82 2.68667 9.78 4.98667 9.18C4.41933 8.52 4.06667 7.68 4.06667 6.75C4.06667 5.75544 4.47053 4.80161 5.18942 4.09835C5.90831 3.39509 6.88334 3 7.9 3C8.32933 3 8.66667 3.33 8.66667 3.75C8.66667 4.17 8.32933 4.5 7.9 4.5C6.62733 4.5 5.6 5.505 5.6 6.75C5.6 7.995 6.62733 9 7.9 9C8.32933 9 8.66667 9.33 8.66667 9.75C8.66667 10.17 8.32933 10.5 7.9 10.5H6.36667C5.35 10.5 4.37498 10.8951 3.65609 11.5983C2.9372 12.3016 2.53333 13.2554 2.53333 14.25C2.53333 14.67 2.87067 15 3.3 15C3.72933 15 4.06667 15.33 4.06667 15.75C4.06667 16.17 3.72933 16.5 3.3 16.5ZM17.1 21H7.9C6.62733 21 5.6 19.995 5.6 18.75V17.25C5.6 14.355 8.00733 12 10.9667 12H14.0333C16.9927 12 19.4 14.355 19.4 17.25V18.75C19.4 19.995 18.3727 21 17.1 21ZM10.9667 13.5C9.95 13.5 8.97498 13.8951 8.25609 14.5983C7.5372 15.3016 7.13333 16.2554 7.13333 17.25V18.75C7.13333 19.17 7.47067 19.5 7.9 19.5H17.1C17.5293 19.5 17.8667 19.17 17.8667 18.75V17.25C17.8667 16.2554 17.4628 15.3016 16.7439 14.5983C16.025 13.8951 15.05 13.5 14.0333 13.5H10.9667Z" fill="#090830"/>
</svg>
