<svg width="32" height="32" viewBox="0 0 32 32" fill="none" xmlns="http://www.w3.org/2000/svg">
<path d="M11.9785 27.5507H7.59184C5.97584 27.5507 4.6665 26.2413 4.6665 24.6253V16.02C4.66749 15.3931 4.80242 14.7737 5.06227 14.2032C5.32211 13.6326 5.70087 13.1242 6.17317 12.712L14.0798 5.82535C14.6123 5.36218 15.2942 5.10709 15.9998 5.10709C16.7055 5.10709 17.3874 5.36218 17.9198 5.82535L25.8265 12.7133C26.2986 13.1254 26.6773 13.6336 26.9371 14.2039C27.197 14.7741 27.332 15.3933 27.3332 16.02V24.6253C27.3332 25.401 27.0251 26.1448 26.4768 26.6934C25.9285 27.242 25.1848 27.5503 24.4092 27.5507H20.3865V18.776C20.3865 17.5653 19.4052 16.5827 18.1932 16.5827H14.1732C12.9612 16.5827 11.9798 17.5653 11.9798 18.776L11.9785 27.5507ZM11.9785 27.5507H20.3878" stroke="white" stroke-width="1.5" stroke-linejoin="round"/>
</svg>
