<svg width="32" height="32" viewBox="0 0 32 32" fill="none" xmlns="http://www.w3.org/2000/svg">
<path d="M10.667 29.3334H21.3337C25.1043 29.3334 26.991 29.3334 28.1617 28.1627C29.3337 26.9894 29.3337 25.1054 29.3337 21.3334V20C29.3337 16.2294 29.3337 14.344 28.1617 13.172C27.1377 12.148 25.567 12.0187 22.667 12.0027M9.33366 12.0027C6.43366 12.0187 4.86299 12.148 3.83899 13.172C2.66699 14.344 2.66699 16.2294 2.66699 20V21.3334C2.66699 25.1054 2.66699 26.9907 3.83899 28.1627C4.23899 28.5627 4.72166 28.8254 5.33366 28.9987" stroke="#FF8E47" stroke-width="1.5" stroke-linecap="round"/>
<path d="M16 2.66669V20M16 20L12 15.3334M16 20L20 15.3334" stroke="#FF8E47" stroke-width="1.5" stroke-linecap="round" stroke-linejoin="round"/>
</svg>
