<svg width="28" height="24" viewBox="0 0 28 24" fill="none" xmlns="http://www.w3.org/2000/svg">
<path d="M12.75 12C12.75 12.1989 12.671 12.3897 12.5303 12.5303C12.3897 12.671 12.1989 12.75 12 12.75H6C5.80109 12.75 5.61032 12.671 5.46967 12.5303C5.32902 12.3897 5.25 12.1989 5.25 12C5.25 11.8011 5.32902 11.6103 5.46967 11.4697C5.61032 11.329 5.80109 11.25 6 11.25H12C12.1989 11.25 12.3897 11.329 12.5303 11.4697C12.671 11.6103 12.75 11.8011 12.75 12ZM12 7.25H6C5.80109 7.25 5.61032 7.32902 5.46967 7.46967C5.32902 7.61032 5.25 7.80109 5.25 8C5.25 8.19891 5.32902 8.38968 5.46967 8.53033C5.61032 8.67098 5.80109 8.75 6 8.75H12C12.1989 8.75 12.3897 8.67098 12.5303 8.53033C12.671 8.38968 12.75 8.19891 12.75 8C12.75 7.80109 12.671 7.61032 12.5303 7.46967C12.3897 7.32902 12.1989 7.25 12 7.25ZM25.75 15.0775V23C25.7503 23.1318 25.7159 23.2614 25.6502 23.3756C25.5845 23.4899 25.4898 23.5848 25.3758 23.6508C25.2617 23.7168 25.1322 23.7517 25.0004 23.7517C24.8686 23.7518 24.7391 23.7172 24.625 23.6513L21.5 21.8638L18.375 23.6513C18.2609 23.7172 18.1314 23.7518 17.9996 23.7517C17.8678 23.7517 17.7383 23.7168 17.6242 23.6508C17.5102 23.5848 17.4155 23.4899 17.3498 23.3756C17.2841 23.2614 17.2497 23.1318 17.25 23V19.75H2C1.53587 19.75 1.09075 19.5656 0.762563 19.2374C0.434375 18.9092 0.25 18.4641 0.25 18V2C0.25 1.53587 0.434375 1.09075 0.762563 0.762563C1.09075 0.434375 1.53587 0.25 2 0.25H24C24.4641 0.25 24.9092 0.434375 25.2374 0.762563C25.5656 1.09075 25.75 1.53587 25.75 2V5.9225C26.3807 6.50656 26.8839 7.21465 27.228 8.00236C27.5722 8.79007 27.7498 9.6404 27.7498 10.5C27.7498 11.3596 27.5722 12.2099 27.228 12.9976C26.8839 13.7853 26.3807 14.4934 25.75 15.0775ZM21.5 5.75C20.5605 5.75 19.6422 6.02858 18.861 6.55052C18.0799 7.07246 17.4711 7.8143 17.1116 8.68225C16.7521 9.5502 16.658 10.5053 16.8413 11.4267C17.0245 12.3481 17.4769 13.1945 18.1412 13.8588C18.8055 14.5231 19.6519 14.9754 20.5733 15.1587C21.4947 15.342 22.4498 15.2479 23.3177 14.8884C24.1857 14.5289 24.9275 13.9201 25.4495 13.139C25.9714 12.3578 26.25 11.4395 26.25 10.5C26.25 9.24022 25.7496 8.03204 24.8588 7.14124C23.968 6.25045 22.7598 5.75 21.5 5.75ZM17.25 18.25V15.0775C16.1556 14.0562 15.4642 12.676 15.3014 11.1879C15.1386 9.69989 15.5152 8.20284 16.3629 6.96904C17.2106 5.73525 18.4729 4.84666 19.9203 4.46489C21.3677 4.08312 22.9041 4.23352 24.25 4.88875V2C24.25 1.9337 24.2237 1.87011 24.1768 1.82322C24.1299 1.77634 24.0663 1.75 24 1.75H2C1.9337 1.75 1.87011 1.77634 1.82322 1.82322C1.77634 1.87011 1.75 1.9337 1.75 2V18C1.75 18.0663 1.77634 18.1299 1.82322 18.1768C1.87011 18.2237 1.9337 18.25 2 18.25H17.25ZM24.25 16.1112C23.3942 16.5315 22.4534 16.75 21.5 16.75C20.5466 16.75 19.6058 16.5315 18.75 16.1112V21.7075L21.125 20.3487C21.239 20.2829 21.3683 20.2483 21.5 20.2483C21.6317 20.2483 21.761 20.2829 21.875 20.3487L24.25 21.7075V16.1112Z" fill="white"/>
</svg>
