<svg width="32" height="32" viewBox="0 0 32 32" fill="none" xmlns="http://www.w3.org/2000/svg">
<path fill-rule="evenodd" clip-rule="evenodd" d="M16.0003 29.3333C8.63633 29.3333 2.66699 23.364 2.66699 16C2.66699 8.63599 8.63633 2.66666 16.0003 2.66666C23.3643 2.66666 29.3337 8.63599 29.3337 16C29.3337 23.364 23.3643 29.3333 16.0003 29.3333ZM16.0003 27.7333C19.1122 27.7333 22.0966 26.4971 24.297 24.2967C26.4975 22.0963 27.7337 19.1119 27.7337 16C27.7337 12.8881 26.4975 9.9037 24.297 7.70327C22.0966 5.50284 19.1122 4.26666 16.0003 4.26666C12.8885 4.26666 9.90403 5.50284 7.70361 7.70327C5.50318 9.9037 4.26699 12.8881 4.26699 16C4.26699 19.1119 5.50318 22.0963 7.70361 24.2967C9.90403 26.4971 12.8885 27.7333 16.0003 27.7333ZM12.0003 12.9427C12.103 10.9333 13.4417 9.33332 16.0563 9.33332C18.4003 9.33332 20.0003 10.784 20.0003 12.7013C20.0003 14.1613 19.247 15.1947 18.0563 15.9107C16.875 16.608 16.5403 17.1293 16.5403 18.1053V18.7107H14.9123V17.8547C14.903 16.6267 15.499 15.788 16.7723 15.0267C17.8523 14.3653 18.2697 13.78 18.2697 12.784C18.2697 11.6307 17.3763 10.784 15.991 10.784C14.587 10.784 13.6937 11.612 13.591 12.9427H12.0003ZM15.731 22.952C15.5912 22.9538 15.4525 22.9276 15.323 22.875C15.1936 22.8223 15.0759 22.7444 14.977 22.6456C14.8781 22.5468 14.8 22.4293 14.7472 22.2998C14.6944 22.1704 14.668 22.0317 14.6697 21.892C14.6697 21.2867 15.1363 20.8307 15.731 20.8307C16.335 20.8307 16.791 21.2867 16.791 21.892C16.7937 22.0319 16.7681 22.171 16.7158 22.3008C16.6635 22.4307 16.5856 22.5486 16.4866 22.6476C16.3876 22.7466 16.2697 22.8245 16.1398 22.8768C16.01 22.9291 15.8709 22.9547 15.731 22.952Z" fill="white"/>
</svg>
