<svg width="32" height="32" viewBox="0 0 32 32" fill="none" xmlns="http://www.w3.org/2000/svg">
<path fill-rule="evenodd" clip-rule="evenodd" d="M15.9998 29.3333C8.63584 29.3333 2.6665 23.364 2.6665 16C2.6665 8.63599 8.63584 2.66666 15.9998 2.66666C23.3638 2.66666 29.3332 8.63599 29.3332 16C29.3332 23.364 23.3638 29.3333 15.9998 29.3333ZM15.9998 27.7333C19.1117 27.7333 22.0961 26.4971 24.2966 24.2967C26.497 22.0963 27.7332 19.1119 27.7332 16C27.7332 12.8881 26.497 9.9037 24.2966 7.70327C22.0961 5.50284 19.1117 4.26666 15.9998 4.26666C12.888 4.26666 9.90354 5.50284 7.70312 7.70327C5.50269 9.9037 4.2665 12.8881 4.2665 16C4.2665 19.1119 5.50269 22.0963 7.70312 24.2967C9.90354 26.4971 12.888 27.7333 15.9998 27.7333ZM11.9998 12.9427C12.1025 10.9333 13.4412 9.33332 16.0558 9.33332C18.3998 9.33332 19.9998 10.784 19.9998 12.7013C19.9998 14.1613 19.2465 15.1947 18.0558 15.9107C16.8745 16.608 16.5398 17.1293 16.5398 18.1053V18.7107H14.9118V17.8547C14.9025 16.6267 15.4985 15.788 16.7718 15.0267C17.8518 14.3653 18.2692 13.78 18.2692 12.784C18.2692 11.6307 17.3758 10.784 15.9905 10.784C14.5865 10.784 13.6932 11.612 13.5905 12.9427H11.9998ZM15.7305 22.952C15.5907 22.9538 15.452 22.9276 15.3226 22.875C15.1931 22.8223 15.0754 22.7444 14.9765 22.6456C14.8776 22.5468 14.7995 22.4293 14.7467 22.2998C14.6939 22.1704 14.6676 22.0317 14.6692 21.892C14.6692 21.2867 15.1358 20.8307 15.7305 20.8307C16.3345 20.8307 16.7905 21.2867 16.7905 21.892C16.7932 22.0319 16.7677 22.171 16.7154 22.3008C16.663 22.4307 16.5851 22.5486 16.4861 22.6476C16.3871 22.7466 16.2692 22.8245 16.1393 22.8768C16.0095 22.9291 15.8705 22.9547 15.7305 22.952Z" fill="white"/>
</svg>
